SplineFontDB: 3.2
FontName: Kilroy5W65-8ptRegular
FullName: Kilroy5W65 8pt Regular
FamilyName: Kilroy5W65
Weight: Regular
Copyright: Copyright 2020 The Roboto Serif Project Authors (https://github.com/googlefonts/RobotoSerif) OFL
Version: 1.008
ItalicAngle: 0
UnderlinePosition: -200
UnderlineWidth: 100
Ascent: 800
Descent: 200
InvalidEm: 0
sfntRevision: 0x0001020c
LayerCount: 2
Layer: 0 1 "Back" 1
Layer: 1 1 "Fore" 0
XUID: [1021 1018 -1064020043 21319]
StyleMap: 0x0040
FSType: 0
OS2Version: 4
OS2_WeightWidthSlopeOnly: 0
OS2_UseTypoMetrics: 1
CreationTime: 1586430965
ModificationTime: 1752109501
PfmFamily: 81
TTFWeight: 400
TTFWidth: 2
LineGap: 0
VLineGap: 0
Panose: 0 0 0 0 0 0 0 0 0 0
OS2TypoAscent: 927
OS2TypoAOffset: 0
OS2TypoDescent: -244
OS2TypoDOffset: 0
OS2TypoLinegap: 0
OS2WinAscent: 1048
OS2WinAOffset: 0
OS2WinDescent: 251
OS2WinDOffset: 0
HheadAscent: 927
HheadAOffset: 0
HheadDescent: -244
HheadDOffset: 0
OS2SubXSize: 650
OS2SubYSize: 600
OS2SubXOff: 0
OS2SubYOff: 75
OS2SupXSize: 650
OS2SupYSize: 600
OS2SupXOff: 0
OS2SupYOff: 350
OS2StrikeYSize: 100
OS2StrikeYPos: 311
OS2CapHeight: 710
OS2XHeight: 518
OS2Vendor: 'COMM'
OS2CodePages: 20000193.00000000
OS2UnicodeRanges: a10000ef.4000267a.00000000.00000000
Lookup: 5 0 0 "'locl' Localized Forms in Latin lookup 0" { "'locl' Localized Forms in Latin lookup 0 subtable"  } ['locl' ('latn' <'AZE ' 'CRT ' 'TRK ' > ) ]
Lookup: 1 0 0 "Single Substitution lookup 1" { "Single Substitution lookup 1 subtable"  } []
Lookup: 5 0 0 "'locl' Localized Forms in Latin lookup 2" { "'locl' Localized Forms in Latin lookup 2 subtable"  } ['locl' ('latn' <'PLK ' > ) ]
Lookup: 1 0 0 "Single Substitution lookup 3" { "Single Substitution lookup 3 subtable"  } []
Lookup: 6 0 0 "'locl' Localized Forms in Latin lookup 4" { "'locl' Localized Forms in Latin lookup 4 subtable"  } ['locl' ('latn' <'CAT ' > ) ]
Lookup: 4 0 0 "Ligature Substitution lookup 5" { "Ligature Substitution lookup 5 subtable"  } []

StartChar: .notdef
Encoding: 65536 -1 0
Width: 400
GlyphClass: 1
Flags: W
LayerCount: 2
Fore
SplineSet
0 0 m 1,0,-1
 0 700 l 1,1,-1
 400 700 l 1,2,-1
 400 0 l 1,3,-1
 0 0 l 1,0,-1
50 650 m 1,4,-1
 50 50 l 1,5,-1
 350 50 l 1,6,-1
 350 650 l 1,7,-1
 50 650 l 1,4,-1
EndSplineSet
EndChar

StartChar: A
Encoding: 65 65 6
Width: 651
GlyphClass: 2
Flags: W
AnchorPoint: "Anchor-2" 515 0 basechar 0
AnchorPoint: "Anchor-1" 325 0 basechar 0
AnchorPoint: "Anchor-0" 325 721 basechar 0
LayerCount: 2
Fore
SplineSet
194 302 m 1,0,-1
 431 302 l 1,1,-1
 447 228 l 1,2,-1
 178 228 l 1,3,-1
 194 302 l 1,0,-1
299 691 m 1,4,-1
 331 685 l 1,5,-1
 159 96 l 2,6,7
 159 90 159 90 168 84.5 c 128,-1,8
 177 79 177 79 192 76 c 128,-1,9
 207 73 207 73 227 73 c 2,10,-1
 236 73 l 1,11,-1
 236 0 l 1,12,-1
 16 0 l 1,13,-1
 16 73 l 1,14,-1
 22 73 l 2,15,16
 42 73 42 73 59 85 c 128,-1,17
 76 97 76 97 87 137 c 2,18,-1
 264 722 l 1,19,-1
 384 722 l 1,20,-1
 561 137 l 2,21,22
 573 97 573 97 590.5 85 c 128,-1,23
 608 73 608 73 632 73 c 2,24,-1
 636 73 l 1,25,-1
 636 0 l 1,26,-1
 395 0 l 1,27,-1
 395 73 l 1,28,-1
 405 73 l 2,29,30
 427 73 427 73 443.5 74.5 c 128,-1,31
 460 76 460 76 468.5 78.5 c 128,-1,32
 477 81 477 81 477 84 c 2,33,-1
 299 691 l 1,4,-1
EndSplineSet
EndChar

StartChar: Aogonek
Encoding: 260 260 15
Width: 651
GlyphClass: 1
Flags: W
LayerCount: 2
Fore
SplineSet
194 302 m 1,0,-1
 431 302 l 1,1,-1
 447 228 l 1,2,-1
 178 228 l 1,3,-1
 194 302 l 1,0,-1
521 40 m 1,4,-1
 549 5 l 1,5,6
 508 -33 508 -33 484.5 -57.5 c 128,-1,7
 461 -82 461 -82 451.5 -101.5 c 128,-1,8
 442 -121 442 -121 442 -146 c 0,9,10
 442 -166 442 -166 452 -178 c 128,-1,11
 462 -190 462 -190 482 -190 c 0,12,13
 508 -190 508 -190 526.5 -175 c 128,-1,14
 545 -160 545 -160 556 -143 c 1,15,-1
 598 -179 l 1,16,17
 575 -211 575 -211 543 -231.5 c 128,-1,18
 511 -252 511 -252 462 -252 c 0,19,20
 410 -252 410 -252 374 -230.5 c 128,-1,21
 338 -209 338 -209 338 -157 c 0,22,23
 338 -131 338 -131 345.5 -111 c 128,-1,24
 353 -91 353 -91 373.5 -70.5 c 128,-1,25
 394 -50 394 -50 430 -24 c 128,-1,26
 466 2 466 2 521 40 c 1,4,-1
636 0 m 1,27,-1
 504 0 l 1,28,-1
 299 691 l 1,29,-1
 328 669 l 1,30,-1
 162 96 l 2,31,32
 162 90 162 90 170.5 84.5 c 128,-1,33
 179 79 179 79 194 76 c 128,-1,34
 209 73 209 73 229 73 c 2,35,-1
 238 73 l 1,36,-1
 238 0 l 1,37,-1
 16 0 l 1,38,-1
 16 73 l 1,39,-1
 22 73 l 2,40,41
 42 73 42 73 58.5 85 c 128,-1,42
 75 97 75 97 87 137 c 2,43,-1
 264 722 l 1,44,-1
 384 722 l 1,45,-1
 561 137 l 2,46,47
 573 97 573 97 590.5 85 c 128,-1,48
 608 73 608 73 632 73 c 2,49,-1
 636 73 l 1,50,-1
 636 0 l 1,27,-1
EndSplineSet
EndChar

StartChar: Acaron
Encoding: 461 461 16
Width: 651
GlyphClass: 1
Flags: W
LayerCount: 2
Fore
SplineSet
285 806 m 1,0,-1
 355 806 l 1,1,-1
 474 961 l 1,2,-1
 474 981 l 1,3,-1
 425 981 l 1,4,-1
 262 841 l 1,5,-1
 383 844 l 1,6,-1
 223 981 l 1,7,-1
 165 981 l 1,8,-1
 165 961 l 1,9,-1
 285 806 l 1,0,-1
194 302 m 1,10,-1
 431 302 l 1,11,-1
 447 228 l 1,12,-1
 178 228 l 1,13,-1
 194 302 l 1,10,-1
299 691 m 1,14,-1
 331 685 l 1,15,-1
 159 96 l 2,16,17
 159 90 159 90 167.5 84.5 c 128,-1,18
 176 79 176 79 191.5 76 c 128,-1,19
 207 73 207 73 227 73 c 2,20,-1
 236 73 l 1,21,-1
 236 0 l 1,22,-1
 16 0 l 1,23,-1
 16 73 l 1,24,-1
 22 73 l 2,25,26
 42 73 42 73 58.5 85 c 128,-1,27
 75 97 75 97 87 137 c 2,28,-1
 264 722 l 1,29,-1
 384 722 l 1,30,-1
 561 137 l 2,31,32
 573 97 573 97 590.5 85 c 128,-1,33
 608 73 608 73 632 73 c 2,34,-1
 636 73 l 1,35,-1
 636 0 l 1,36,-1
 395 0 l 1,37,-1
 395 73 l 1,38,-1
 405 73 l 2,39,40
 427 73 427 73 443 74.5 c 128,-1,41
 459 76 459 76 468 78.5 c 128,-1,42
 477 81 477 81 477 84 c 2,43,-1
 299 691 l 1,14,-1
EndSplineSet
EndChar

StartChar: Adblgrave
Encoding: 512 512 18
Width: 651
GlyphClass: 1
Flags: W
LayerCount: 2
Fore
SplineSet
410 925 m 2,0,-1
 450 824 l 1,1,-1
 450 793 l 1,2,-1
 410 793 l 1,3,-1
 343 858 l 2,4,5
 324 877 324 877 314 894 c 128,-1,6
 304 911 304 911 304 932 c 0,7,8
 304 949 304 949 316.5 961.5 c 128,-1,9
 329 974 329 974 350 974 c 0,10,11
 366 974 366 974 377.5 967 c 128,-1,12
 389 960 389 960 396.5 949 c 128,-1,13
 404 938 404 938 410 925 c 2,0,-1
232 925 m 2,14,-1
 270 824 l 1,15,-1
 270 793 l 1,16,-1
 231 793 l 1,17,-1
 164 858 l 2,18,19
 145 877 145 877 134 894 c 128,-1,20
 123 911 123 911 123 932 c 0,21,22
 123 949 123 949 136 961.5 c 128,-1,23
 149 974 149 974 171 974 c 0,24,25
 187 974 187 974 198.5 967.5 c 128,-1,26
 210 961 210 961 219 949.5 c 128,-1,27
 228 938 228 938 232 925 c 2,14,-1
194 302 m 1,28,-1
 431 302 l 1,29,-1
 447 228 l 1,30,-1
 178 228 l 1,31,-1
 194 302 l 1,28,-1
299 691 m 1,32,-1
 331 685 l 1,33,-1
 159 96 l 2,34,35
 159 90 159 90 167.5 84.5 c 128,-1,36
 176 79 176 79 191.5 76 c 128,-1,37
 207 73 207 73 227 73 c 2,38,-1
 236 73 l 1,39,-1
 236 0 l 1,40,-1
 16 0 l 1,41,-1
 16 73 l 1,42,-1
 22 73 l 2,43,44
 42 73 42 73 58.5 85 c 128,-1,45
 75 97 75 97 87 137 c 2,46,-1
 264 722 l 1,47,-1
 384 722 l 1,48,-1
 561 137 l 2,49,50
 573 97 573 97 590.5 85 c 128,-1,51
 608 73 608 73 632 73 c 2,52,-1
 636 73 l 1,53,-1
 636 0 l 1,54,-1
 395 0 l 1,55,-1
 395 73 l 1,56,-1
 405 73 l 2,57,58
 427 73 427 73 443 74.5 c 128,-1,59
 459 76 459 76 468 78.5 c 128,-1,60
 477 81 477 81 477 84 c 2,61,-1
 299 691 l 1,32,-1
EndSplineSet
EndChar

StartChar: Ainvertedbreve
Encoding: 514 514 19
Width: 651
GlyphClass: 1
Flags: W
LayerCount: 2
Fore
SplineSet
328 929 m 0,0,1
 276 929 276 929 240.5 913 c 128,-1,2
 205 897 205 897 186.5 861 c 128,-1,3
 168 825 168 825 167 764 c 1,4,-1
 236 764 l 1,5,6
 238 800 238 800 246.5 819.5 c 128,-1,7
 255 839 255 839 274.5 846.5 c 128,-1,8
 294 854 294 854 328 854 c 0,9,10
 359 854 359 854 377.5 846.5 c 128,-1,11
 396 839 396 839 405 819.5 c 128,-1,12
 414 800 414 800 416 764 c 1,13,-1
 490 764 l 1,14,15
 489 825 489 825 469 861 c 128,-1,16
 449 897 449 897 413.5 913 c 128,-1,17
 378 929 378 929 328 929 c 0,0,1
194 302 m 1,18,-1
 431 302 l 1,19,-1
 447 228 l 1,20,-1
 178 228 l 1,21,-1
 194 302 l 1,18,-1
299 691 m 1,22,-1
 331 685 l 1,23,-1
 159 96 l 2,24,25
 159 90 159 90 168 84.5 c 128,-1,26
 177 79 177 79 192 76 c 128,-1,27
 207 73 207 73 227 73 c 2,28,-1
 236 73 l 1,29,-1
 236 0 l 1,30,-1
 16 0 l 1,31,-1
 16 73 l 1,32,-1
 22 73 l 2,33,34
 42 73 42 73 58.5 85 c 128,-1,35
 75 97 75 97 87 137 c 2,36,-1
 264 722 l 1,37,-1
 384 722 l 1,38,-1
 561 137 l 2,39,40
 573 97 573 97 590.5 85 c 128,-1,41
 608 73 608 73 632 73 c 2,42,-1
 636 73 l 1,43,-1
 636 0 l 1,44,-1
 395 0 l 1,45,-1
 395 73 l 1,46,-1
 405 73 l 2,47,48
 427 73 427 73 443.5 74.5 c 128,-1,49
 460 76 460 76 468.5 78.5 c 128,-1,50
 477 81 477 81 477 84 c 2,51,-1
 299 691 l 1,22,-1
EndSplineSet
EndChar

StartChar: B
Encoding: 66 66 32
Width: 637
GlyphClass: 2
Flags: W
AnchorPoint: "Anchor-0" 319 741 basechar 0
LayerCount: 2
Fore
SplineSet
343 710 m 2,0,1
 394 710 394 710 433 699.5 c 128,-1,2
 472 689 472 689 499 666.5 c 128,-1,3
 526 644 526 644 539.5 611 c 128,-1,4
 553 578 553 578 553 533 c 0,5,6
 553 489 553 489 534.5 453 c 128,-1,7
 516 417 516 417 478.5 396.5 c 128,-1,8
 441 376 441 376 385 374 c 1,9,-1
 393 389 l 1,10,-1
 393 354 l 1,11,-1
 385 372 l 1,12,13
 449 369 449 369 492 346.5 c 128,-1,14
 535 324 535 324 557.5 286.5 c 128,-1,15
 580 249 580 249 580 197 c 0,16,17
 580 147 580 147 565 110 c 128,-1,18
 550 73 550 73 521 48.5 c 128,-1,19
 492 24 492 24 449.5 12 c 128,-1,20
 407 0 407 0 352 0 c 2,21,-1
 53 0 l 1,22,-1
 53 73 l 1,23,-1
 63 73 l 2,24,25
 88 73 88 73 107.5 80 c 128,-1,26
 127 87 127 87 127 109 c 2,27,-1
 127 601 l 2,28,29
 127 623 127 623 107.5 630 c 128,-1,30
 88 637 88 637 63 637 c 2,31,-1
 53 637 l 1,32,-1
 53 710 l 1,33,-1
 343 710 l 2,0,1
187 406 m 1,34,-1
 336 406 l 2,35,36
 378 406 378 406 403.5 419.5 c 128,-1,37
 429 433 429 433 440.5 460 c 128,-1,38
 452 487 452 487 452 529 c 0,39,40
 452 564 452 564 441 588.5 c 128,-1,41
 430 613 430 613 405 626 c 128,-1,42
 380 639 380 639 337 639 c 2,43,-1
 225 639 l 1,44,-1
 225 71 l 1,45,-1
 345 71 l 2,46,47
 392 71 392 71 421 86 c 128,-1,48
 450 101 450 101 463.5 130 c 128,-1,49
 477 159 477 159 477 202 c 256,50,51
 477 245 477 245 462.5 275.5 c 128,-1,52
 448 306 448 306 416.5 322 c 128,-1,53
 385 338 385 338 336 338 c 2,54,-1
 187 338 l 1,55,-1
 187 406 l 1,34,-1
EndSplineSet
EndChar

StartChar: C
Encoding: 67 67 33
Width: 681
GlyphClass: 2
Flags: W
AnchorPoint: "Anchor-1" 360 0 basechar 0
AnchorPoint: "Anchor-0" 360 741 basechar 0
LayerCount: 2
Fore
SplineSet
347 661 m 0,0,1
 299 661 299 661 263.5 643 c 128,-1,2
 228 625 228 625 205 588 c 128,-1,3
 182 551 182 551 170.5 493 c 128,-1,4
 159 435 159 435 159 356 c 256,5,6
 159 277 159 277 170.5 219 c 128,-1,7
 182 161 182 161 206.5 123 c 128,-1,8
 231 85 231 85 268 66.5 c 128,-1,9
 305 48 305 48 357 48 c 0,10,11
 418 48 418 48 457 74.5 c 128,-1,12
 496 101 496 101 520 142.5 c 128,-1,13
 544 184 544 184 558 229 c 1,14,-1
 626 202 l 1,15,16
 606 133 606 133 569 82.5 c 128,-1,17
 532 32 532 32 478 4 c 128,-1,18
 424 -24 424 -24 352 -24 c 0,19,20
 284 -24 284 -24 229 0 c 128,-1,21
 174 24 174 24 135 72 c 128,-1,22
 96 120 96 120 75 191 c 128,-1,23
 54 262 54 262 54 356 c 256,24,25
 54 450 54 450 75 520.5 c 128,-1,26
 96 591 96 591 135 638.5 c 128,-1,27
 174 686 174 686 227.5 710 c 128,-1,28
 281 734 281 734 345 734 c 0,29,30
 403 734 403 734 447 708 c 128,-1,31
 491 682 491 682 517.5 631 c 128,-1,32
 544 580 544 580 551 503 c 1,33,-1
 530 538 l 1,34,-1
 543 720 l 1,35,-1
 616 720 l 1,36,-1
 616 469 l 1,37,-1
 536 469 l 1,38,39
 519 529 519 529 493.5 572 c 128,-1,40
 468 615 468 615 432 638 c 128,-1,41
 396 661 396 661 347 661 c 0,0,1
EndSplineSet
EndChar

StartChar: Ccaron
Encoding: 268 268 38
Width: 681
GlyphClass: 1
Flags: W
LayerCount: 2
Fore
SplineSet
307 806 m 1,0,-1
 377 806 l 1,1,-1
 496 961 l 1,2,-1
 496 981 l 1,3,-1
 447 981 l 1,4,-1
 284 841 l 1,5,-1
 405 844 l 1,6,-1
 245 981 l 1,7,-1
 187 981 l 1,8,-1
 187 961 l 1,9,-1
 307 806 l 1,0,-1
347 661 m 0,10,11
 299 661 299 661 263.5 643 c 128,-1,12
 228 625 228 625 205 588 c 128,-1,13
 182 551 182 551 170.5 493 c 128,-1,14
 159 435 159 435 159 356 c 256,15,16
 159 277 159 277 170.5 219 c 128,-1,17
 182 161 182 161 206.5 123 c 128,-1,18
 231 85 231 85 268 66.5 c 128,-1,19
 305 48 305 48 357 48 c 0,20,21
 418 48 418 48 457 74.5 c 128,-1,22
 496 101 496 101 520 142.5 c 128,-1,23
 544 184 544 184 558 229 c 1,24,-1
 626 202 l 1,25,26
 606 133 606 133 569 82.5 c 128,-1,27
 532 32 532 32 478 4 c 128,-1,28
 424 -24 424 -24 352 -24 c 0,29,30
 284 -24 284 -24 229 0 c 128,-1,31
 174 24 174 24 135 72 c 128,-1,32
 96 120 96 120 75 191 c 128,-1,33
 54 262 54 262 54 356 c 256,34,35
 54 450 54 450 75 520.5 c 128,-1,36
 96 591 96 591 135 638.5 c 128,-1,37
 174 686 174 686 227.5 710 c 128,-1,38
 281 734 281 734 345 734 c 0,39,40
 403 734 403 734 447 708 c 128,-1,41
 491 682 491 682 517.5 631 c 128,-1,42
 544 580 544 580 551 503 c 1,43,-1
 530 538 l 1,44,-1
 543 720 l 1,45,-1
 616 720 l 1,46,-1
 616 469 l 1,47,-1
 536 469 l 1,48,49
 519 529 519 529 493.5 572 c 128,-1,50
 468 615 468 615 432 638 c 128,-1,51
 396 661 396 661 347 661 c 0,10,11
EndSplineSet
EndChar

StartChar: D
Encoding: 68 68 40
Width: 706
GlyphClass: 2
Flags: W
AnchorPoint: "Anchor-1" 355 0 basechar 0
AnchorPoint: "Anchor-0" 355 741 basechar 0
LayerCount: 2
Fore
SplineSet
53 637 m 1,0,-1
 53 710 l 1,1,-1
 319 710 l 2,2,3
 397 710 397 710 459 689 c 128,-1,4
 521 668 521 668 564 624.5 c 128,-1,5
 607 581 607 581 629.5 515 c 128,-1,6
 652 449 652 449 652 359 c 0,7,8
 652 270 652 270 629.5 202.5 c 128,-1,9
 607 135 607 135 564 90 c 128,-1,10
 521 45 521 45 459 22.5 c 128,-1,11
 397 0 397 0 319 0 c 2,12,-1
 53 0 l 1,13,-1
 53 73 l 1,14,-1
 63 73 l 2,15,16
 88 73 88 73 107.5 80 c 128,-1,17
 127 87 127 87 127 109 c 2,18,-1
 127 601 l 2,19,20
 127 623 127 623 107.5 630 c 128,-1,21
 88 637 88 637 63 637 c 2,22,-1
 53 637 l 1,0,-1
316 639 m 2,23,-1
 225 639 l 1,24,-1
 225 71 l 1,25,-1
 316 71 l 2,26,27
 375 71 375 71 418.5 88.5 c 128,-1,28
 462 106 462 106 491 142 c 128,-1,29
 520 178 520 178 533.5 232 c 128,-1,30
 547 286 547 286 547 359 c 256,31,32
 547 432 547 432 533.5 485 c 128,-1,33
 520 538 520 538 491 572 c 128,-1,34
 462 606 462 606 418.5 622.5 c 128,-1,35
 375 639 375 639 316 639 c 2,23,-1
EndSplineSet
EndChar

StartChar: Dcaron
Encoding: 270 270 41
Width: 706
GlyphClass: 1
Flags: W
LayerCount: 2
Fore
SplineSet
314 806 m 1,0,-1
 383 806 l 1,1,-1
 502 961 l 1,2,-1
 502 981 l 1,3,-1
 454 981 l 1,4,-1
 291 841 l 1,5,-1
 412 844 l 1,6,-1
 251 981 l 1,7,-1
 194 981 l 1,8,-1
 194 961 l 1,9,-1
 314 806 l 1,0,-1
53 637 m 1,10,-1
 53 710 l 1,11,-1
 319 710 l 2,12,13
 397 710 397 710 459 689 c 128,-1,14
 521 668 521 668 564 624.5 c 128,-1,15
 607 581 607 581 629.5 515 c 128,-1,16
 652 449 652 449 652 359 c 0,17,18
 652 270 652 270 629.5 202.5 c 128,-1,19
 607 135 607 135 564 90 c 128,-1,20
 521 45 521 45 459 22.5 c 128,-1,21
 397 0 397 0 319 0 c 2,22,-1
 53 0 l 1,23,-1
 53 73 l 1,24,-1
 63 73 l 2,25,26
 88 73 88 73 107.5 80 c 128,-1,27
 127 87 127 87 127 109 c 2,28,-1
 127 601 l 2,29,30
 127 623 127 623 107.5 630 c 128,-1,31
 88 637 88 637 63 637 c 2,32,-1
 53 637 l 1,10,-1
316 639 m 2,33,-1
 225 639 l 1,34,-1
 225 71 l 1,35,-1
 316 71 l 2,36,37
 375 71 375 71 418.5 88.5 c 128,-1,38
 462 106 462 106 491 142 c 128,-1,39
 520 178 520 178 533.5 232 c 128,-1,40
 547 286 547 286 547 359 c 256,41,42
 547 432 547 432 533.5 485 c 128,-1,43
 520 538 520 538 491 572 c 128,-1,44
 462 606 462 606 418.5 622.5 c 128,-1,45
 375 639 375 639 316 639 c 2,33,-1
EndSplineSet
EndChar

StartChar: E
Encoding: 69 69 44
Width: 631
GlyphClass: 2
Flags: W
AnchorPoint: "Anchor-2" 436 0 basechar 0
AnchorPoint: "Anchor-1" 373 0 basechar 0
AnchorPoint: "Anchor-0" 373 741 basechar 0
LayerCount: 2
Fore
SplineSet
568 224 m 1,0,-1
 568 0 l 1,1,-1
 53 0 l 1,2,-1
 53 73 l 1,3,-1
 63 73 l 2,4,5
 88 73 88 73 107.5 80 c 128,-1,6
 127 87 127 87 127 109 c 2,7,-1
 127 601 l 2,8,9
 127 623 127 623 107.5 630 c 128,-1,10
 88 637 88 637 63 637 c 2,11,-1
 53 637 l 1,12,-1
 53 710 l 1,13,-1
 549 710 l 1,14,-1
 549 511 l 1,15,-1
 478 511 l 1,16,-1
 466 594 l 2,17,18
 464 612 464 612 452.5 621.5 c 128,-1,19
 441 631 441 631 418 635 c 128,-1,20
 395 639 395 639 359 639 c 2,21,-1
 225 639 l 1,22,-1
 225 71 l 1,23,-1
 374 71 l 2,24,25
 401 71 401 71 421 73 c 128,-1,26
 441 75 441 75 454 80.5 c 128,-1,27
 467 86 467 86 474 95 c 128,-1,28
 481 104 481 104 482 116 c 2,29,-1
 494 224 l 1,30,-1
 568 224 l 1,0,-1
210 398 m 1,31,32
 253 401 253 401 295.5 403 c 128,-1,33
 338 405 338 405 380 408 c 128,-1,34
 422 411 422 411 464 412 c 1,35,-1
 464 318 l 1,36,37
 422 321 422 321 380 323 c 128,-1,38
 338 325 338 325 295.5 327.5 c 128,-1,39
 253 330 253 330 210 332 c 1,40,-1
 210 398 l 1,31,32
EndSplineSet
Substitution2: "'ss01' Style Set 1 lookup 61 subtable" E.alt
EndChar

StartChar: Ecaron
Encoding: 282 282 53
Width: 631
GlyphClass: 1
Flags: W
LayerCount: 2
Fore
SplineSet
289 806 m 1,0,-1
 359 806 l 1,1,-1
 478 961 l 1,2,-1
 478 981 l 1,3,-1
 429 981 l 1,4,-1
 266 841 l 1,5,-1
 387 844 l 1,6,-1
 227 981 l 1,7,-1
 169 981 l 1,8,-1
 169 961 l 1,9,-1
 289 806 l 1,0,-1
568 224 m 1,10,-1
 568 0 l 1,11,-1
 53 0 l 1,12,-1
 53 73 l 1,13,-1
 63 73 l 2,14,15
 88 73 88 73 107.5 80 c 128,-1,16
 127 87 127 87 127 109 c 2,17,-1
 127 601 l 2,18,19
 127 623 127 623 107.5 630 c 128,-1,20
 88 637 88 637 63 637 c 2,21,-1
 53 637 l 1,22,-1
 53 710 l 1,23,-1
 549 710 l 1,24,-1
 549 511 l 1,25,-1
 478 511 l 1,26,-1
 466 594 l 2,27,28
 464 612 464 612 452.5 621.5 c 128,-1,29
 441 631 441 631 418 635 c 128,-1,30
 395 639 395 639 359 639 c 2,31,-1
 225 639 l 1,32,-1
 225 71 l 1,33,-1
 374 71 l 2,34,35
 401 71 401 71 421 73 c 128,-1,36
 441 75 441 75 454 80.5 c 128,-1,37
 467 86 467 86 474 95 c 128,-1,38
 481 104 481 104 482 116 c 2,39,-1
 494 224 l 1,40,-1
 568 224 l 1,10,-1
210 398 m 1,41,42
 253 401 253 401 295.5 403 c 128,-1,43
 338 405 338 405 380 408 c 128,-1,44
 422 411 422 411 464 412 c 1,45,-1
 464 318 l 1,46,47
 422 321 422 321 380 323 c 128,-1,48
 338 325 338 325 295.5 327.5 c 128,-1,49
 253 330 253 330 210 332 c 1,50,-1
 210 398 l 1,41,42
EndSplineSet
Substitution2: "'ss01' Style Set 1 lookup 61 subtable" Ecaron.alt
EndChar

StartChar: Edblgrave
Encoding: 516 516 54
Width: 631
GlyphClass: 1
Flags: W
LayerCount: 2
Fore
SplineSet
393 925 m 2,0,-1
 434 825 l 1,1,-1
 434 793 l 1,2,-1
 394 793 l 1,3,-1
 327 858 l 2,4,5
 308 877 308 877 297.5 894 c 128,-1,6
 287 911 287 911 287 932 c 0,7,8
 287 949 287 949 300 961.5 c 128,-1,9
 313 974 313 974 334 974 c 0,10,11
 350 974 350 974 361.5 967 c 128,-1,12
 373 960 373 960 380.5 949 c 128,-1,13
 388 938 388 938 393 925 c 2,0,-1
216 925 m 2,14,-1
 253 825 l 1,15,-1
 253 793 l 1,16,-1
 214 793 l 1,17,-1
 148 858 l 2,18,19
 128 877 128 877 117.5 894 c 128,-1,20
 107 911 107 911 107 932 c 0,21,22
 107 949 107 949 120 961.5 c 128,-1,23
 133 974 133 974 155 974 c 0,24,25
 171 974 171 974 182.5 967.5 c 128,-1,26
 194 961 194 961 202.5 949.5 c 128,-1,27
 211 938 211 938 216 925 c 2,14,-1
568 224 m 1,28,-1
 568 0 l 1,29,-1
 53 0 l 1,30,-1
 53 73 l 1,31,-1
 63 73 l 2,32,33
 88 73 88 73 107.5 80 c 128,-1,34
 127 87 127 87 127 109 c 2,35,-1
 127 601 l 2,36,37
 127 623 127 623 107.5 630 c 128,-1,38
 88 637 88 637 63 637 c 2,39,-1
 53 637 l 1,40,-1
 53 710 l 1,41,-1
 549 710 l 1,42,-1
 549 511 l 1,43,-1
 478 511 l 1,44,-1
 466 594 l 2,45,46
 464 612 464 612 452.5 621.5 c 128,-1,47
 441 631 441 631 418.5 635 c 128,-1,48
 396 639 396 639 359 639 c 2,49,-1
 225 639 l 1,50,-1
 225 71 l 1,51,-1
 374 71 l 2,52,53
 402 71 402 71 421.5 73 c 128,-1,54
 441 75 441 75 454 80 c 128,-1,55
 467 85 467 85 473.5 94 c 128,-1,56
 480 103 480 103 482 116 c 2,57,-1
 494 224 l 1,58,-1
 568 224 l 1,28,-1
210 398 m 1,59,60
 253 401 253 401 295 403 c 128,-1,61
 337 405 337 405 379.5 407.5 c 128,-1,62
 422 410 422 410 464 412 c 1,63,-1
 464 318 l 1,64,65
 422 320 422 320 379.5 322.5 c 128,-1,66
 337 325 337 325 295 327.5 c 128,-1,67
 253 330 253 330 210 332 c 1,68,-1
 210 398 l 1,59,60
EndSplineSet
Substitution2: "'ss01' Style Set 1 lookup 61 subtable" Edblgrave.alt
EndChar

StartChar: Einvertedbreve
Encoding: 518 518 55
Width: 631
GlyphClass: 1
Flags: W
LayerCount: 2
Fore
SplineSet
310 929 m 0,0,1
 258 929 258 929 223 913 c 128,-1,2
 188 897 188 897 169 861 c 128,-1,3
 150 825 150 825 149 764 c 1,4,-1
 219 764 l 1,5,6
 221 800 221 800 229 819.5 c 128,-1,7
 237 839 237 839 256.5 846.5 c 128,-1,8
 276 854 276 854 310 854 c 0,9,10
 341 854 341 854 360 846.5 c 128,-1,11
 379 839 379 839 388 819.5 c 128,-1,12
 397 800 397 800 398 764 c 1,13,-1
 472 764 l 1,14,15
 471 825 471 825 451.5 861 c 128,-1,16
 432 897 432 897 396 913 c 128,-1,17
 360 929 360 929 310 929 c 0,0,1
568 224 m 1,18,-1
 568 0 l 1,19,-1
 53 0 l 1,20,-1
 53 73 l 1,21,-1
 63 73 l 2,22,23
 88 73 88 73 107.5 80 c 128,-1,24
 127 87 127 87 127 109 c 2,25,-1
 127 601 l 2,26,27
 127 623 127 623 107.5 630 c 128,-1,28
 88 637 88 637 63 637 c 2,29,-1
 53 637 l 1,30,-1
 53 710 l 1,31,-1
 549 710 l 1,32,-1
 549 511 l 1,33,-1
 478 511 l 1,34,-1
 466 594 l 2,35,36
 464 612 464 612 452.5 621.5 c 128,-1,37
 441 631 441 631 418 635 c 128,-1,38
 395 639 395 639 359 639 c 2,39,-1
 225 639 l 1,40,-1
 225 71 l 1,41,-1
 374 71 l 2,42,43
 401 71 401 71 421 73 c 128,-1,44
 441 75 441 75 454 80 c 128,-1,45
 467 85 467 85 474 94.5 c 128,-1,46
 481 104 481 104 482 116 c 2,47,-1
 494 224 l 1,48,-1
 568 224 l 1,18,-1
210 398 m 1,49,50
 253 401 253 401 295.5 403 c 128,-1,51
 338 405 338 405 380 407.5 c 128,-1,52
 422 410 422 410 464 412 c 1,53,-1
 464 318 l 1,54,55
 422 320 422 320 380 322.5 c 128,-1,56
 338 325 338 325 295.5 327.5 c 128,-1,57
 253 330 253 330 210 332 c 1,58,-1
 210 398 l 1,49,50
EndSplineSet
Substitution2: "'ss01' Style Set 1 lookup 61 subtable" Einvertedbreve.alt
EndChar

StartChar: F
Encoding: 70 70 67
Width: 605
GlyphClass: 2
Flags: W
AnchorPoint: "Anchor-0" 312 741 basechar 0
LayerCount: 2
Fore
SplineSet
225 639 m 1,0,-1
 225 83 l 2,1,2
 225 80 225 80 232 78.5 c 128,-1,3
 239 77 239 77 250.5 75.5 c 128,-1,4
 262 74 262 74 276.5 73.5 c 128,-1,5
 291 73 291 73 307 73 c 2,6,-1
 323 73 l 1,7,-1
 323 0 l 1,8,-1
 53 0 l 1,9,-1
 53 73 l 1,10,-1
 63 73 l 2,11,12
 88 73 88 73 107.5 80 c 128,-1,13
 127 87 127 87 127 109 c 2,14,-1
 127 601 l 2,15,16
 127 623 127 623 107.5 630 c 128,-1,17
 88 637 88 637 63 637 c 2,18,-1
 53 637 l 1,19,-1
 53 710 l 1,20,-1
 549 710 l 1,21,-1
 549 507 l 1,22,-1
 478 507 l 1,23,-1
 466 594 l 2,24,25
 464 612 464 612 452.5 621.5 c 128,-1,26
 441 631 441 631 418 635 c 128,-1,27
 395 639 395 639 359 639 c 2,28,-1
 225 639 l 1,0,-1
210 391 m 1,29,30
 253 393 253 393 295.5 395 c 128,-1,31
 338 397 338 397 380 400 c 128,-1,32
 422 403 422 403 464 404 c 1,33,-1
 464 311 l 1,34,35
 422 314 422 314 380 316 c 128,-1,36
 338 318 338 318 295.5 320 c 128,-1,37
 253 322 253 322 210 324 c 1,38,-1
 210 391 l 1,29,30
EndSplineSet
Substitution2: "'ss01' Style Set 1 lookup 61 subtable" F.alt
EndChar

StartChar: G
Encoding: 71 71 68
Width: 721
GlyphClass: 2
Flags: W
AnchorPoint: "Anchor-1" 367 0 basechar 0
AnchorPoint: "Anchor-0" 367 741 basechar 0
LayerCount: 2
Fore
SplineSet
613 234 m 2,0,-1
 613 88 l 1,1,2
 596 67 596 67 571.5 47 c 128,-1,3
 547 27 547 27 515 11 c 128,-1,4
 483 -5 483 -5 445 -14.5 c 128,-1,5
 407 -24 407 -24 363 -24 c 0,6,7
 292 -24 292 -24 234.5 0 c 128,-1,8
 177 24 177 24 137 72 c 128,-1,9
 97 120 97 120 75.5 191 c 128,-1,10
 54 262 54 262 54 356 c 256,11,12
 54 450 54 450 76 520.5 c 128,-1,13
 98 591 98 591 138 638.5 c 128,-1,14
 178 686 178 686 233 710 c 128,-1,15
 288 734 288 734 352 734 c 0,16,17
 410 734 410 734 452 711 c 128,-1,18
 494 688 494 688 519.5 643 c 128,-1,19
 545 598 545 598 554 530 c 1,20,-1
 532 562 l 1,21,-1
 545 720 l 1,22,-1
 617 720 l 1,23,-1
 617 498 l 1,24,-1
 542 498 l 1,25,26
 527 546 527 546 501.5 583 c 128,-1,27
 476 620 476 620 440 641 c 128,-1,28
 404 662 404 662 355 662 c 0,29,30
 307 662 307 662 270.5 643.5 c 128,-1,31
 234 625 234 625 209 587.5 c 128,-1,32
 184 550 184 550 171.5 492.5 c 128,-1,33
 159 435 159 435 159 356 c 256,34,35
 159 277 159 277 171.5 218.5 c 128,-1,36
 184 160 184 160 209.5 122 c 128,-1,37
 235 84 235 84 274 66 c 128,-1,38
 313 48 313 48 365 48 c 0,39,40
 403 48 403 48 432.5 57.5 c 128,-1,41
 462 67 462 67 483.5 81 c 128,-1,42
 505 95 505 95 519 110 c 1,43,-1
 519 234 l 2,44,45
 519 259 519 259 495 266.5 c 128,-1,46
 471 274 471 274 437 274 c 2,47,-1
 410 274 l 1,48,-1
 410 347 l 1,49,-1
 698 347 l 1,50,-1
 698 274 l 1,51,-1
 676 274 l 2,52,53
 646 274 646 274 629.5 266.5 c 128,-1,54
 613 259 613 259 613 234 c 2,0,-1
EndSplineSet
EndChar

StartChar: Gcaron
Encoding: 486 486 73
Width: 721
GlyphClass: 1
Flags: W
LayerCount: 2
Fore
SplineSet
327 806 m 1,0,-1
 396 806 l 1,1,-1
 515 961 l 1,2,-1
 515 981 l 1,3,-1
 467 981 l 1,4,-1
 304 841 l 1,5,-1
 425 844 l 1,6,-1
 264 981 l 1,7,-1
 207 981 l 1,8,-1
 207 961 l 1,9,-1
 327 806 l 1,0,-1
613 234 m 2,10,-1
 613 88 l 1,11,12
 596 67 596 67 571.5 47 c 128,-1,13
 547 27 547 27 515 11 c 128,-1,14
 483 -5 483 -5 445 -14.5 c 128,-1,15
 407 -24 407 -24 363 -24 c 0,16,17
 292 -24 292 -24 234.5 0 c 128,-1,18
 177 24 177 24 137 72 c 128,-1,19
 97 120 97 120 75.5 191 c 128,-1,20
 54 262 54 262 54 356 c 256,21,22
 54 450 54 450 76 520.5 c 128,-1,23
 98 591 98 591 138 638.5 c 128,-1,24
 178 686 178 686 233 710 c 128,-1,25
 288 734 288 734 352 734 c 0,26,27
 410 734 410 734 452 711 c 128,-1,28
 494 688 494 688 519.5 643 c 128,-1,29
 545 598 545 598 554 530 c 1,30,-1
 532 562 l 1,31,-1
 545 720 l 1,32,-1
 617 720 l 1,33,-1
 617 498 l 1,34,-1
 542 498 l 1,35,36
 527 546 527 546 501.5 583 c 128,-1,37
 476 620 476 620 440 641 c 128,-1,38
 404 662 404 662 355 662 c 0,39,40
 307 662 307 662 270.5 643.5 c 128,-1,41
 234 625 234 625 209 587.5 c 128,-1,42
 184 550 184 550 171.5 492.5 c 128,-1,43
 159 435 159 435 159 356 c 256,44,45
 159 277 159 277 171.5 218.5 c 128,-1,46
 184 160 184 160 209.5 122 c 128,-1,47
 235 84 235 84 274 66 c 128,-1,48
 313 48 313 48 365 48 c 0,49,50
 403 48 403 48 432.5 57.5 c 128,-1,51
 462 67 462 67 483.5 81 c 128,-1,52
 505 95 505 95 519 110 c 1,53,-1
 519 234 l 2,54,55
 519 259 519 259 495 266.5 c 128,-1,56
 471 274 471 274 437 274 c 2,57,-1
 410 274 l 1,58,-1
 410 347 l 1,59,-1
 698 347 l 1,60,-1
 698 274 l 1,61,-1
 676 274 l 2,62,63
 646 274 646 274 629.5 266.5 c 128,-1,64
 613 259 613 259 613 234 c 2,10,-1
EndSplineSet
EndChar

StartChar: H
Encoding: 72 72 75
Width: 766
GlyphClass: 2
Flags: W
AnchorPoint: "Anchor-1" 383 0 basechar 0
AnchorPoint: "Anchor-0" 383 741 basechar 0
LayerCount: 2
Fore
SplineSet
200 403 m 1,0,-1
 563 403 l 1,1,-1
 563 329 l 1,2,-1
 200 329 l 1,3,-1
 200 403 l 1,0,-1
53 0 m 1,4,-1
 53 73 l 1,5,-1
 63 73 l 2,6,7
 88 73 88 73 107.5 80 c 128,-1,8
 127 87 127 87 127 109 c 2,9,-1
 127 601 l 2,10,11
 127 623 127 623 107.5 630 c 128,-1,12
 88 637 88 637 63 637 c 2,13,-1
 53 637 l 1,14,-1
 53 710 l 1,15,-1
 306 710 l 1,16,-1
 306 638 l 1,17,-1
 299 638 l 2,18,19
 287 638 287 638 274 637 c 128,-1,20
 261 636 261 636 250 634.5 c 128,-1,21
 239 633 239 633 232 631.5 c 128,-1,22
 225 630 225 630 225 628 c 2,23,-1
 225 82 l 2,24,25
 225 79 225 79 232 78 c 128,-1,26
 239 77 239 77 250 75.5 c 128,-1,27
 261 74 261 74 274 73.5 c 128,-1,28
 287 73 287 73 298 73 c 2,29,-1
 306 73 l 1,30,-1
 306 0 l 1,31,-1
 53 0 l 1,4,-1
460 0 m 1,32,-1
 460 72 l 1,33,-1
 468 72 l 2,34,35
 479 72 479 72 492 73 c 128,-1,36
 505 74 505 74 516 75.5 c 128,-1,37
 527 77 527 77 534 78.5 c 128,-1,38
 541 80 541 80 541 82 c 2,39,-1
 541 628 l 2,40,41
 541 631 541 631 534 632 c 128,-1,42
 527 633 527 633 516 634.5 c 128,-1,43
 505 636 505 636 492 636.5 c 128,-1,44
 479 637 479 637 468 637 c 2,45,-1
 460 637 l 1,46,-1
 460 710 l 1,47,-1
 713 710 l 1,48,-1
 713 637 l 1,49,-1
 703 637 l 2,50,51
 678 637 678 637 658.5 630 c 128,-1,52
 639 623 639 623 639 601 c 2,53,-1
 639 109 l 2,54,55
 639 87 639 87 658.5 80 c 128,-1,56
 678 73 678 73 703 73 c 2,57,-1
 713 73 l 1,58,-1
 713 0 l 1,59,-1
 460 0 l 1,32,-1
EndSplineSet
EndChar

StartChar: I
Encoding: 73 73 79
Width: 371
GlyphClass: 2
Flags: W
AnchorPoint: "Anchor-2" 244 0 basechar 0
AnchorPoint: "Anchor-1" 186 0 basechar 0
AnchorPoint: "Anchor-0" 186 741 basechar 0
LayerCount: 2
Fore
SplineSet
137 109 m 2,0,-1
 137 601 l 2,1,2
 137 623 137 623 117 630 c 128,-1,3
 97 637 97 637 68 637 c 2,4,-1
 51 637 l 1,5,-1
 51 710 l 1,6,-1
 320 710 l 1,7,-1
 320 637 l 1,8,-1
 303 637 l 2,9,10
 275 637 275 637 255 630 c 128,-1,11
 235 623 235 623 235 601 c 2,12,-1
 235 109 l 2,13,14
 235 87 235 87 255 80 c 128,-1,15
 275 73 275 73 303 73 c 2,16,-1
 320 73 l 1,17,-1
 320 0 l 1,18,-1
 51 0 l 1,19,-1
 51 73 l 1,20,-1
 68 73 l 2,21,22
 97 73 97 73 117 80 c 128,-1,23
 137 87 137 87 137 109 c 2,0,-1
EndSplineSet
EndChar

StartChar: Icaron
Encoding: 463 463 89
Width: 371
GlyphClass: 1
Flags: W
LayerCount: 2
Fore
SplineSet
151 806 m 1,0,-1
 221 806 l 1,1,-1
 340 961 l 1,2,-1
 340 981 l 1,3,-1
 291 981 l 1,4,-1
 128 841 l 1,5,-1
 249 844 l 1,6,-1
 89 981 l 1,7,-1
 31 981 l 1,8,-1
 31 961 l 1,9,-1
 151 806 l 1,0,-1
137 109 m 2,10,-1
 137 601 l 2,11,12
 137 623 137 623 117 630 c 128,-1,13
 97 637 97 637 68 637 c 2,14,-1
 51 637 l 1,15,-1
 51 710 l 1,16,-1
 320 710 l 1,17,-1
 320 637 l 1,18,-1
 303 637 l 2,19,20
 275 637 275 637 255 630 c 128,-1,21
 235 623 235 623 235 601 c 2,22,-1
 235 109 l 2,23,24
 235 87 235 87 255 80 c 128,-1,25
 275 73 275 73 303 73 c 2,26,-1
 320 73 l 1,27,-1
 320 0 l 1,28,-1
 51 0 l 1,29,-1
 51 73 l 1,30,-1
 68 73 l 2,31,32
 97 73 97 73 117 80 c 128,-1,33
 137 87 137 87 137 109 c 2,10,-1
EndSplineSet
EndChar

StartChar: Idblgrave
Encoding: 520 520 90
Width: 371
GlyphClass: 1
Flags: W
LayerCount: 2
Fore
SplineSet
269 925 m 2,0,-1
 310 825 l 1,1,-1
 310 793 l 1,2,-1
 270 793 l 1,3,-1
 203 858 l 2,4,5
 184 877 184 877 173.5 894 c 128,-1,6
 163 911 163 911 163 932 c 0,7,8
 163 949 163 949 176 961.5 c 128,-1,9
 189 974 189 974 210 974 c 0,10,11
 226 974 226 974 237.5 967 c 128,-1,12
 249 960 249 960 256.5 949 c 128,-1,13
 264 938 264 938 269 925 c 2,0,-1
92 925 m 2,14,-1
 129 825 l 1,15,-1
 129 793 l 1,16,-1
 90 793 l 1,17,-1
 24 858 l 2,18,19
 4 877 4 877 -6.5 894 c 128,-1,20
 -17 911 -17 911 -17 932 c 0,21,22
 -17 949 -17 949 -4 961.5 c 128,-1,23
 9 974 9 974 31 974 c 0,24,25
 47 974 47 974 58.5 967.5 c 128,-1,26
 70 961 70 961 78.5 949.5 c 128,-1,27
 87 938 87 938 92 925 c 2,14,-1
137 109 m 2,28,-1
 137 601 l 2,29,30
 137 623 137 623 117 630 c 128,-1,31
 97 637 97 637 68 637 c 2,32,-1
 51 637 l 1,33,-1
 51 710 l 1,34,-1
 320 710 l 1,35,-1
 320 637 l 1,36,-1
 303 637 l 2,37,38
 275 637 275 637 255 630 c 128,-1,39
 235 623 235 623 235 601 c 2,40,-1
 235 109 l 2,41,42
 235 87 235 87 255 80 c 128,-1,43
 275 73 275 73 303 73 c 2,44,-1
 320 73 l 1,45,-1
 320 0 l 1,46,-1
 51 0 l 1,47,-1
 51 73 l 1,48,-1
 68 73 l 2,49,50
 97 73 97 73 117 80 c 128,-1,51
 137 87 137 87 137 109 c 2,28,-1
EndSplineSet
EndChar

StartChar: Iinvertedbreve
Encoding: 522 522 91
Width: 371
GlyphClass: 1
Flags: W
LayerCount: 2
Fore
SplineSet
186 929 m 0,0,1
 134 929 134 929 99 913 c 128,-1,2
 64 897 64 897 45 861 c 128,-1,3
 26 825 26 825 25 764 c 1,4,-1
 95 764 l 1,5,6
 97 800 97 800 105 819.5 c 128,-1,7
 113 839 113 839 132.5 846.5 c 128,-1,8
 152 854 152 854 186 854 c 0,9,10
 217 854 217 854 236 846.5 c 128,-1,11
 255 839 255 839 264 819.5 c 128,-1,12
 273 800 273 800 274 764 c 1,13,-1
 348 764 l 1,14,15
 347 825 347 825 327.5 861 c 128,-1,16
 308 897 308 897 272 913 c 128,-1,17
 236 929 236 929 186 929 c 0,0,1
137 109 m 2,18,-1
 137 601 l 2,19,20
 137 623 137 623 117 630 c 128,-1,21
 97 637 97 637 68 637 c 2,22,-1
 51 637 l 1,23,-1
 51 710 l 1,24,-1
 320 710 l 1,25,-1
 320 637 l 1,26,-1
 303 637 l 2,27,28
 275 637 275 637 255 630 c 128,-1,29
 235 623 235 623 235 601 c 2,30,-1
 235 109 l 2,31,32
 235 87 235 87 255 80 c 128,-1,33
 275 73 275 73 303 73 c 2,34,-1
 320 73 l 1,35,-1
 320 0 l 1,36,-1
 51 0 l 1,37,-1
 51 73 l 1,38,-1
 68 73 l 2,39,40
 97 73 97 73 117 80 c 128,-1,41
 137 87 137 87 137 109 c 2,18,-1
EndSplineSet
EndChar

StartChar: J
Encoding: 74 74 94
Width: 590
GlyphClass: 2
Flags: W
AnchorPoint: "Anchor-0" 397 741 basechar 0
LayerCount: 2
Fore
SplineSet
275 710 m 1,0,-1
 550 710 l 1,1,-1
 550 637 l 1,2,-1
 532 637 l 2,3,4
 506 637 506 637 487 630 c 128,-1,5
 468 623 468 623 468 601 c 2,6,-1
 468 202 l 2,7,8
 468 141 468 141 450.5 98 c 128,-1,9
 433 55 433 55 402.5 28.5 c 128,-1,10
 372 2 372 2 331 -11 c 128,-1,11
 290 -24 290 -24 242 -24 c 0,12,13
 190 -24 190 -24 151.5 -11.5 c 128,-1,14
 113 1 113 1 87.5 18 c 128,-1,15
 62 35 62 35 47 47 c 1,16,-1
 47 215 l 1,17,-1
 153 215 l 1,18,-1
 153 37 l 1,19,20
 138 43 138 43 126.5 53.5 c 128,-1,21
 115 64 115 64 109 75 c 128,-1,22
 103 86 103 86 103.5 94 c 128,-1,23
 104 102 104 102 114 102 c 1,24,25
 127 90 127 90 145 78 c 128,-1,26
 163 66 163 66 186.5 57.5 c 128,-1,27
 210 49 210 49 241 49 c 0,28,29
 282 49 282 49 310.5 61.5 c 128,-1,30
 339 74 339 74 354 107.5 c 128,-1,31
 369 141 369 141 369 202 c 2,32,-1
 369 601 l 2,33,34
 369 616 369 616 359.5 623.5 c 128,-1,35
 350 631 350 631 333.5 634 c 128,-1,36
 317 637 317 637 297 637 c 2,37,-1
 275 637 l 1,38,-1
 275 710 l 1,0,-1
EndSplineSet
EndChar

StartChar: K
Encoding: 75 75 96
Width: 697
GlyphClass: 2
Flags: W
AnchorPoint: "Anchor-1" 359 0 basechar 0
AnchorPoint: "Anchor-0" 359 741 basechar 0
LayerCount: 2
Fore
SplineSet
53 0 m 1,0,-1
 53 73 l 1,1,-1
 63 73 l 2,2,3
 88 73 88 73 107.5 80 c 128,-1,4
 127 87 127 87 127 109 c 2,5,-1
 127 601 l 2,6,7
 127 623 127 623 107.5 630 c 128,-1,8
 88 637 88 637 63 637 c 2,9,-1
 53 637 l 1,10,-1
 53 710 l 1,11,-1
 303 710 l 1,12,-1
 303 637 l 1,13,-1
 295 637 l 2,14,15
 284 637 284 637 271.5 636.5 c 128,-1,16
 259 636 259 636 248.5 634.5 c 128,-1,17
 238 633 238 633 231.5 632 c 128,-1,18
 225 631 225 631 225 628 c 2,19,-1
 225 82 l 2,20,21
 225 80 225 80 231.5 78.5 c 128,-1,22
 238 77 238 77 248.5 75.5 c 128,-1,23
 259 74 259 74 271.5 73.5 c 128,-1,24
 284 73 284 73 294 73 c 2,25,-1
 301 73 l 1,26,-1
 301 0 l 1,27,-1
 53 0 l 1,0,-1
408 0 m 1,28,-1
 408 73 l 1,29,-1
 415 73 l 2,30,31
 433 73 433 73 449 74 c 128,-1,32
 465 75 465 75 475 77.5 c 128,-1,33
 485 80 485 80 485 83 c 2,34,-1
 267 347 l 1,35,-1
 267 371 l 1,36,-1
 496 626 l 2,37,38
 496 630 496 630 486 632 c 128,-1,39
 476 634 476 634 460.5 635.5 c 128,-1,40
 445 637 445 637 429 637 c 2,41,-1
 421 637 l 1,42,-1
 421 710 l 1,43,-1
 652 710 l 1,44,-1
 652 637 l 1,45,-1
 629 637 l 2,46,47
 618 637 618 637 609 634.5 c 128,-1,48
 600 632 600 632 591 626 c 128,-1,49
 582 620 582 620 573 609 c 2,50,-1
 343 354 l 1,51,-1
 346 396 l 1,52,-1
 596 95 l 2,53,54
 604 86 604 86 613.5 81 c 128,-1,55
 623 76 623 76 633.5 74.5 c 128,-1,56
 644 73 644 73 655 73 c 2,57,-1
 675 73 l 1,58,-1
 675 0 l 1,59,-1
 408 0 l 1,28,-1
EndSplineSet
EndChar

StartChar: L
Encoding: 76 76 98
Width: 588
GlyphClass: 2
Flags: W
AnchorPoint: "Anchor-2" 447 710 basechar 0
AnchorPoint: "Anchor-1" 360 0 basechar 0
AnchorPoint: "Anchor-0" 360 741 basechar 0
LayerCount: 2
Fore
SplineSet
317 710 m 1,0,-1
 53 710 l 1,1,-1
 53 637 l 1,2,-1
 63 637 l 2,3,4
 88 637 88 637 107.5 630 c 128,-1,5
 127 623 127 623 127 601 c 2,6,-1
 127 109 l 2,7,8
 127 87 127 87 107.5 80 c 128,-1,9
 88 73 88 73 63 73 c 2,10,-1
 53 73 l 1,11,-1
 53 0 l 1,12,-1
 541 0 l 1,13,-1
 541 234 l 1,14,-1
 468 234 l 1,15,-1
 455 116 l 2,16,17
 454 98 454 98 442.5 88 c 128,-1,18
 431 78 431 78 407.5 74.5 c 128,-1,19
 384 71 384 71 347 71 c 2,20,-1
 225 71 l 1,21,-1
 225 601 l 2,22,23
 225 623 225 623 247 630 c 128,-1,24
 269 637 269 637 303 637 c 2,25,-1
 317 637 l 1,26,-1
 317 710 l 1,0,-1
EndSplineSet
EndChar

StartChar: M
Encoding: 77 77 104
Width: 883
GlyphClass: 2
Flags: W
AnchorPoint: "Anchor-1" 431 0 basechar 0
LayerCount: 2
Fore
SplineSet
53 0 m 1,0,-1
 53 73 l 1,1,-1
 62 73 l 2,2,3
 80 73 80 73 94.5 76 c 128,-1,4
 109 79 109 79 118 87 c 128,-1,5
 127 95 127 95 127 109 c 2,6,-1
 127 601 l 2,7,8
 127 616 127 616 118 623.5 c 128,-1,9
 109 631 109 631 94.5 634 c 128,-1,10
 80 637 80 637 62 637 c 2,11,-1
 53 637 l 1,12,-1
 53 710 l 1,13,-1
 288 710 l 1,14,-1
 460 100 l 1,15,-1
 409 80 l 1,16,-1
 597 710 l 1,17,-1
 830 710 l 1,18,-1
 830 637 l 1,19,-1
 820 637 l 2,20,21
 795 637 795 637 774 630 c 128,-1,22
 753 623 753 623 753 601 c 2,23,-1
 753 109 l 2,24,25
 753 87 753 87 774 80 c 128,-1,26
 795 73 795 73 820 73 c 2,27,-1
 830 73 l 1,28,-1
 830 0 l 1,29,-1
 586 0 l 1,30,-1
 586 73 l 1,31,-1
 594 73 l 2,32,33
 606 73 606 73 620 74 c 128,-1,34
 634 75 634 75 644.5 77.5 c 128,-1,35
 655 80 655 80 655 83 c 2,36,-1
 655 694 l 1,37,-1
 674 702 l 1,38,-1
 457 -2 l 1,39,-1
 398 -2 l 1,40,-1
 191 704 l 1,41,-1
 207 692 l 1,42,-1
 207 83 l 2,43,44
 207 80 207 80 217.5 77.5 c 128,-1,45
 228 75 228 75 241 74 c 128,-1,46
 254 73 254 73 260 73 c 2,47,-1
 263 73 l 1,48,-1
 263 0 l 1,49,-1
 53 0 l 1,0,-1
EndSplineSet
EndChar

StartChar: N
Encoding: 78 78 106
Width: 739
GlyphClass: 2
Flags: W
AnchorPoint: "Anchor-1" 378 0 basechar 0
AnchorPoint: "Anchor-0" 378 741 basechar 0
LayerCount: 2
Fore
SplineSet
53 0 m 1,0,-1
 53 73 l 1,1,-1
 62 73 l 2,2,3
 80 73 80 73 94.5 76 c 128,-1,4
 109 79 109 79 118 87 c 128,-1,5
 127 95 127 95 127 109 c 2,6,-1
 127 601 l 2,7,8
 127 616 127 616 118 623.5 c 128,-1,9
 109 631 109 631 94.5 634 c 128,-1,10
 80 637 80 637 62 637 c 2,11,-1
 53 637 l 1,12,-1
 53 710 l 1,13,-1
 259 710 l 1,14,-1
 576 81 l 1,15,-1
 541 76 l 1,16,-1
 541 627 l 2,17,18
 541 631 541 631 530 633 c 128,-1,19
 519 635 519 635 504.5 636 c 128,-1,20
 490 637 490 637 480 637 c 2,21,-1
 468 637 l 1,22,-1
 468 710 l 1,23,-1
 697 710 l 1,24,-1
 697 637 l 1,25,-1
 688 637 l 2,26,27
 671 637 671 637 656 634 c 128,-1,28
 641 631 641 631 632 623.5 c 128,-1,29
 623 616 623 616 623 601 c 2,30,-1
 623 0 l 1,31,-1
 518 0 l 1,32,-1
 174 674 l 1,33,-1
 208 673 l 1,34,-1
 208 83 l 2,35,36
 208 80 208 80 219 77.5 c 128,-1,37
 230 75 230 75 245 74 c 128,-1,38
 260 73 260 73 270 73 c 2,39,-1
 282 73 l 1,40,-1
 282 0 l 1,41,-1
 53 0 l 1,0,-1
EndSplineSet
EndChar

StartChar: Ncaron
Encoding: 327 327 110
Width: 739
GlyphClass: 1
Flags: W
LayerCount: 2
Fore
SplineSet
344 806 m 1,0,-1
 414 806 l 1,1,-1
 532 961 l 1,2,-1
 532 981 l 1,3,-1
 484 981 l 1,4,-1
 321 841 l 1,5,-1
 442 844 l 1,6,-1
 282 981 l 1,7,-1
 224 981 l 1,8,-1
 224 961 l 1,9,-1
 344 806 l 1,0,-1
53 0 m 1,10,-1
 53 73 l 1,11,-1
 62 73 l 2,12,13
 80 73 80 73 94.5 76 c 128,-1,14
 109 79 109 79 118 87 c 128,-1,15
 127 95 127 95 127 109 c 2,16,-1
 127 601 l 2,17,18
 127 616 127 616 118 623.5 c 128,-1,19
 109 631 109 631 94.5 634 c 128,-1,20
 80 637 80 637 62 637 c 2,21,-1
 53 637 l 1,22,-1
 53 710 l 1,23,-1
 259 710 l 1,24,-1
 576 81 l 1,25,-1
 541 76 l 1,26,-1
 541 627 l 2,27,28
 541 631 541 631 530 633 c 128,-1,29
 519 635 519 635 504.5 636 c 128,-1,30
 490 637 490 637 480 637 c 2,31,-1
 468 637 l 1,32,-1
 468 710 l 1,33,-1
 697 710 l 1,34,-1
 697 637 l 1,35,-1
 688 637 l 2,36,37
 671 637 671 637 656 634 c 128,-1,38
 641 631 641 631 632 623.5 c 128,-1,39
 623 616 623 616 623 601 c 2,40,-1
 623 0 l 1,41,-1
 518 0 l 1,42,-1
 174 674 l 1,43,-1
 208 673 l 1,44,-1
 208 83 l 2,45,46
 208 80 208 80 219 77.5 c 128,-1,47
 230 75 230 75 245 74 c 128,-1,48
 260 73 260 73 270 73 c 2,49,-1
 282 73 l 1,50,-1
 282 0 l 1,51,-1
 53 0 l 1,10,-1
EndSplineSet
EndChar

StartChar: O
Encoding: 79 79 114
Width: 715
GlyphClass: 2
Flags: W
AnchorPoint: "Anchor-2" 394 0 basechar 0
AnchorPoint: "Anchor-1" 357 0 basechar 0
AnchorPoint: "Anchor-0" 357 741 basechar 0
LayerCount: 2
Fore
SplineSet
358 -24 m 256,0,1
 289 -24 289 -24 233.5 1 c 128,-1,2
 178 26 178 26 137.5 74 c 128,-1,3
 97 122 97 122 75.5 192.5 c 128,-1,4
 54 263 54 263 54 355 c 0,5,6
 54 448 54 448 75.5 518.5 c 128,-1,7
 97 589 97 589 137.5 637 c 128,-1,8
 178 685 178 685 233.5 709.5 c 128,-1,9
 289 734 289 734 358 734 c 256,10,11
 427 734 427 734 482.5 709.5 c 128,-1,12
 538 685 538 685 578 637 c 128,-1,13
 618 589 618 589 639.5 518.5 c 128,-1,14
 661 448 661 448 661 355 c 0,15,16
 661 263 661 263 639.5 192.5 c 128,-1,17
 618 122 618 122 578 74 c 128,-1,18
 538 26 538 26 482.5 1 c 128,-1,19
 427 -24 427 -24 358 -24 c 256,0,1
358 50 m 256,20,21
 407 50 407 50 444.5 68 c 128,-1,22
 482 86 482 86 506.5 123.5 c 128,-1,23
 531 161 531 161 543.5 218.5 c 128,-1,24
 556 276 556 276 556 355 c 256,25,26
 556 434 556 434 543.5 491.5 c 128,-1,27
 531 549 531 549 506.5 586.5 c 128,-1,28
 482 624 482 624 444.5 642 c 128,-1,29
 407 660 407 660 358 660 c 256,30,31
 309 660 309 660 271.5 642 c 128,-1,32
 234 624 234 624 209 586.5 c 128,-1,33
 184 549 184 549 171.5 491.5 c 128,-1,34
 159 434 159 434 159 355 c 256,35,36
 159 276 159 276 171.5 218.5 c 128,-1,37
 184 161 184 161 209 123.5 c 128,-1,38
 234 86 234 86 271.5 68 c 128,-1,39
 309 50 309 50 358 50 c 256,20,21
EndSplineSet
EndChar

StartChar: Ohorn
Encoding: 416 416 123
Width: 762
GlyphClass: 2
Flags: W
AnchorPoint: "Anchor-1" 378 -35 basechar 0
AnchorPoint: "Anchor-0" 378 742 basechar 0
LayerCount: 2
Fore
SplineSet
358 50 m 256,0,1
 408 50 408 50 445 67.5 c 128,-1,2
 482 85 482 85 507 122 c 128,-1,3
 532 159 532 159 544 217 c 128,-1,4
 556 275 556 275 556 355 c 256,5,6
 556 435 556 435 544 493 c 128,-1,7
 532 551 532 551 507 588 c 128,-1,8
 482 625 482 625 445 642.5 c 128,-1,9
 408 660 408 660 358 660 c 256,10,11
 308 660 308 660 270.5 642.5 c 128,-1,12
 233 625 233 625 208.5 588 c 128,-1,13
 184 551 184 551 171.5 493 c 128,-1,14
 159 435 159 435 159 355 c 256,15,16
 159 275 159 275 171.5 217 c 128,-1,17
 184 159 184 159 208.5 122 c 128,-1,18
 233 85 233 85 270.5 67.5 c 128,-1,19
 308 50 308 50 358 50 c 256,0,1
531 638 m 1,20,-1
 498 676 l 1,21,22
 533 656 533 656 563 626.5 c 128,-1,23
 593 597 593 597 615 558.5 c 128,-1,24
 637 520 637 520 649 469.5 c 128,-1,25
 661 419 661 419 661 355 c 0,26,27
 661 262 661 262 639.5 191 c 128,-1,28
 618 120 618 120 578 72.5 c 128,-1,29
 538 25 538 25 482.5 0.5 c 128,-1,30
 427 -24 427 -24 358 -24 c 0,31,32
 290 -24 290 -24 234 0.5 c 128,-1,33
 178 25 178 25 138 72.5 c 128,-1,34
 98 120 98 120 76 191 c 128,-1,35
 54 262 54 262 54 355 c 0,36,37
 54 449 54 449 76 519.5 c 128,-1,38
 98 590 98 590 138 637.5 c 128,-1,39
 178 685 178 685 234 709.5 c 128,-1,40
 290 734 290 734 358 734 c 0,41,42
 399 734 399 734 429 728 c 128,-1,43
 459 722 459 722 483 715 c 128,-1,44
 507 708 507 708 528 702 c 128,-1,45
 549 696 549 696 572 696 c 0,46,47
 599 696 599 696 619 709 c 128,-1,48
 639 722 639 722 652 747.5 c 128,-1,49
 665 773 665 773 672.5 811 c 128,-1,50
 680 849 680 849 684 899 c 1,51,-1
 775 899 l 1,52,53
 772 825 772 825 758 772.5 c 128,-1,54
 744 720 744 720 721 687.5 c 128,-1,55
 698 655 698 655 670 639.5 c 128,-1,56
 642 624 642 624 612 624 c 0,57,58
 596 624 596 624 581 628 c 128,-1,59
 566 632 566 632 552 639.5 c 128,-1,60
 538 647 538 647 522.5 656 c 128,-1,61
 507 665 507 665 491 675 c 1,62,-1
 531 674 l 1,63,-1
 531 638 l 1,20,-1
EndSplineSet
EndChar

StartChar: Ocaron
Encoding: 465 465 124
Width: 715
GlyphClass: 1
Flags: W
LayerCount: 2
Fore
SplineSet
323 806 m 1,0,-1
 393 806 l 1,1,-1
 512 961 l 1,2,-1
 512 981 l 1,3,-1
 463 981 l 1,4,-1
 300 841 l 1,5,-1
 421 844 l 1,6,-1
 261 981 l 1,7,-1
 203 981 l 1,8,-1
 203 961 l 1,9,-1
 323 806 l 1,0,-1
358 -24 m 256,10,11
 289 -24 289 -24 233.5 1 c 128,-1,12
 178 26 178 26 137.5 74 c 128,-1,13
 97 122 97 122 75.5 192.5 c 128,-1,14
 54 263 54 263 54 355 c 0,15,16
 54 448 54 448 75.5 518.5 c 128,-1,17
 97 589 97 589 137.5 637 c 128,-1,18
 178 685 178 685 233.5 709.5 c 128,-1,19
 289 734 289 734 358 734 c 256,20,21
 427 734 427 734 482.5 709.5 c 128,-1,22
 538 685 538 685 578 637 c 128,-1,23
 618 589 618 589 639.5 518.5 c 128,-1,24
 661 448 661 448 661 355 c 0,25,26
 661 263 661 263 639.5 192.5 c 128,-1,27
 618 122 618 122 578 74 c 128,-1,28
 538 26 538 26 482.5 1 c 128,-1,29
 427 -24 427 -24 358 -24 c 256,10,11
358 50 m 256,30,31
 407 50 407 50 444.5 68 c 128,-1,32
 482 86 482 86 506.5 123.5 c 128,-1,33
 531 161 531 161 543.5 218.5 c 128,-1,34
 556 276 556 276 556 355 c 256,35,36
 556 434 556 434 543.5 491.5 c 128,-1,37
 531 549 531 549 506.5 586.5 c 128,-1,38
 482 624 482 624 444.5 642 c 128,-1,39
 407 660 407 660 358 660 c 256,40,41
 309 660 309 660 271.5 642 c 128,-1,42
 234 624 234 624 209 586.5 c 128,-1,43
 184 549 184 549 171.5 491.5 c 128,-1,44
 159 434 159 434 159 355 c 256,45,46
 159 276 159 276 171.5 218.5 c 128,-1,47
 184 161 184 161 209 123.5 c 128,-1,48
 234 86 234 86 271.5 68 c 128,-1,49
 309 50 309 50 358 50 c 256,30,31
EndSplineSet
EndChar

StartChar: Oogonek
Encoding: 490 490 125
Width: 715
GlyphClass: 1
Flags: W
LayerCount: 2
Fore
SplineSet
358 50 m 0,0,1
 408 50 408 50 445 67.5 c 128,-1,2
 482 85 482 85 507 122 c 128,-1,3
 532 159 532 159 544 217 c 128,-1,4
 556 275 556 275 556 355 c 256,5,6
 556 435 556 435 544 493 c 128,-1,7
 532 551 532 551 507 588 c 128,-1,8
 482 625 482 625 445 642.5 c 128,-1,9
 408 660 408 660 358 660 c 0,10,11
 309 660 309 660 271.5 642.5 c 128,-1,12
 234 625 234 625 209 588 c 128,-1,13
 184 551 184 551 171.5 493 c 128,-1,14
 159 435 159 435 159 355 c 256,15,16
 159 275 159 275 171.5 217 c 128,-1,17
 184 159 184 159 209 122 c 128,-1,18
 234 85 234 85 271.5 67.5 c 128,-1,19
 309 50 309 50 358 50 c 0,0,1
573 69 m 0,20,21
 555 47 555 47 531 25 c 128,-1,22
 507 3 507 3 482.5 -19 c 128,-1,23
 458 -41 458 -41 437.5 -63 c 128,-1,24
 417 -85 417 -85 404.5 -107 c 128,-1,25
 392 -129 392 -129 392 -150 c 0,26,27
 392 -167 392 -167 401.5 -178.5 c 128,-1,28
 411 -190 411 -190 432 -190 c 0,29,30
 458 -190 458 -190 475.5 -174.5 c 128,-1,31
 493 -159 493 -159 504 -143 c 1,32,-1
 548 -181 l 1,33,34
 532 -201 532 -201 513 -217 c 128,-1,35
 494 -233 494 -233 469 -242.5 c 128,-1,36
 444 -252 444 -252 410 -252 c 0,37,38
 373 -252 373 -252 344 -242.5 c 128,-1,39
 315 -233 315 -233 299 -212.5 c 128,-1,40
 283 -192 283 -192 283 -161 c 0,41,42
 283 -138 283 -138 292.5 -118.5 c 128,-1,43
 302 -99 302 -99 323.5 -78 c 128,-1,44
 345 -57 345 -57 382 -30 c 128,-1,45
 419 -3 419 -3 473 35 c 1,46,-1
 461 -5 l 1,47,48
 445 -11 445 -11 428.5 -15.5 c 128,-1,49
 412 -20 412 -20 394.5 -22 c 128,-1,50
 377 -24 377 -24 358 -24 c 0,51,52
 290 -24 290 -24 234 0.5 c 128,-1,53
 178 25 178 25 138 72.5 c 128,-1,54
 98 120 98 120 76 191 c 128,-1,55
 54 262 54 262 54 355 c 0,56,57
 54 449 54 449 76 519.5 c 128,-1,58
 98 590 98 590 138 637.5 c 128,-1,59
 178 685 178 685 234 709.5 c 128,-1,60
 290 734 290 734 358 734 c 256,61,62
 426 734 426 734 482 709.5 c 128,-1,63
 538 685 538 685 578 637.5 c 128,-1,64
 618 590 618 590 639.5 519.5 c 128,-1,65
 661 449 661 449 661 355 c 0,66,67
 661 293 661 293 650.5 240 c 128,-1,68
 640 187 640 187 620.5 144.5 c 128,-1,69
 601 102 601 102 573 69 c 0,20,21
EndSplineSet
EndChar

StartChar: Odblgrave
Encoding: 524 524 126
Width: 715
GlyphClass: 1
Flags: W
LayerCount: 2
Fore
SplineSet
448 925 m 2,0,-1
 488 824 l 1,1,-1
 488 793 l 1,2,-1
 449 793 l 1,3,-1
 382 858 l 2,4,5
 363 877 363 877 352.5 894 c 128,-1,6
 342 911 342 911 342 932 c 0,7,8
 342 949 342 949 354.5 961.5 c 128,-1,9
 367 974 367 974 389 974 c 0,10,11
 405 974 405 974 416 967 c 128,-1,12
 427 960 427 960 435 949 c 128,-1,13
 443 938 443 938 448 925 c 2,0,-1
271 925 m 2,14,-1
 308 824 l 1,15,-1
 308 793 l 1,16,-1
 269 793 l 1,17,-1
 202 858 l 2,18,19
 183 877 183 877 172.5 894 c 128,-1,20
 162 911 162 911 162 932 c 0,21,22
 162 949 162 949 175 961.5 c 128,-1,23
 188 974 188 974 209 974 c 0,24,25
 225 974 225 974 237 967.5 c 128,-1,26
 249 961 249 961 257.5 949.5 c 128,-1,27
 266 938 266 938 271 925 c 2,14,-1
358 -24 m 256,28,29
 289 -24 289 -24 233.5 1 c 128,-1,30
 178 26 178 26 137.5 74 c 128,-1,31
 97 122 97 122 75.5 192.5 c 128,-1,32
 54 263 54 263 54 355 c 0,33,34
 54 448 54 448 75.5 518.5 c 128,-1,35
 97 589 97 589 137.5 637 c 128,-1,36
 178 685 178 685 233.5 709.5 c 128,-1,37
 289 734 289 734 358 734 c 256,38,39
 427 734 427 734 482.5 709.5 c 128,-1,40
 538 685 538 685 578 637 c 128,-1,41
 618 589 618 589 639.5 518.5 c 128,-1,42
 661 448 661 448 661 355 c 0,43,44
 661 263 661 263 639.5 192.5 c 128,-1,45
 618 122 618 122 578 74 c 128,-1,46
 538 26 538 26 482.5 1 c 128,-1,47
 427 -24 427 -24 358 -24 c 256,28,29
358 50 m 256,48,49
 407 50 407 50 444.5 68 c 128,-1,50
 482 86 482 86 506.5 123.5 c 128,-1,51
 531 161 531 161 543.5 218.5 c 128,-1,52
 556 276 556 276 556 355 c 256,53,54
 556 434 556 434 543.5 491.5 c 128,-1,55
 531 549 531 549 506.5 586.5 c 128,-1,56
 482 624 482 624 444.5 642 c 128,-1,57
 407 660 407 660 358 660 c 256,58,59
 309 660 309 660 271.5 642 c 128,-1,60
 234 624 234 624 209 586.5 c 128,-1,61
 184 549 184 549 171.5 491.5 c 128,-1,62
 159 434 159 434 159 355 c 256,63,64
 159 276 159 276 171.5 218.5 c 128,-1,65
 184 161 184 161 209 123.5 c 128,-1,66
 234 86 234 86 271.5 68 c 128,-1,67
 309 50 309 50 358 50 c 256,48,49
EndSplineSet
EndChar

StartChar: Oinvertedbreve
Encoding: 526 526 127
Width: 715
GlyphClass: 1
Flags: W
LayerCount: 2
Fore
SplineSet
358 929 m 0,0,1
 306 929 306 929 270.5 913 c 128,-1,2
 235 897 235 897 216.5 861 c 128,-1,3
 198 825 198 825 197 764 c 1,4,-1
 267 764 l 1,5,6
 269 800 269 800 277 819.5 c 128,-1,7
 285 839 285 839 304.5 846.5 c 128,-1,8
 324 854 324 854 358 854 c 0,9,10
 389 854 389 854 408 846.5 c 128,-1,11
 427 839 427 839 435.5 819.5 c 128,-1,12
 444 800 444 800 446 764 c 1,13,-1
 520 764 l 1,14,15
 519 825 519 825 499.5 861 c 128,-1,16
 480 897 480 897 444 913 c 128,-1,17
 408 929 408 929 358 929 c 0,0,1
358 -24 m 256,18,19
 289 -24 289 -24 233.5 1 c 128,-1,20
 178 26 178 26 137.5 74 c 128,-1,21
 97 122 97 122 75.5 192.5 c 128,-1,22
 54 263 54 263 54 355 c 0,23,24
 54 448 54 448 75.5 518.5 c 128,-1,25
 97 589 97 589 137.5 637 c 128,-1,26
 178 685 178 685 233.5 709.5 c 128,-1,27
 289 734 289 734 358 734 c 256,28,29
 427 734 427 734 482.5 709.5 c 128,-1,30
 538 685 538 685 578 637 c 128,-1,31
 618 589 618 589 639.5 518.5 c 128,-1,32
 661 448 661 448 661 355 c 0,33,34
 661 263 661 263 639.5 192.5 c 128,-1,35
 618 122 618 122 578 74 c 128,-1,36
 538 26 538 26 482.5 1 c 128,-1,37
 427 -24 427 -24 358 -24 c 256,18,19
358 50 m 256,38,39
 407 50 407 50 444.5 68 c 128,-1,40
 482 86 482 86 506.5 123.5 c 128,-1,41
 531 161 531 161 543.5 218.5 c 128,-1,42
 556 276 556 276 556 355 c 256,43,44
 556 434 556 434 543.5 491.5 c 128,-1,45
 531 549 531 549 506.5 586.5 c 128,-1,46
 482 624 482 624 444.5 642 c 128,-1,47
 407 660 407 660 358 660 c 256,48,49
 309 660 309 660 271.5 642 c 128,-1,50
 234 624 234 624 209 586.5 c 128,-1,51
 184 549 184 549 171.5 491.5 c 128,-1,52
 159 434 159 434 159 355 c 256,53,54
 159 276 159 276 171.5 218.5 c 128,-1,55
 184 161 184 161 209 123.5 c 128,-1,56
 234 86 234 86 271.5 68 c 128,-1,57
 309 50 309 50 358 50 c 256,38,39
EndSplineSet
EndChar

StartChar: P
Encoding: 80 80 147
Width: 617
GlyphClass: 2
Flags: W
AnchorPoint: "Anchor-0" 319 741 basechar 0
LayerCount: 2
Fore
SplineSet
225 83 m 2,0,-1
 225 639 l 1,1,-1
 340 639 l 2,2,3
 382 639 382 639 410 622 c 128,-1,4
 438 605 438 605 453 573.5 c 128,-1,5
 468 542 468 542 468 496 c 256,6,7
 468 450 468 450 453 416.5 c 128,-1,8
 438 383 438 383 410 365.5 c 128,-1,9
 382 348 382 348 340 348 c 2,10,-1
 210 348 l 1,11,-1
 210 277 l 1,12,-1
 344 277 l 2,13,14
 409 277 409 277 460 302 c 128,-1,15
 511 327 511 327 541 377 c 128,-1,16
 571 427 571 427 571 499 c 0,17,18
 571 604 571 604 508.5 657 c 128,-1,19
 446 710 446 710 344 710 c 2,20,-1
 53 710 l 1,21,-1
 53 637 l 1,22,-1
 62 637 l 2,23,24
 88 637 88 637 107.5 630 c 128,-1,25
 127 623 127 623 127 601 c 2,26,-1
 127 109 l 2,27,28
 127 87 127 87 107.5 80 c 128,-1,29
 88 73 88 73 63 73 c 2,30,-1
 53 73 l 1,31,-1
 53 0 l 1,32,-1
 323 0 l 1,33,-1
 323 73 l 1,34,-1
 305 73 l 2,35,36
 290 73 290 73 275.5 73.5 c 128,-1,37
 261 74 261 74 250 75.5 c 128,-1,38
 239 77 239 77 232 78.5 c 128,-1,39
 225 80 225 80 225 83 c 2,0,-1
EndSplineSet
EndChar

StartChar: Q
Encoding: 81 81 148
Width: 715
GlyphClass: 1
Flags: W
LayerCount: 2
Fore
SplineSet
319 -3 m 1,0,-1
 398 10 l 1,1,2
 399 -49 399 -49 411.5 -84.5 c 128,-1,3
 424 -120 424 -120 449.5 -135.5 c 128,-1,4
 475 -151 475 -151 517 -151 c 0,5,6
 543 -151 543 -151 567 -147 c 128,-1,7
 591 -143 591 -143 612.5 -136.5 c 128,-1,8
 634 -130 634 -130 653 -124 c 1,9,-1
 653 -223 l 1,10,11
 628 -229 628 -229 593 -234 c 128,-1,12
 558 -239 558 -239 525 -239 c 0,13,14
 455 -239 455 -239 409 -212.5 c 128,-1,15
 363 -186 363 -186 341 -133 c 128,-1,16
 319 -80 319 -80 319 -3 c 1,0,-1
358 -24 m 256,17,18
 289 -24 289 -24 233.5 1 c 128,-1,19
 178 26 178 26 137.5 74 c 128,-1,20
 97 122 97 122 75.5 192.5 c 128,-1,21
 54 263 54 263 54 355 c 0,22,23
 54 448 54 448 75.5 518.5 c 128,-1,24
 97 589 97 589 137.5 637 c 128,-1,25
 178 685 178 685 233.5 709.5 c 128,-1,26
 289 734 289 734 358 734 c 256,27,28
 427 734 427 734 482.5 709.5 c 128,-1,29
 538 685 538 685 578 637 c 128,-1,30
 618 589 618 589 639.5 518.5 c 128,-1,31
 661 448 661 448 661 355 c 0,32,33
 661 263 661 263 639.5 192.5 c 128,-1,34
 618 122 618 122 578 74 c 128,-1,35
 538 26 538 26 482.5 1 c 128,-1,36
 427 -24 427 -24 358 -24 c 256,17,18
358 50 m 256,37,38
 407 50 407 50 445.5 68 c 128,-1,39
 484 86 484 86 510 123.5 c 128,-1,40
 536 161 536 161 549.5 218.5 c 128,-1,41
 563 276 563 276 564 355 c 0,42,43
 564 434 564 434 550.5 491.5 c 128,-1,44
 537 549 537 549 510.5 586.5 c 128,-1,45
 484 624 484 624 445.5 642 c 128,-1,46
 407 660 407 660 358 660 c 256,47,48
 309 660 309 660 271.5 642 c 128,-1,49
 234 624 234 624 209 586.5 c 128,-1,50
 184 549 184 549 171.5 491.5 c 128,-1,51
 159 434 159 434 159 355 c 256,52,53
 159 276 159 276 171.5 218.5 c 128,-1,54
 184 161 184 161 209 123.5 c 128,-1,55
 234 86 234 86 271.5 68 c 128,-1,56
 309 50 309 50 358 50 c 256,37,38
EndSplineSet
EndChar

StartChar: R
Encoding: 82 82 149
Width: 675
GlyphClass: 2
Flags: W
AnchorPoint: "Anchor-1" 378 0 basechar 0
AnchorPoint: "Anchor-0" 378 741 basechar 0
LayerCount: 2
Fore
SplineSet
347 322 m 1,0,-1
 507 0 l 1,1,-1
 650 0 l 1,2,-1
 650 73 l 1,3,-1
 641 73 l 2,4,5
 622 73 622 73 605.5 77.5 c 128,-1,6
 589 82 589 82 575 95.5 c 128,-1,7
 561 109 561 109 547 134 c 2,8,-1
 428 365 l 1,9,-1
 347 322 l 1,0,-1
225 83 m 2,10,-1
 225 639 l 1,11,-1
 344 639 l 2,12,13
 389 639 389 639 418.5 624.5 c 128,-1,14
 448 610 448 610 462 581.5 c 128,-1,15
 476 553 476 553 476 509 c 0,16,17
 476 467 476 467 463 434.5 c 128,-1,18
 450 402 450 402 420 383 c 128,-1,19
 390 364 390 364 339 364 c 2,20,-1
 214 364 l 1,21,-1
 214 297 l 1,22,-1
 376 297 l 2,23,24
 381 297 381 297 384.5 298 c 128,-1,25
 388 299 388 299 393.5 302.5 c 128,-1,26
 399 306 399 306 407 311 c 0,27,28
 456 322 456 322 493 349 c 128,-1,29
 530 376 530 376 550.5 418.5 c 128,-1,30
 571 461 571 461 571 519 c 0,31,32
 571 583 571 583 544 625.5 c 128,-1,33
 517 668 517 668 468 689 c 128,-1,34
 419 710 419 710 348 710 c 2,35,-1
 53 710 l 1,36,-1
 53 637 l 1,37,-1
 63 637 l 2,38,39
 88 637 88 637 107.5 630 c 128,-1,40
 127 623 127 623 127 601 c 2,41,-1
 127 109 l 2,42,43
 127 87 127 87 107.5 80 c 128,-1,44
 88 73 88 73 63 73 c 2,45,-1
 53 73 l 1,46,-1
 53 0 l 1,47,-1
 323 0 l 1,48,-1
 323 73 l 1,49,-1
 305 73 l 2,50,51
 290 73 290 73 276 73.5 c 128,-1,52
 262 74 262 74 250.5 75.5 c 128,-1,53
 239 77 239 77 232 78.5 c 128,-1,54
 225 80 225 80 225 83 c 2,10,-1
EndSplineSet
EndChar

StartChar: Rcaron
Encoding: 344 344 152
Width: 675
GlyphClass: 1
Flags: W
LayerCount: 2
Fore
SplineSet
296 806 m 1,0,-1
 366 806 l 1,1,-1
 484 961 l 1,2,-1
 484 981 l 1,3,-1
 436 981 l 1,4,-1
 273 841 l 1,5,-1
 394 844 l 1,6,-1
 234 981 l 1,7,-1
 176 981 l 1,8,-1
 176 961 l 1,9,-1
 296 806 l 1,0,-1
347 322 m 1,10,-1
 507 0 l 1,11,-1
 650 0 l 1,12,-1
 650 73 l 1,13,-1
 641 73 l 2,14,15
 622 73 622 73 605.5 77.5 c 128,-1,16
 589 82 589 82 575 95.5 c 128,-1,17
 561 109 561 109 547 134 c 2,18,-1
 428 365 l 1,19,-1
 347 322 l 1,10,-1
225 83 m 2,20,-1
 225 639 l 1,21,-1
 344 639 l 2,22,23
 389 639 389 639 418.5 624.5 c 128,-1,24
 448 610 448 610 462 581.5 c 128,-1,25
 476 553 476 553 476 509 c 0,26,27
 476 467 476 467 463 434.5 c 128,-1,28
 450 402 450 402 420 383 c 128,-1,29
 390 364 390 364 339 364 c 2,30,-1
 214 364 l 1,31,-1
 214 297 l 1,32,-1
 376 297 l 2,33,34
 381 297 381 297 384.5 298 c 128,-1,35
 388 299 388 299 393.5 302.5 c 128,-1,36
 399 306 399 306 407 311 c 0,37,38
 456 322 456 322 493 349 c 128,-1,39
 530 376 530 376 550.5 418.5 c 128,-1,40
 571 461 571 461 571 519 c 0,41,42
 571 583 571 583 544 625.5 c 128,-1,43
 517 668 517 668 468 689 c 128,-1,44
 419 710 419 710 348 710 c 2,45,-1
 53 710 l 1,46,-1
 53 637 l 1,47,-1
 63 637 l 2,48,49
 88 637 88 637 107.5 630 c 128,-1,50
 127 623 127 623 127 601 c 2,51,-1
 127 109 l 2,52,53
 127 87 127 87 107.5 80 c 128,-1,54
 88 73 88 73 63 73 c 2,55,-1
 53 73 l 1,56,-1
 53 0 l 1,57,-1
 323 0 l 1,58,-1
 323 73 l 1,59,-1
 305 73 l 2,60,61
 290 73 290 73 276 73.5 c 128,-1,62
 262 74 262 74 250.5 75.5 c 128,-1,63
 239 77 239 77 232 78.5 c 128,-1,64
 225 80 225 80 225 83 c 2,20,-1
EndSplineSet
EndChar

StartChar: Rdblgrave
Encoding: 528 528 153
Width: 675
GlyphClass: 1
Flags: W
LayerCount: 2
Fore
SplineSet
420 925 m 2,0,-1
 460 825 l 1,1,-1
 460 793 l 1,2,-1
 420 793 l 1,3,-1
 354 858 l 2,4,5
 334 877 334 877 324 894 c 128,-1,6
 314 911 314 911 314 932 c 0,7,8
 314 949 314 949 326.5 961.5 c 128,-1,9
 339 974 339 974 360 974 c 0,10,11
 377 974 377 974 388 967 c 128,-1,12
 399 960 399 960 407 949 c 128,-1,13
 415 938 415 938 420 925 c 2,0,-1
242 925 m 2,14,-1
 280 825 l 1,15,-1
 280 793 l 1,16,-1
 240 793 l 1,17,-1
 174 858 l 2,18,19
 155 877 155 877 144 894 c 128,-1,20
 133 911 133 911 133 932 c 0,21,22
 133 949 133 949 146 961.5 c 128,-1,23
 159 974 159 974 181 974 c 0,24,25
 197 974 197 974 208.5 967.5 c 128,-1,26
 220 961 220 961 229 949.5 c 128,-1,27
 238 938 238 938 242 925 c 2,14,-1
347 322 m 1,28,-1
 507 0 l 1,29,-1
 650 0 l 1,30,-1
 650 73 l 1,31,-1
 641 73 l 2,32,33
 622 73 622 73 605.5 77.5 c 128,-1,34
 589 82 589 82 575 95.5 c 128,-1,35
 561 109 561 109 547 134 c 2,36,-1
 428 365 l 1,37,-1
 347 322 l 1,28,-1
225 83 m 2,38,-1
 225 639 l 1,39,-1
 344 639 l 2,40,41
 389 639 389 639 418.5 624.5 c 128,-1,42
 448 610 448 610 462 581.5 c 128,-1,43
 476 553 476 553 476 509 c 0,44,45
 476 467 476 467 463 434.5 c 128,-1,46
 450 402 450 402 420 383 c 128,-1,47
 390 364 390 364 339 364 c 2,48,-1
 214 364 l 1,49,-1
 214 297 l 1,50,-1
 376 297 l 2,51,52
 381 297 381 297 384.5 298 c 128,-1,53
 388 299 388 299 393.5 302.5 c 128,-1,54
 399 306 399 306 407 311 c 0,55,56
 456 322 456 322 493 349 c 128,-1,57
 530 376 530 376 550.5 418.5 c 128,-1,58
 571 461 571 461 571 520 c 0,59,60
 571 583 571 583 544 625.5 c 128,-1,61
 517 668 517 668 468 689 c 128,-1,62
 419 710 419 710 348 710 c 2,63,-1
 53 710 l 1,64,-1
 53 637 l 1,65,-1
 63 637 l 2,66,67
 88 637 88 637 107.5 630 c 128,-1,68
 127 623 127 623 127 601 c 2,69,-1
 127 109 l 2,70,71
 127 87 127 87 107.5 80 c 128,-1,72
 88 73 88 73 63 73 c 2,73,-1
 53 73 l 1,74,-1
 53 0 l 1,75,-1
 323 0 l 1,76,-1
 323 73 l 1,77,-1
 305 73 l 2,78,79
 290 73 290 73 275.5 73.5 c 128,-1,80
 261 74 261 74 250 75.5 c 128,-1,81
 239 77 239 77 232 78.5 c 128,-1,82
 225 80 225 80 225 83 c 2,38,-1
EndSplineSet
EndChar

StartChar: Rinvertedbreve
Encoding: 530 530 154
Width: 675
GlyphClass: 1
Flags: W
LayerCount: 2
Fore
SplineSet
331 929 m 0,0,1
 279 929 279 929 243.5 913 c 128,-1,2
 208 897 208 897 189.5 861 c 128,-1,3
 171 825 171 825 170 764 c 1,4,-1
 239 764 l 1,5,6
 241 800 241 800 249.5 819.5 c 128,-1,7
 258 839 258 839 277.5 846.5 c 128,-1,8
 297 854 297 854 331 854 c 0,9,10
 362 854 362 854 380.5 846.5 c 128,-1,11
 399 839 399 839 408 819.5 c 128,-1,12
 417 800 417 800 419 764 c 1,13,-1
 493 764 l 1,14,15
 492 825 492 825 472 861 c 128,-1,16
 452 897 452 897 416.5 913 c 128,-1,17
 381 929 381 929 331 929 c 0,0,1
347 322 m 1,18,-1
 507 0 l 1,19,-1
 650 0 l 1,20,-1
 650 73 l 1,21,-1
 641 73 l 2,22,23
 622 73 622 73 605.5 77.5 c 128,-1,24
 589 82 589 82 575 95.5 c 128,-1,25
 561 109 561 109 547 134 c 2,26,-1
 428 365 l 1,27,-1
 347 322 l 1,18,-1
225 83 m 2,28,-1
 225 639 l 1,29,-1
 344 639 l 2,30,31
 389 639 389 639 418.5 624.5 c 128,-1,32
 448 610 448 610 462 581.5 c 128,-1,33
 476 553 476 553 476 509 c 0,34,35
 476 467 476 467 463 434.5 c 128,-1,36
 450 402 450 402 420 383 c 128,-1,37
 390 364 390 364 339 364 c 2,38,-1
 214 364 l 1,39,-1
 214 297 l 1,40,-1
 376 297 l 2,41,42
 381 297 381 297 384.5 298 c 128,-1,43
 388 299 388 299 393.5 302.5 c 128,-1,44
 399 306 399 306 407 311 c 0,45,46
 456 322 456 322 493 349 c 128,-1,47
 530 376 530 376 550.5 418.5 c 128,-1,48
 571 461 571 461 571 519 c 0,49,50
 571 583 571 583 544 625.5 c 128,-1,51
 517 668 517 668 468 689 c 128,-1,52
 419 710 419 710 348 710 c 2,53,-1
 53 710 l 1,54,-1
 53 637 l 1,55,-1
 63 637 l 2,56,57
 88 637 88 637 107.5 630 c 128,-1,58
 127 623 127 623 127 601 c 2,59,-1
 127 109 l 2,60,61
 127 87 127 87 107.5 80 c 128,-1,62
 88 73 88 73 63 73 c 2,63,-1
 53 73 l 1,64,-1
 53 0 l 1,65,-1
 323 0 l 1,66,-1
 323 73 l 1,67,-1
 305 73 l 2,68,69
 290 73 290 73 276 73.5 c 128,-1,70
 262 74 262 74 250.5 75.5 c 128,-1,71
 239 77 239 77 232 78.5 c 128,-1,72
 225 80 225 80 225 83 c 2,28,-1
EndSplineSet
EndChar

StartChar: S
Encoding: 83 83 157
Width: 583
GlyphClass: 2
Flags: W
AnchorPoint: "Anchor-1" 320 0 basechar 0
AnchorPoint: "Anchor-0" 320 741 basechar 0
LayerCount: 2
Fore
SplineSet
322 48 m 0,0,1
 365 48 365 48 392 60 c 128,-1,2
 419 72 419 72 432 99 c 128,-1,3
 445 126 445 126 445 172 c 0,4,5
 445 212 445 212 431 237 c 128,-1,6
 417 262 417 262 392.5 278 c 128,-1,7
 368 294 368 294 337 304 c 128,-1,8
 306 314 306 314 272 323 c 0,9,10
 230 335 230 335 194 349 c 128,-1,11
 158 363 158 363 130.5 386 c 128,-1,12
 103 409 103 409 87.5 447.5 c 128,-1,13
 72 486 72 486 72 546 c 256,14,15
 72 606 72 606 94.5 648 c 128,-1,16
 117 690 117 690 161 712 c 128,-1,17
 205 734 205 734 270 734 c 0,18,19
 325 734 325 734 363.5 713.5 c 128,-1,20
 402 693 402 693 423 650 c 128,-1,21
 444 607 444 607 445 538 c 1,22,-1
 424 585 l 1,23,-1
 438 720 l 1,24,-1
 505 720 l 1,25,-1
 505 509 l 1,26,-1
 433 509 l 1,27,28
 422 558 422 558 401.5 592 c 128,-1,29
 381 626 381 626 349.5 644.5 c 128,-1,30
 318 663 318 663 271 663 c 0,31,32
 233 663 233 663 208.5 650.5 c 128,-1,33
 184 638 184 638 172.5 613.5 c 128,-1,34
 161 589 161 589 161 550 c 0,35,36
 161 513 161 513 172.5 490.5 c 128,-1,37
 184 468 184 468 205.5 454 c 128,-1,38
 227 440 227 440 257.5 430.5 c 128,-1,39
 288 421 288 421 326 409 c 0,40,41
 364 398 364 398 401.5 383.5 c 128,-1,42
 439 369 439 369 470 346 c 128,-1,43
 501 323 501 323 519.5 284 c 128,-1,44
 538 245 538 245 538 186 c 0,45,46
 538 112 538 112 510.5 66 c 128,-1,47
 483 20 483 20 435 -2 c 128,-1,48
 387 -24 387 -24 324 -24 c 0,49,50
 262 -24 262 -24 216 -1.5 c 128,-1,51
 170 21 170 21 143 70.5 c 128,-1,52
 116 120 116 120 111 201 c 1,53,-1
 136 158 l 1,54,-1
 124 -6 l 1,55,-1
 57 -6 l 1,56,-1
 57 231 l 1,57,-1
 131 231 l 1,58,59
 143 169 143 169 167 128.5 c 128,-1,60
 191 88 191 88 229 68 c 128,-1,61
 267 48 267 48 322 48 c 0,0,1
EndSplineSet
EndChar

StartChar: Scaron
Encoding: 352 352 161
Width: 583
GlyphClass: 1
Flags: W
LayerCount: 2
Fore
SplineSet
262 806 m 1,0,-1
 332 806 l 1,1,-1
 451 961 l 1,2,-1
 451 981 l 1,3,-1
 402 981 l 1,4,-1
 239 841 l 1,5,-1
 360 844 l 1,6,-1
 200 981 l 1,7,-1
 142 981 l 1,8,-1
 142 961 l 1,9,-1
 262 806 l 1,0,-1
322 48 m 0,10,11
 365 48 365 48 392 60 c 128,-1,12
 419 72 419 72 432 99 c 128,-1,13
 445 126 445 126 445 172 c 0,14,15
 445 212 445 212 431 237 c 128,-1,16
 417 262 417 262 392.5 278 c 128,-1,17
 368 294 368 294 337 304 c 128,-1,18
 306 314 306 314 272 323 c 0,19,20
 230 335 230 335 194 349 c 128,-1,21
 158 363 158 363 130.5 386 c 128,-1,22
 103 409 103 409 87.5 447.5 c 128,-1,23
 72 486 72 486 72 546 c 256,24,25
 72 606 72 606 94.5 648 c 128,-1,26
 117 690 117 690 161 712 c 128,-1,27
 205 734 205 734 270 734 c 0,28,29
 325 734 325 734 363.5 713.5 c 128,-1,30
 402 693 402 693 423 650 c 128,-1,31
 444 607 444 607 445 538 c 1,32,-1
 424 585 l 1,33,-1
 438 720 l 1,34,-1
 505 720 l 1,35,-1
 505 509 l 1,36,-1
 433 509 l 1,37,38
 422 558 422 558 401.5 592 c 128,-1,39
 381 626 381 626 349.5 644.5 c 128,-1,40
 318 663 318 663 271 663 c 0,41,42
 233 663 233 663 208.5 650.5 c 128,-1,43
 184 638 184 638 172.5 613.5 c 128,-1,44
 161 589 161 589 161 550 c 0,45,46
 161 513 161 513 172.5 490.5 c 128,-1,47
 184 468 184 468 205.5 454 c 128,-1,48
 227 440 227 440 257.5 430.5 c 128,-1,49
 288 421 288 421 326 409 c 0,50,51
 364 398 364 398 401.5 383.5 c 128,-1,52
 439 369 439 369 470 346 c 128,-1,53
 501 323 501 323 519.5 284 c 128,-1,54
 538 245 538 245 538 186 c 0,55,56
 538 112 538 112 510.5 66 c 128,-1,57
 483 20 483 20 435 -2 c 128,-1,58
 387 -24 387 -24 324 -24 c 0,59,60
 262 -24 262 -24 216 -1.5 c 128,-1,61
 170 21 170 21 143 70.5 c 128,-1,62
 116 120 116 120 111 201 c 1,63,-1
 136 158 l 1,64,-1
 124 -6 l 1,65,-1
 57 -6 l 1,66,-1
 57 231 l 1,67,-1
 131 231 l 1,68,69
 143 169 143 169 167 128.5 c 128,-1,70
 191 88 191 88 229 68 c 128,-1,71
 267 48 267 48 322 48 c 0,10,11
EndSplineSet
EndChar

StartChar: Scarondotaccent
Encoding: 7782 7782 166
Width: 583
GlyphClass: 1
Flags: W
LayerCount: 2
Fore
SplineSet
261 806 m 1,0,-1
 330 806 l 1,1,-1
 449 961 l 1,2,-1
 449 981 l 1,3,-1
 401 981 l 1,4,-1
 238 841 l 1,5,-1
 359 844 l 1,6,-1
 199 981 l 1,7,-1
 141 981 l 1,8,-1
 141 961 l 1,9,-1
 261 806 l 1,0,-1
322 48 m 0,10,11
 365 48 365 48 392 60 c 128,-1,12
 419 72 419 72 432 99 c 128,-1,13
 445 126 445 126 445 172 c 0,14,15
 445 212 445 212 431 237 c 128,-1,16
 417 262 417 262 392.5 278 c 128,-1,17
 368 294 368 294 337 304 c 128,-1,18
 306 314 306 314 272 323 c 0,19,20
 230 335 230 335 194 349 c 128,-1,21
 158 363 158 363 130.5 386 c 128,-1,22
 103 409 103 409 87.5 447.5 c 128,-1,23
 72 486 72 486 72 546 c 256,24,25
 72 606 72 606 94.5 648 c 128,-1,26
 117 690 117 690 161 712 c 128,-1,27
 205 734 205 734 270 734 c 0,28,29
 325 734 325 734 363.5 713.5 c 128,-1,30
 402 693 402 693 423 650 c 128,-1,31
 444 607 444 607 445 538 c 1,32,-1
 424 585 l 1,33,-1
 438 720 l 1,34,-1
 505 720 l 1,35,-1
 505 509 l 1,36,-1
 433 509 l 1,37,38
 422 558 422 558 401.5 592 c 128,-1,39
 381 626 381 626 349.5 644.5 c 128,-1,40
 318 663 318 663 271 663 c 0,41,42
 233 663 233 663 208.5 650.5 c 128,-1,43
 184 638 184 638 172.5 613.5 c 128,-1,44
 161 589 161 589 161 550 c 0,45,46
 161 513 161 513 172.5 490.5 c 128,-1,47
 184 468 184 468 205.5 454 c 128,-1,48
 227 440 227 440 257.5 430.5 c 128,-1,49
 288 421 288 421 326 409 c 0,50,51
 364 398 364 398 401.5 383.5 c 128,-1,52
 439 369 439 369 470 346 c 128,-1,53
 501 323 501 323 519.5 284 c 128,-1,54
 538 245 538 245 538 186 c 0,55,56
 538 112 538 112 510.5 66 c 128,-1,57
 483 20 483 20 435 -2 c 128,-1,58
 387 -24 387 -24 324 -24 c 0,59,60
 262 -24 262 -24 216 -1.5 c 128,-1,61
 170 21 170 21 143 70.5 c 128,-1,62
 116 120 116 120 111 201 c 1,63,-1
 136 158 l 1,64,-1
 124 -6 l 1,65,-1
 57 -6 l 1,66,-1
 57 231 l 1,67,-1
 131 231 l 1,68,69
 143 169 143 169 167 128.5 c 128,-1,70
 191 88 191 88 229 68 c 128,-1,71
 267 48 267 48 322 48 c 0,10,11
296 1012 m 0,72,73
 261 1012 261 1012 242.5 1030 c 128,-1,74
 224 1048 224 1048 224 1083 c 0,75,76
 224 1116 224 1116 242.5 1134.5 c 128,-1,77
 261 1153 261 1153 296 1153 c 0,78,79
 329 1153 329 1153 348 1134.5 c 128,-1,80
 367 1116 367 1116 367 1083 c 0,81,82
 367 1048 367 1048 348 1030 c 128,-1,83
 329 1012 329 1012 296 1012 c 0,72,73
EndSplineSet
EndChar

StartChar: T
Encoding: 84 84 168
Width: 649
GlyphClass: 2
Flags: W
AnchorPoint: "Anchor-1" 329 0 basechar 0
AnchorPoint: "Anchor-0" 329 741 basechar 0
LayerCount: 2
Fore
SplineSet
275 109 m 2,0,-1
 275 639 l 1,1,-1
 221 639 l 2,2,3
 184 639 184 639 164.5 633 c 128,-1,4
 145 627 145 627 138 614 c 128,-1,5
 131 601 131 601 128 580 c 2,6,-1
 117 475 l 1,7,-1
 47 475 l 1,8,-1
 47 710 l 1,9,-1
 603 710 l 1,10,-1
 603 475 l 1,11,-1
 532 475 l 1,12,-1
 521 580 l 2,13,14
 519 601 519 601 511.5 614 c 128,-1,15
 504 627 504 627 484.5 633 c 128,-1,16
 465 639 465 639 427 639 c 2,17,-1
 374 639 l 1,18,-1
 374 109 l 2,19,20
 374 87 374 87 396 80 c 128,-1,21
 418 73 418 73 446 73 c 2,22,-1
 464 73 l 1,23,-1
 464 0 l 1,24,-1
 186 0 l 1,25,-1
 186 73 l 1,26,-1
 203 73 l 2,27,28
 231 73 231 73 253 80 c 128,-1,29
 275 87 275 87 275 109 c 2,0,-1
EndSplineSet
EndChar

StartChar: Tcaron
Encoding: 356 356 170
Width: 649
GlyphClass: 1
Flags: W
LayerCount: 2
Fore
SplineSet
284 806 m 1,0,-1
 354 806 l 1,1,-1
 473 961 l 1,2,-1
 473 981 l 1,3,-1
 424 981 l 1,4,-1
 261 841 l 1,5,-1
 382 844 l 1,6,-1
 222 981 l 1,7,-1
 164 981 l 1,8,-1
 164 961 l 1,9,-1
 284 806 l 1,0,-1
275 109 m 2,10,-1
 275 639 l 1,11,-1
 221 639 l 2,12,13
 184 639 184 639 164.5 633 c 128,-1,14
 145 627 145 627 138 614 c 128,-1,15
 131 601 131 601 128 580 c 2,16,-1
 117 475 l 1,17,-1
 47 475 l 1,18,-1
 47 710 l 1,19,-1
 603 710 l 1,20,-1
 603 475 l 1,21,-1
 532 475 l 1,22,-1
 521 580 l 2,23,24
 519 601 519 601 511.5 614 c 128,-1,25
 504 627 504 627 484.5 633 c 128,-1,26
 465 639 465 639 427 639 c 2,27,-1
 374 639 l 1,28,-1
 374 109 l 2,29,30
 374 87 374 87 396 80 c 128,-1,31
 418 73 418 73 446 73 c 2,32,-1
 464 73 l 1,33,-1
 464 0 l 1,34,-1
 186 0 l 1,35,-1
 186 73 l 1,36,-1
 203 73 l 2,37,38
 231 73 231 73 253 80 c 128,-1,39
 275 87 275 87 275 109 c 2,10,-1
EndSplineSet
EndChar

StartChar: U
Encoding: 85 85 174
Width: 724
GlyphClass: 2
Flags: W
AnchorPoint: "Anchor-2" 415 0 basechar 0
AnchorPoint: "Anchor-1" 366 0 basechar 0
AnchorPoint: "Anchor-0" 366 741 basechar 0
LayerCount: 2
Fore
SplineSet
216 236 m 2,0,1
 216 185 216 185 228 150 c 128,-1,2
 240 115 240 115 261 93.5 c 128,-1,3
 282 72 282 72 311 62.5 c 128,-1,4
 340 53 340 53 375 53 c 0,5,6
 409 53 409 53 437 62.5 c 128,-1,7
 465 72 465 72 485.5 93 c 128,-1,8
 506 114 506 114 516.5 149.5 c 128,-1,9
 527 185 527 185 527 236 c 2,10,-1
 527 618 l 2,11,12
 527 623 527 623 520.5 626.5 c 128,-1,13
 514 630 514 630 504 632 c 128,-1,14
 494 634 494 634 482.5 635.5 c 128,-1,15
 471 637 471 637 462 637 c 2,16,-1
 454 637 l 1,17,-1
 454 710 l 1,18,-1
 680 710 l 1,19,-1
 680 637 l 1,20,-1
 671 637 l 2,21,22
 655 637 655 637 640 633 c 128,-1,23
 625 629 625 629 616.5 619 c 128,-1,24
 608 609 608 609 608 592 c 2,25,-1
 608 225 l 2,26,27
 608 158 608 158 589 110.5 c 128,-1,28
 570 63 570 63 536 33.5 c 128,-1,29
 502 4 502 4 458 -10 c 128,-1,30
 414 -24 414 -24 366 -24 c 0,31,32
 314 -24 314 -24 268.5 -10 c 128,-1,33
 223 4 223 4 189 33.5 c 128,-1,34
 155 63 155 63 136.5 110.5 c 128,-1,35
 118 158 118 158 118 224 c 2,36,-1
 118 601 l 2,37,38
 118 623 118 623 98.5 630 c 128,-1,39
 79 637 79 637 53 637 c 2,40,-1
 43 637 l 1,41,-1
 43 710 l 1,42,-1
 297 710 l 1,43,-1
 297 638 l 1,44,-1
 290 638 l 2,45,46
 278 638 278 638 264.5 637 c 128,-1,47
 251 636 251 636 240 634.5 c 128,-1,48
 229 633 229 633 222.5 631.5 c 128,-1,49
 216 630 216 630 216 627 c 2,50,-1
 216 236 l 2,0,1
EndSplineSet
EndChar

StartChar: Uogonek
Encoding: 370 370 184
Width: 724
GlyphClass: 1
Flags: W
LayerCount: 2
Fore
SplineSet
467 40 m 1,0,-1
 467 -3 l 1,1,2
 445 -14 445 -14 419 -19 c 128,-1,3
 393 -24 393 -24 366 -24 c 0,4,5
 312 -24 312 -24 266.5 -10 c 128,-1,6
 221 4 221 4 187.5 33.5 c 128,-1,7
 154 63 154 63 136 110.5 c 128,-1,8
 118 158 118 158 118 224 c 2,9,-1
 118 601 l 2,10,11
 118 623 118 623 101 630 c 128,-1,12
 84 637 84 637 53 637 c 2,13,-1
 43 637 l 1,14,-1
 43 710 l 1,15,-1
 297 710 l 1,16,-1
 297 638 l 1,17,-1
 290 638 l 2,18,19
 278 638 278 638 264.5 637 c 128,-1,20
 251 636 251 636 240 634.5 c 128,-1,21
 229 633 229 633 222.5 631.5 c 128,-1,22
 216 630 216 630 216 628 c 2,23,-1
 216 224 l 2,24,25
 216 176 216 176 228 143.5 c 128,-1,26
 240 111 240 111 261 91.5 c 128,-1,27
 282 72 282 72 311.5 63.5 c 128,-1,28
 341 55 341 55 377 55 c 0,29,30
 411 55 411 55 439 63.5 c 128,-1,31
 467 72 467 72 487 91.5 c 128,-1,32
 507 111 507 111 518 144 c 128,-1,33
 529 177 529 177 529 224 c 2,34,-1
 529 618 l 2,35,36
 529 623 529 623 523 626.5 c 128,-1,37
 517 630 517 630 508 632 c 128,-1,38
 499 634 499 634 486.5 635.5 c 128,-1,39
 474 637 474 637 461 637 c 2,40,-1
 454 637 l 1,41,-1
 454 710 l 1,42,-1
 680 710 l 1,43,-1
 680 637 l 1,44,-1
 671 637 l 2,45,46
 651 637 651 637 636.5 633 c 128,-1,47
 622 629 622 629 614.5 619 c 128,-1,48
 607 609 607 609 607 592 c 2,49,-1
 607 224 l 2,50,51
 607 182 607 182 598 148 c 128,-1,52
 589 114 589 114 575 87 c 128,-1,53
 561 60 561 60 543 40 c 0,54,55
 523 16 523 16 497 -5.5 c 128,-1,56
 471 -27 471 -27 447 -49.5 c 128,-1,57
 423 -72 423 -72 406.5 -96.5 c 128,-1,58
 390 -121 390 -121 390 -150 c 0,59,60
 390 -164 390 -164 398.5 -175 c 128,-1,61
 407 -186 407 -186 428 -186 c 0,62,63
 456 -186 456 -186 472.5 -172 c 128,-1,64
 489 -158 489 -158 500 -142 c 1,65,-1
 543 -181 l 1,66,67
 520 -212 520 -212 488 -232 c 128,-1,68
 456 -252 456 -252 405 -252 c 0,69,70
 371 -252 371 -252 343.5 -242.5 c 128,-1,71
 316 -233 316 -233 300 -212.5 c 128,-1,72
 284 -192 284 -192 284 -161 c 0,73,74
 284 -138 284 -138 292.5 -118 c 128,-1,75
 301 -98 301 -98 321 -77 c 128,-1,76
 341 -56 341 -56 377 -28 c 128,-1,77
 413 0 413 0 467 40 c 1,0,-1
EndSplineSet
EndChar

StartChar: Uhorn
Encoding: 431 431 185
Width: 825
GlyphClass: 2
Flags: W
AnchorPoint: "Anchor-1" 416 -35 basechar 0
AnchorPoint: "Anchor-0" 416 663 basechar 0
LayerCount: 2
Fore
SplineSet
118 224 m 2,0,-1
 118 601 l 2,1,2
 118 623 118 623 101 630 c 128,-1,3
 84 637 84 637 53 637 c 2,4,-1
 43 637 l 1,5,-1
 43 710 l 1,6,-1
 297 710 l 1,7,-1
 297 638 l 1,8,-1
 290 638 l 2,9,10
 278 638 278 638 264.5 637 c 128,-1,11
 251 636 251 636 240 634.5 c 128,-1,12
 229 633 229 633 222.5 631.5 c 128,-1,13
 216 630 216 630 216 628 c 2,14,-1
 216 225 l 2,15,16
 216 177 216 177 228 144 c 128,-1,17
 240 111 240 111 261.5 91 c 128,-1,18
 283 71 283 71 312.5 62.5 c 128,-1,19
 342 54 342 54 377 54 c 0,20,21
 421 54 421 54 455 70 c 128,-1,22
 489 86 489 86 509 123.5 c 128,-1,23
 529 161 529 161 529 225 c 2,24,-1
 529 618 l 2,25,26
 529 623 529 623 523 626.5 c 128,-1,27
 517 630 517 630 508 632 c 128,-1,28
 499 634 499 634 486.5 635.5 c 128,-1,29
 474 637 474 637 461 637 c 2,30,-1
 454 637 l 1,31,-1
 454 710 l 1,32,-1
 658 710 l 2,33,34
 689 710 689 710 709 723 c 128,-1,35
 729 736 729 736 741.5 760.5 c 128,-1,36
 754 785 754 785 760.5 819.5 c 128,-1,37
 767 854 767 854 770 899 c 1,38,-1
 861 899 l 1,39,40
 860 846 860 846 853 805 c 128,-1,41
 846 764 846 764 831.5 734.5 c 128,-1,42
 817 705 817 705 794.5 685 c 128,-1,43
 772 665 772 665 739 653.5 c 128,-1,44
 706 642 706 642 660 638 c 0,45,46
 644 637 644 637 632 633 c 128,-1,47
 620 629 620 629 613.5 619.5 c 128,-1,48
 607 610 607 610 607 594 c 2,49,-1
 607 224 l 2,50,51
 607 158 607 158 588.5 110.5 c 128,-1,52
 570 63 570 63 537 33.5 c 128,-1,53
 504 4 504 4 460 -10 c 128,-1,54
 416 -24 416 -24 366 -24 c 0,55,56
 312 -24 312 -24 267 -10 c 128,-1,57
 222 4 222 4 188 33.5 c 128,-1,58
 154 63 154 63 136 110.5 c 128,-1,59
 118 158 118 158 118 224 c 2,0,-1
EndSplineSet
EndChar

StartChar: Ucaron
Encoding: 467 467 186
Width: 724
GlyphClass: 1
Flags: W
LayerCount: 2
Fore
SplineSet
333 806 m 1,0,-1
 403 806 l 1,1,-1
 522 961 l 1,2,-1
 522 981 l 1,3,-1
 474 981 l 1,4,-1
 311 841 l 1,5,-1
 432 844 l 1,6,-1
 271 981 l 1,7,-1
 213 981 l 1,8,-1
 213 961 l 1,9,-1
 333 806 l 1,0,-1
216 236 m 2,10,11
 216 185 216 185 228 150 c 128,-1,12
 240 115 240 115 261 93.5 c 128,-1,13
 282 72 282 72 311 62.5 c 128,-1,14
 340 53 340 53 375 53 c 0,15,16
 409 53 409 53 437 62.5 c 128,-1,17
 465 72 465 72 485.5 93 c 128,-1,18
 506 114 506 114 516.5 149.5 c 128,-1,19
 527 185 527 185 527 236 c 2,20,-1
 527 618 l 2,21,22
 527 623 527 623 520.5 626.5 c 128,-1,23
 514 630 514 630 504 632 c 128,-1,24
 494 634 494 634 482.5 635.5 c 128,-1,25
 471 637 471 637 461 637 c 2,26,-1
 454 637 l 1,27,-1
 454 710 l 1,28,-1
 680 710 l 1,29,-1
 680 637 l 1,30,-1
 671 637 l 2,31,32
 654 637 654 637 639.5 633 c 128,-1,33
 625 629 625 629 616.5 619 c 128,-1,34
 608 609 608 609 608 592 c 2,35,-1
 608 225 l 2,36,37
 608 158 608 158 589 110.5 c 128,-1,38
 570 63 570 63 536 33.5 c 128,-1,39
 502 4 502 4 458 -10 c 128,-1,40
 414 -24 414 -24 365 -24 c 0,41,42
 314 -24 314 -24 268.5 -10 c 128,-1,43
 223 4 223 4 189 33.5 c 128,-1,44
 155 63 155 63 136.5 110.5 c 128,-1,45
 118 158 118 158 118 224 c 2,46,-1
 118 601 l 2,47,48
 118 623 118 623 98 630 c 128,-1,49
 78 637 78 637 53 637 c 2,50,-1
 43 637 l 1,51,-1
 43 710 l 1,52,-1
 297 710 l 1,53,-1
 297 638 l 1,54,-1
 290 638 l 2,55,56
 278 638 278 638 264.5 637 c 128,-1,57
 251 636 251 636 240 634.5 c 128,-1,58
 229 633 229 633 222.5 631.5 c 128,-1,59
 216 630 216 630 216 627 c 2,60,-1
 216 236 l 2,10,11
EndSplineSet
EndChar

StartChar: Udieresiscaron
Encoding: 473 473 187
Width: 724
GlyphClass: 1
Flags: W
LayerCount: 2
Fore
SplineSet
332 971 m 1,0,-1
 402 971 l 1,1,-1
 521 1126 l 1,2,-1
 521 1146 l 1,3,-1
 472 1146 l 1,4,-1
 309 1006 l 1,5,-1
 430 1009 l 1,6,-1
 270 1146 l 1,7,-1
 212 1146 l 1,8,-1
 212 1126 l 1,9,-1
 332 971 l 1,0,-1
216 236 m 2,10,11
 216 185 216 185 228 150 c 128,-1,12
 240 115 240 115 261 93.5 c 128,-1,13
 282 72 282 72 311 62.5 c 128,-1,14
 340 53 340 53 375 53 c 0,15,16
 409 53 409 53 437 62.5 c 128,-1,17
 465 72 465 72 485.5 93 c 128,-1,18
 506 114 506 114 516.5 149.5 c 128,-1,19
 527 185 527 185 527 236 c 2,20,-1
 527 618 l 2,21,22
 527 623 527 623 520.5 626.5 c 128,-1,23
 514 630 514 630 504 632 c 128,-1,24
 494 634 494 634 482.5 635.5 c 128,-1,25
 471 637 471 637 461 637 c 2,26,-1
 454 637 l 1,27,-1
 454 710 l 1,28,-1
 680 710 l 1,29,-1
 680 637 l 1,30,-1
 671 637 l 2,31,32
 654 637 654 637 639.5 633 c 128,-1,33
 625 629 625 629 616.5 619 c 128,-1,34
 608 609 608 609 608 592 c 2,35,-1
 608 225 l 2,36,37
 608 158 608 158 589 110.5 c 128,-1,38
 570 63 570 63 536 33.5 c 128,-1,39
 502 4 502 4 458 -10 c 128,-1,40
 414 -24 414 -24 365 -24 c 0,41,42
 314 -24 314 -24 268.5 -10 c 128,-1,43
 223 4 223 4 189 33.5 c 128,-1,44
 155 63 155 63 136.5 110.5 c 128,-1,45
 118 158 118 158 118 224 c 2,46,-1
 118 601 l 2,47,48
 118 623 118 623 98 630 c 128,-1,49
 78 637 78 637 53 637 c 2,50,-1
 43 637 l 1,51,-1
 43 710 l 1,52,-1
 297 710 l 1,53,-1
 297 638 l 1,54,-1
 290 638 l 2,55,56
 278 638 278 638 264.5 637 c 128,-1,57
 251 636 251 636 240 634.5 c 128,-1,58
 229 633 229 633 222.5 631.5 c 128,-1,59
 216 630 216 630 216 627 c 2,60,-1
 216 236 l 2,10,11
318 868 m 0,61,62
 318 831 318 831 299.5 816 c 128,-1,63
 281 801 281 801 250 801 c 256,64,65
 219 801 219 801 201 816 c 128,-1,66
 183 831 183 831 183 868 c 0,67,68
 183 903 183 903 201 918.5 c 128,-1,69
 219 934 219 934 250 934 c 256,70,71
 281 934 281 934 299.5 918.5 c 128,-1,72
 318 903 318 903 318 868 c 0,61,62
549 868 m 0,73,74
 549 831 549 831 530 816 c 128,-1,75
 511 801 511 801 481 801 c 256,76,77
 451 801 451 801 432 816 c 128,-1,78
 413 831 413 831 413 868 c 0,79,80
 413 903 413 903 432 918.5 c 128,-1,81
 451 934 451 934 481 934 c 256,82,83
 511 934 511 934 530 918.5 c 128,-1,84
 549 903 549 903 549 868 c 0,73,74
EndSplineSet
EndChar

StartChar: Udblgrave
Encoding: 532 532 188
Width: 724
GlyphClass: 1
Flags: W
LayerCount: 2
Fore
SplineSet
445 925 m 2,0,-1
 485 824 l 1,1,-1
 485 793 l 1,2,-1
 446 793 l 1,3,-1
 379 858 l 2,4,5
 360 877 360 877 349.5 894 c 128,-1,6
 339 911 339 911 339 932 c 0,7,8
 339 949 339 949 351.5 961.5 c 128,-1,9
 364 974 364 974 386 974 c 0,10,11
 402 974 402 974 413 967 c 128,-1,12
 424 960 424 960 432 949 c 128,-1,13
 440 938 440 938 445 925 c 2,0,-1
268 925 m 2,14,-1
 305 824 l 1,15,-1
 305 793 l 1,16,-1
 266 793 l 1,17,-1
 199 858 l 2,18,19
 180 877 180 877 169.5 894 c 128,-1,20
 159 911 159 911 159 932 c 0,21,22
 159 949 159 949 172 961.5 c 128,-1,23
 185 974 185 974 206 974 c 0,24,25
 222 974 222 974 234 967.5 c 128,-1,26
 246 961 246 961 254.5 949.5 c 128,-1,27
 263 938 263 938 268 925 c 2,14,-1
216 236 m 2,28,29
 216 185 216 185 228 150 c 128,-1,30
 240 115 240 115 261 93.5 c 128,-1,31
 282 72 282 72 311 62.5 c 128,-1,32
 340 53 340 53 375 53 c 0,33,34
 409 53 409 53 437 62.5 c 128,-1,35
 465 72 465 72 485.5 93 c 128,-1,36
 506 114 506 114 516.5 149.5 c 128,-1,37
 527 185 527 185 527 236 c 2,38,-1
 527 618 l 2,39,40
 527 623 527 623 520.5 626.5 c 128,-1,41
 514 630 514 630 504 632 c 128,-1,42
 494 634 494 634 482.5 635.5 c 128,-1,43
 471 637 471 637 461 637 c 2,44,-1
 454 637 l 1,45,-1
 454 710 l 1,46,-1
 680 710 l 1,47,-1
 680 637 l 1,48,-1
 671 637 l 2,49,50
 654 637 654 637 639.5 633 c 128,-1,51
 625 629 625 629 616.5 619 c 128,-1,52
 608 609 608 609 608 592 c 2,53,-1
 608 225 l 2,54,55
 608 158 608 158 589 110.5 c 128,-1,56
 570 63 570 63 536 33.5 c 128,-1,57
 502 4 502 4 458 -10 c 128,-1,58
 414 -24 414 -24 365 -24 c 0,59,60
 314 -24 314 -24 268.5 -10 c 128,-1,61
 223 4 223 4 189 33.5 c 128,-1,62
 155 63 155 63 136.5 110.5 c 128,-1,63
 118 158 118 158 118 224 c 2,64,-1
 118 601 l 2,65,66
 118 623 118 623 98 630 c 128,-1,67
 78 637 78 637 53 637 c 2,68,-1
 43 637 l 1,69,-1
 43 710 l 1,70,-1
 297 710 l 1,71,-1
 297 638 l 1,72,-1
 290 638 l 2,73,74
 278 638 278 638 264.5 637 c 128,-1,75
 251 636 251 636 240 634.5 c 128,-1,76
 229 633 229 633 222.5 631.5 c 128,-1,77
 216 630 216 630 216 627 c 2,78,-1
 216 236 l 2,28,29
EndSplineSet
EndChar

StartChar: Uinvertedbreve
Encoding: 534 534 189
Width: 724
GlyphClass: 1
Flags: W
LayerCount: 2
Fore
SplineSet
362 929 m 0,0,1
 310 929 310 929 274.5 913 c 128,-1,2
 239 897 239 897 220.5 861 c 128,-1,3
 202 825 202 825 201 764 c 1,4,-1
 270 764 l 1,5,6
 272 800 272 800 280.5 819.5 c 128,-1,7
 289 839 289 839 308.5 846.5 c 128,-1,8
 328 854 328 854 362 854 c 0,9,10
 393 854 393 854 411.5 846.5 c 128,-1,11
 430 839 430 839 439 819.5 c 128,-1,12
 448 800 448 800 450 764 c 1,13,-1
 524 764 l 1,14,15
 523 825 523 825 503 861 c 128,-1,16
 483 897 483 897 447.5 913 c 128,-1,17
 412 929 412 929 362 929 c 0,0,1
216 236 m 2,18,19
 216 185 216 185 228 150 c 128,-1,20
 240 115 240 115 261 93.5 c 128,-1,21
 282 72 282 72 311 62.5 c 128,-1,22
 340 53 340 53 375 53 c 0,23,24
 409 53 409 53 437 62.5 c 128,-1,25
 465 72 465 72 485.5 93 c 128,-1,26
 506 114 506 114 516.5 149.5 c 128,-1,27
 527 185 527 185 527 236 c 2,28,-1
 527 618 l 2,29,30
 527 623 527 623 520.5 626.5 c 128,-1,31
 514 630 514 630 504 632 c 128,-1,32
 494 634 494 634 482.5 635.5 c 128,-1,33
 471 637 471 637 461 637 c 2,34,-1
 454 637 l 1,35,-1
 454 710 l 1,36,-1
 680 710 l 1,37,-1
 680 637 l 1,38,-1
 671 637 l 2,39,40
 654 637 654 637 639.5 633 c 128,-1,41
 625 629 625 629 616.5 619 c 128,-1,42
 608 609 608 609 608 592 c 2,43,-1
 608 225 l 2,44,45
 608 158 608 158 589 110.5 c 128,-1,46
 570 63 570 63 536 33.5 c 128,-1,47
 502 4 502 4 458 -10 c 128,-1,48
 414 -24 414 -24 365 -24 c 0,49,50
 314 -24 314 -24 268.5 -10 c 128,-1,51
 223 4 223 4 189 33.5 c 128,-1,52
 155 63 155 63 136.5 110.5 c 128,-1,53
 118 158 118 158 118 224 c 2,54,-1
 118 601 l 2,55,56
 118 623 118 623 98 630 c 128,-1,57
 78 637 78 637 53 637 c 2,58,-1
 43 637 l 1,59,-1
 43 710 l 1,60,-1
 297 710 l 1,61,-1
 297 638 l 1,62,-1
 290 638 l 2,63,64
 278 638 278 638 264.5 637 c 128,-1,65
 251 636 251 636 240 634.5 c 128,-1,66
 229 633 229 633 222.5 631.5 c 128,-1,67
 216 630 216 630 216 627 c 2,68,-1
 216 236 l 2,18,19
EndSplineSet
EndChar

StartChar: V
Encoding: 86 86 199
Width: 663
GlyphClass: 2
Flags: W
AnchorPoint: "Anchor-0" 360 741 basechar 0
LayerCount: 2
Fore
SplineSet
355 20 m 1,0,-1
 329 31 l 1,1,-1
 501 614 l 2,2,3
 501 621 501 621 492.5 626 c 128,-1,4
 484 631 484 631 468.5 634 c 128,-1,5
 453 637 453 637 433 637 c 2,6,-1
 424 637 l 1,7,-1
 424 710 l 1,8,-1
 645 710 l 1,9,-1
 645 637 l 1,10,-1
 639 637 l 2,11,12
 619 637 619 637 602 625 c 128,-1,13
 585 613 585 613 573 573 c 2,14,-1
 394 -12 l 1,15,-1
 271 -12 l 1,16,-1
 90 573 l 2,17,18
 78 613 78 613 61 625 c 128,-1,19
 44 637 44 637 23 637 c 2,20,-1
 19 637 l 1,21,-1
 19 710 l 1,22,-1
 261 710 l 1,23,-1
 261 637 l 1,24,-1
 251 637 l 2,25,26
 226 637 226 637 209 635.5 c 128,-1,27
 192 634 192 634 183 632 c 128,-1,28
 174 630 174 630 174 626 c 2,29,-1
 355 20 l 1,0,-1
EndSplineSet
EndChar

StartChar: W
Encoding: 87 87 200
Width: 923
GlyphClass: 2
Flags: W
AnchorPoint: "Anchor-0" 474 741 basechar 0
LayerCount: 2
Fore
SplineSet
19 710 m 1,0,-1
 249 710 l 1,1,-1
 249 637 l 1,2,-1
 235 637 l 2,3,4
 223 637 223 637 208 635.5 c 128,-1,5
 193 634 193 634 182.5 632 c 128,-1,6
 172 630 172 630 172 626 c 2,7,-1
 306 35 l 1,8,-1
 263 33 l 1,9,-1
 423 710 l 1,10,-1
 528 710 l 1,11,-1
 686 37 l 1,12,-1
 647 37 l 1,13,-1
 778 614 l 2,14,15
 778 621 778 621 769.5 626 c 128,-1,16
 761 631 761 631 748.5 634 c 128,-1,17
 736 637 736 637 724 637 c 2,18,-1
 712 637 l 1,19,-1
 712 710 l 1,20,-1
 906 710 l 1,21,-1
 906 637 l 1,22,-1
 899 637 l 2,23,24
 882 637 882 637 867.5 626 c 128,-1,25
 853 615 853 615 847 587 c 2,26,-1
 711 -4 l 1,27,-1
 606 -4 l 1,28,-1
 447 656 l 1,29,-1
 488 660 l 1,30,-1
 331 -4 l 1,31,-1
 225 -4 l 1,32,-1
 81 594 l 2,33,34
 75 624 75 624 61.5 630.5 c 128,-1,35
 48 637 48 637 25 637 c 2,36,-1
 19 637 l 1,37,-1
 19 710 l 1,0,-1
EndSplineSet
EndChar

StartChar: X
Encoding: 88 88 205
Width: 673
GlyphClass: 2
Flags: W
AnchorPoint: "Anchor-1" 355 0 basechar 0
AnchorPoint: "Anchor-0" 378 741 basechar 0
LayerCount: 2
Fore
SplineSet
36 637 m 1,0,-1
 36 710 l 1,1,-1
 289 710 l 1,2,-1
 289 637 l 1,3,-1
 274 637 l 2,4,5
 257 637 257 637 242.5 636 c 128,-1,6
 228 635 228 635 218.5 633.5 c 128,-1,7
 209 632 209 632 209 628 c 2,8,-1
 369 391 l 1,9,-1
 379 387 l 1,10,-1
 567 107 l 2,11,12
 582 85 582 85 597 79 c 128,-1,13
 612 73 612 73 630 73 c 2,14,-1
 648 73 l 1,15,-1
 648 0 l 1,16,-1
 391 0 l 1,17,-1
 391 73 l 1,18,-1
 406 73 l 2,19,20
 422 73 422 73 437 74 c 128,-1,21
 452 75 452 75 461.5 77.5 c 128,-1,22
 471 80 471 80 471 82 c 2,23,-1
 299 341 l 1,24,-1
 289 345 l 1,25,-1
 114 603 l 2,26,27
 99 626 99 626 83 631.5 c 128,-1,28
 67 637 67 637 48 637 c 2,29,-1
 36 637 l 1,0,-1
25 0 m 1,30,-1
 25 73 l 1,31,-1
 43 73 l 2,32,33
 58 73 58 73 72.5 82.5 c 128,-1,34
 87 92 87 92 104 119 c 2,35,-1
 277 380 l 1,36,-1
 338 339 l 1,37,-1
 175 90 l 2,38,39
 175 86 175 86 185 82 c 128,-1,40
 195 78 195 78 208.5 75.5 c 128,-1,41
 222 73 222 73 234 73 c 2,42,-1
 251 73 l 1,43,-1
 251 0 l 1,44,-1
 25 0 l 1,30,-1
393 355 m 1,45,-1
 332 393 l 1,46,-1
 487 620 l 2,47,48
 487 626 487 626 476.5 629.5 c 128,-1,49
 466 633 466 633 452 635 c 128,-1,50
 438 637 438 637 424 637 c 2,51,-1
 412 637 l 1,52,-1
 412 710 l 1,53,-1
 634 710 l 1,54,-1
 634 637 l 1,55,-1
 622 637 l 2,56,57
 605 637 605 637 590.5 628 c 128,-1,58
 576 619 576 619 557 592 c 2,59,-1
 393 355 l 1,45,-1
EndSplineSet
EndChar

StartChar: Y
Encoding: 89 89 206
Width: 631
GlyphClass: 2
Flags: W
AnchorPoint: "Anchor-1" 319 0 basechar 0
AnchorPoint: "Anchor-0" 319 741 basechar 0
LayerCount: 2
Fore
SplineSet
268 298 m 1,0,-1
 274 262 l 1,1,-1
 92 594 l 2,2,3
 82 611 82 611 74 620.5 c 128,-1,4
 66 630 66 630 56.5 633.5 c 128,-1,5
 47 637 47 637 35 637 c 2,6,-1
 24 637 l 1,7,-1
 24 710 l 1,8,-1
 251 710 l 1,9,-1
 251 637 l 1,10,-1
 238 637 l 2,11,12
 223 637 223 637 209 635.5 c 128,-1,13
 195 634 195 634 186 632 c 128,-1,14
 177 630 177 630 177 626 c 2,15,-1
 353 300 l 1,16,-1
 305 300 l 1,17,-1
 465 614 l 2,18,19
 465 621 465 621 456 626 c 128,-1,20
 447 631 447 631 435.5 634 c 128,-1,21
 424 637 424 637 414 637 c 2,22,-1
 404 637 l 1,23,-1
 404 710 l 1,24,-1
 604 710 l 1,25,-1
 604 637 l 1,26,-1
 593 637 l 2,27,28
 583 637 583 637 573 632.5 c 128,-1,29
 563 628 563 628 552.5 616.5 c 128,-1,30
 542 605 542 605 532 585 c 2,31,-1
 360 262 l 1,32,-1
 366 298 l 1,33,-1
 366 109 l 2,34,35
 366 87 366 87 387 80 c 128,-1,36
 408 73 408 73 437 73 c 2,37,-1
 455 73 l 1,38,-1
 455 0 l 1,39,-1
 179 0 l 1,40,-1
 179 73 l 1,41,-1
 197 73 l 2,42,43
 227 73 227 73 247.5 80 c 128,-1,44
 268 87 268 87 268 109 c 2,45,-1
 268 298 l 1,0,-1
EndSplineSet
EndChar

StartChar: Z
Encoding: 90 90 216
Width: 602
GlyphClass: 2
Flags: W
AnchorPoint: "Anchor-1" 318 0 basechar 0
AnchorPoint: "Anchor-0" 318 741 basechar 0
LayerCount: 2
Fore
SplineSet
245 639 m 2,0,1
 217 639 217 639 200 637 c 128,-1,2
 183 635 183 635 173.5 630 c 128,-1,3
 164 625 164 625 159.5 616.5 c 128,-1,4
 155 608 155 608 153 594 c 2,5,-1
 141 506 l 1,6,-1
 70 506 l 1,7,-1
 70 710 l 1,8,-1
 533 710 l 1,9,-1
 533 633 l 1,10,-1
 129 20 l 1,11,-1
 111 71 l 1,12,-1
 368 71 l 2,13,14
 405 71 405 71 424.5 74.5 c 128,-1,15
 444 78 444 78 452 88 c 128,-1,16
 460 98 460 98 461 116 c 2,17,-1
 474 229 l 1,18,-1
 547 229 l 1,19,-1
 547 0 l 1,20,-1
 57 0 l 1,21,-1
 57 80 l 1,22,-1
 450 679 l 1,23,-1
 471 639 l 1,24,-1
 245 639 l 2,0,1
EndSplineSet
EndChar

StartChar: Zcaron
Encoding: 381 381 219
Width: 602
GlyphClass: 1
Flags: W
LayerCount: 2
Fore
SplineSet
261 806 m 1,0,-1
 331 806 l 1,1,-1
 450 961 l 1,2,-1
 450 981 l 1,3,-1
 402 981 l 1,4,-1
 239 841 l 1,5,-1
 360 844 l 1,6,-1
 199 981 l 1,7,-1
 142 981 l 1,8,-1
 142 961 l 1,9,-1
 261 806 l 1,0,-1
245 639 m 2,10,11
 217 639 217 639 200 637 c 128,-1,12
 183 635 183 635 173.5 630 c 128,-1,13
 164 625 164 625 159.5 616.5 c 128,-1,14
 155 608 155 608 153 594 c 2,15,-1
 141 506 l 1,16,-1
 70 506 l 1,17,-1
 70 710 l 1,18,-1
 533 710 l 1,19,-1
 533 633 l 1,20,-1
 129 20 l 1,21,-1
 111 71 l 1,22,-1
 368 71 l 2,23,24
 405 71 405 71 424.5 74.5 c 128,-1,25
 444 78 444 78 452 88 c 128,-1,26
 460 98 460 98 461 116 c 2,27,-1
 474 229 l 1,28,-1
 547 229 l 1,29,-1
 547 0 l 1,30,-1
 57 0 l 1,31,-1
 57 80 l 1,32,-1
 450 679 l 1,33,-1
 471 639 l 1,34,-1
 245 639 l 2,10,11
EndSplineSet
EndChar

StartChar: AE
Encoding: 198 198 221
Width: 967
GlyphClass: 2
Flags: W
AnchorPoint: "Anchor-0" 597 741 basechar 0
LayerCount: 2
Fore
SplineSet
213 302 m 1,0,-1
 503 302 l 1,1,-1
 519 228 l 1,2,-1
 196 228 l 1,3,-1
 213 302 l 1,0,-1
550 399 m 1,4,5
 592 401 592 401 634 403 c 128,-1,6
 676 405 676 405 718 407.5 c 128,-1,7
 760 410 760 410 802 413 c 1,8,-1
 802 318 l 1,9,10
 761 320 761 320 719 322 c 128,-1,11
 677 324 677 324 635 326.5 c 128,-1,12
 593 329 593 329 550 332 c 1,13,-1
 550 399 l 1,4,5
393 0 m 1,14,-1
 393 73 l 1,15,-1
 401 73 l 2,16,17
 423 73 423 73 438.5 76 c 128,-1,18
 454 79 454 79 462 86 c 128,-1,19
 470 93 470 93 470 105 c 2,20,-1
 470 660 l 1,21,-1
 449 645 l 1,22,-1
 161 96 l 2,23,24
 161 90 161 90 166.5 84.5 c 128,-1,25
 172 79 172 79 186.5 76 c 128,-1,26
 201 73 201 73 225 73 c 2,27,-1
 233 73 l 1,28,-1
 233 0 l 1,29,-1
 5 0 l 1,30,-1
 5 73 l 1,31,-1
 10 73 l 2,32,33
 28 73 28 73 41.5 79 c 128,-1,34
 55 85 55 85 67.5 99.5 c 128,-1,35
 80 114 80 114 93 137 c 2,36,-1
 339 605 l 1,37,38
 339 620 339 620 334 626.5 c 128,-1,39
 329 633 329 633 317 635 c 128,-1,40
 305 637 305 637 285 637 c 2,41,-1
 275 637 l 1,42,-1
 275 710 l 1,43,-1
 887 710 l 1,44,-1
 887 511 l 1,45,-1
 816 511 l 1,46,-1
 805 594 l 2,47,48
 802 612 802 612 790.5 621.5 c 128,-1,49
 779 631 779 631 756.5 635 c 128,-1,50
 734 639 734 639 698 639 c 2,51,-1
 568 639 l 1,52,-1
 568 71 l 1,53,-1
 714 71 l 2,54,55
 741 71 741 71 761 73 c 128,-1,56
 781 75 781 75 793.5 80 c 128,-1,57
 806 85 806 85 812.5 94.5 c 128,-1,58
 819 104 819 104 820 116 c 2,59,-1
 833 224 l 1,60,-1
 906 224 l 1,61,-1
 906 0 l 1,62,-1
 393 0 l 1,14,-1
EndSplineSet
EndChar

StartChar: Eth
Encoding: 208 208 223
Width: 706
GlyphClass: 1
Flags: W
LayerCount: 2
Fore
SplineSet
44 396 m 1,0,-1
 399 396 l 1,1,-1
 399 325 l 1,2,-1
 44 325 l 1,3,-1
 44 396 l 1,0,-1
53 637 m 1,4,-1
 53 710 l 1,5,-1
 319 710 l 2,6,7
 397 710 397 710 459 689 c 128,-1,8
 521 668 521 668 564 624.5 c 128,-1,9
 607 581 607 581 629.5 515 c 128,-1,10
 652 449 652 449 652 359 c 0,11,12
 652 270 652 270 629.5 202.5 c 128,-1,13
 607 135 607 135 564 90 c 128,-1,14
 521 45 521 45 459 22.5 c 128,-1,15
 397 0 397 0 319 0 c 2,16,-1
 53 0 l 1,17,-1
 53 73 l 1,18,-1
 62 73 l 2,19,20
 88 73 88 73 107.5 80 c 128,-1,21
 127 87 127 87 127 109 c 2,22,-1
 127 601 l 2,23,24
 127 623 127 623 107.5 630 c 128,-1,25
 88 637 88 637 63 637 c 2,26,-1
 53 637 l 1,4,-1
316 639 m 2,27,-1
 225 639 l 1,28,-1
 225 71 l 1,29,-1
 316 71 l 2,30,31
 375 71 375 71 418.5 88.5 c 128,-1,32
 462 106 462 106 491 142 c 128,-1,33
 520 178 520 178 533.5 232 c 128,-1,34
 547 286 547 286 547 359 c 256,35,36
 547 432 547 432 533.5 485 c 128,-1,37
 520 538 520 538 491 572 c 128,-1,38
 462 606 462 606 418.5 622.5 c 128,-1,39
 375 639 375 639 316 639 c 2,27,-1
EndSplineSet
EndChar

StartChar: Oslash
Encoding: 216 216 224
Width: 715
GlyphClass: 2
Flags: W
AnchorPoint: "Anchor-0" 357 731 basechar 0
LayerCount: 2
Fore
SplineSet
358 660 m 0,0,1
 309 660 309 660 271.5 641.5 c 128,-1,2
 234 623 234 623 209 585.5 c 128,-1,3
 184 548 184 548 171.5 490.5 c 128,-1,4
 159 433 159 433 159 355 c 0,5,6
 159 271 159 271 171.5 212.5 c 128,-1,7
 184 154 184 154 208.5 118.5 c 128,-1,8
 233 83 233 83 270.5 66.5 c 128,-1,9
 308 50 308 50 358 50 c 0,10,11
 407 50 407 50 444.5 68 c 128,-1,12
 482 86 482 86 506.5 123.5 c 128,-1,13
 531 161 531 161 543.5 218.5 c 128,-1,14
 556 276 556 276 556 355 c 0,15,16
 556 439 556 439 543.5 497.5 c 128,-1,17
 531 556 531 556 506.5 591.5 c 128,-1,18
 482 627 482 627 445 643.5 c 128,-1,19
 408 660 408 660 358 660 c 0,0,1
358 -24 m 0,20,21
 289 -24 289 -24 233 1.5 c 128,-1,22
 177 27 177 27 137 75.5 c 128,-1,23
 97 124 97 124 75.5 194.5 c 128,-1,24
 54 265 54 265 54 355 c 0,25,26
 54 449 54 449 76 519.5 c 128,-1,27
 98 590 98 590 138 637.5 c 128,-1,28
 178 685 178 685 234 709.5 c 128,-1,29
 290 734 290 734 358 734 c 256,30,31
 426 734 426 734 481.5 709 c 128,-1,32
 537 684 537 684 577 635.5 c 128,-1,33
 617 587 617 587 639 516.5 c 128,-1,34
 661 446 661 446 661 355 c 0,35,36
 661 262 661 262 639.5 191 c 128,-1,37
 618 120 618 120 578 72.5 c 128,-1,38
 538 25 538 25 482 0.5 c 128,-1,39
 426 -24 426 -24 358 -24 c 0,20,21
-1 -21 m 1,40,-1
 631 731 l 1,41,-1
 716 731 l 1,42,-1
 84 -21 l 1,43,-1
 -1 -21 l 1,40,-1
EndSplineSet
EndChar

StartChar: Thorn
Encoding: 222 222 226
Width: 642
GlyphClass: 1
Flags: W
LayerCount: 2
Fore
SplineSet
323 710 m 1,0,-1
 53 710 l 1,1,-1
 53 637 l 1,2,-1
 62 637 l 2,3,4
 94 637 94 637 110.5 630 c 128,-1,5
 127 623 127 623 127 601 c 2,6,-1
 127 109 l 2,7,8
 127 87 127 87 110.5 80 c 128,-1,9
 94 73 94 73 63 73 c 2,10,-1
 53 73 l 1,11,-1
 53 0 l 1,12,-1
 323 0 l 1,13,-1
 323 72 l 1,14,-1
 305 72 l 2,15,16
 290 72 290 72 275.5 73 c 128,-1,17
 261 74 261 74 250 75.5 c 128,-1,18
 239 77 239 77 232 78.5 c 128,-1,19
 225 80 225 80 225 82 c 2,20,-1
 225 628 l 2,21,22
 225 630 225 630 232 631.5 c 128,-1,23
 239 633 239 633 250 634.5 c 128,-1,24
 261 636 261 636 275.5 636.5 c 128,-1,25
 290 637 290 637 305 637 c 2,26,-1
 323 637 l 1,27,-1
 323 710 l 1,0,-1
589 367 m 0,28,29
 589 430 589 430 560.5 471.5 c 128,-1,30
 532 513 532 513 481.5 534.5 c 128,-1,31
 431 556 431 556 363 556 c 2,32,-1
 196 556 l 1,33,-1
 196 484 l 1,34,-1
 359 484 l 2,35,36
 402 484 402 484 430 471.5 c 128,-1,37
 458 459 458 459 472 433 c 128,-1,38
 486 407 486 407 486 366 c 0,39,40
 486 326 486 326 472 299 c 128,-1,41
 458 272 458 272 429.5 258 c 128,-1,42
 401 244 401 244 358 244 c 2,43,-1
 199 244 l 1,44,-1
 199 173 l 1,45,-1
 362 173 l 2,46,47
 428 173 428 173 479.5 196 c 128,-1,48
 531 219 531 219 560 262 c 128,-1,49
 589 305 589 305 589 367 c 0,28,29
EndSplineSet
EndChar

StartChar: Hbar
Encoding: 294 294 228
Width: 762
GlyphClass: 1
Flags: W
LayerCount: 2
Fore
SplineSet
198 373 m 1,0,-1
 561 373 l 1,1,-1
 561 308 l 1,2,-1
 198 308 l 1,3,-1
 198 373 l 1,0,-1
51 0 m 1,4,-1
 51 73 l 1,5,-1
 60 73 l 2,6,7
 86 73 86 73 105.5 80 c 128,-1,8
 125 87 125 87 125 109 c 2,9,-1
 125 601 l 2,10,11
 125 623 125 623 105.5 630 c 128,-1,12
 86 637 86 637 60 637 c 2,13,-1
 51 637 l 1,14,-1
 51 710 l 1,15,-1
 304 710 l 1,16,-1
 304 638 l 1,17,-1
 297 638 l 2,18,19
 284 638 284 638 271 637 c 128,-1,20
 258 636 258 636 247.5 634.5 c 128,-1,21
 237 633 237 633 230 631.5 c 128,-1,22
 223 630 223 630 223 628 c 2,23,-1
 223 82 l 2,24,25
 223 79 223 79 230 78 c 128,-1,26
 237 77 237 77 247.5 75.5 c 128,-1,27
 258 74 258 74 271.5 73.5 c 128,-1,28
 285 73 285 73 296 73 c 2,29,-1
 304 73 l 1,30,-1
 304 0 l 1,31,-1
 51 0 l 1,4,-1
458 0 m 1,32,-1
 458 72 l 1,33,-1
 465 72 l 2,34,35
 477 72 477 72 490 73 c 128,-1,36
 503 74 503 74 514 75.5 c 128,-1,37
 525 77 525 77 532 78.5 c 128,-1,38
 539 80 539 80 539 82 c 2,39,-1
 539 628 l 2,40,41
 539 631 539 631 532 632 c 128,-1,42
 525 633 525 633 514 634.5 c 128,-1,43
 503 636 503 636 490 636.5 c 128,-1,44
 477 637 477 637 466 637 c 2,45,-1
 458 637 l 1,46,-1
 458 710 l 1,47,-1
 711 710 l 1,48,-1
 711 637 l 1,49,-1
 701 637 l 2,50,51
 676 637 676 637 656.5 630 c 128,-1,52
 637 623 637 623 637 601 c 2,53,-1
 637 109 l 2,54,55
 637 87 637 87 656.5 80 c 128,-1,56
 676 73 676 73 701 73 c 2,57,-1
 711 73 l 1,58,-1
 711 0 l 1,59,-1
 458 0 l 1,32,-1
42 475 m 1,60,-1
 42 539 l 1,61,-1
 719 539 l 1,62,-1
 719 475 l 1,63,-1
 42 475 l 1,60,-1
EndSplineSet
EndChar

StartChar: Ldot
Encoding: 319 319 230
Width: 588
GlyphClass: 1
Flags: W
LayerCount: 2
Fore
SplineSet
317 710 m 1,0,-1
 53 710 l 1,1,-1
 53 637 l 1,2,-1
 63 637 l 2,3,4
 88 637 88 637 107.5 630 c 128,-1,5
 127 623 127 623 127 601 c 2,6,-1
 127 109 l 2,7,8
 127 87 127 87 107.5 80 c 128,-1,9
 88 73 88 73 63 73 c 2,10,-1
 53 73 l 1,11,-1
 53 0 l 1,12,-1
 541 0 l 1,13,-1
 541 221 l 1,14,-1
 468 221 l 1,15,-1
 455 116 l 2,16,17
 453 98 453 98 441.5 88 c 128,-1,18
 430 78 430 78 407 74.5 c 128,-1,19
 384 71 384 71 347 71 c 2,20,-1
 225 71 l 1,21,-1
 225 601 l 2,22,23
 225 623 225 623 247 630 c 128,-1,24
 269 637 269 637 303 637 c 2,25,-1
 317 637 l 1,26,-1
 317 710 l 1,0,-1
484 347 m 0,27,28
 447 347 447 347 422.5 370.5 c 128,-1,29
 398 394 398 394 398 432 c 0,30,31
 398 471 398 471 422.5 493.5 c 128,-1,32
 447 516 447 516 484 516 c 0,33,34
 522 516 522 516 546.5 493.5 c 128,-1,35
 571 471 571 471 571 432 c 0,36,37
 571 394 571 394 547 370.5 c 128,-1,38
 523 347 523 347 484 347 c 0,27,28
EndSplineSet
Ligature2: "Ligature Substitution lookup 5 subtable" L periodcentered
EndChar

StartChar: Lslash
Encoding: 321 321 231
Width: 588
GlyphClass: 1
Flags: W
LayerCount: 2
Fore
SplineSet
27 183 m 1,0,-1
 458 473 l 1,1,-1
 458 552 l 1,2,-1
 27 262 l 1,3,-1
 27 183 l 1,0,-1
317 710 m 1,4,-1
 53 710 l 1,5,-1
 53 637 l 1,6,-1
 63 637 l 2,7,8
 88 637 88 637 107.5 630 c 128,-1,9
 127 623 127 623 127 601 c 2,10,-1
 127 109 l 2,11,12
 127 87 127 87 107.5 80 c 128,-1,13
 88 73 88 73 63 73 c 2,14,-1
 53 73 l 1,15,-1
 53 0 l 1,16,-1
 541 0 l 1,17,-1
 541 234 l 1,18,-1
 468 234 l 1,19,-1
 455 116 l 2,20,21
 454 98 454 98 442.5 88 c 128,-1,22
 431 78 431 78 407.5 74.5 c 128,-1,23
 384 71 384 71 347 71 c 2,24,-1
 225 71 l 1,25,-1
 225 601 l 2,26,27
 225 623 225 623 247 630 c 128,-1,28
 269 637 269 637 303 637 c 2,29,-1
 317 637 l 1,30,-1
 317 710 l 1,4,-1
EndSplineSet
EndChar

StartChar: Eng
Encoding: 330 330 232
Width: 739
GlyphClass: 1
Flags: W
LayerCount: 2
Fore
SplineSet
623 -24 m 2,0,1
 623 -85 623 -85 606.5 -128.5 c 128,-1,2
 590 -172 590 -172 561 -198.5 c 128,-1,3
 532 -225 532 -225 493.5 -237.5 c 128,-1,4
 455 -250 455 -250 410 -250 c 0,5,6
 374 -250 374 -250 348 -244.5 c 128,-1,7
 322 -239 322 -239 306 -232 c 1,8,-1
 306 -152 l 1,9,10
 318 -157 318 -157 333.5 -162 c 128,-1,11
 349 -167 349 -167 368 -170 c 128,-1,12
 387 -173 387 -173 407 -173 c 0,13,14
 453 -173 453 -173 482.5 -159 c 128,-1,15
 512 -145 512 -145 526.5 -110.5 c 128,-1,16
 541 -76 541 -76 541 -14 c 2,17,-1
 541 56 l 1,18,-1
 561 -39 l 1,19,-1
 175 672 l 1,20,-1
 208 673 l 1,21,-1
 208 83 l 2,22,23
 208 80 208 80 217.5 77.5 c 128,-1,24
 227 75 227 75 241.5 74 c 128,-1,25
 256 73 256 73 270 73 c 2,26,-1
 282 73 l 1,27,-1
 282 0 l 1,28,-1
 53 0 l 1,29,-1
 53 73 l 1,30,-1
 62 73 l 2,31,32
 84 73 84 73 98 76 c 128,-1,33
 112 79 112 79 119.5 87 c 128,-1,34
 127 95 127 95 127 109 c 2,35,-1
 127 601 l 2,36,37
 127 616 127 616 119.5 623.5 c 128,-1,38
 112 631 112 631 98 634 c 128,-1,39
 84 637 84 637 62 637 c 2,40,-1
 53 637 l 1,41,-1
 53 710 l 1,42,-1
 259 710 l 1,43,-1
 597 73 l 1,44,-1
 541 76 l 1,45,-1
 541 627 l 2,46,47
 541 631 541 631 531.5 633 c 128,-1,48
 522 635 522 635 508 636 c 128,-1,49
 494 637 494 637 480 637 c 2,50,-1
 468 637 l 1,51,-1
 468 710 l 1,52,-1
 697 710 l 1,53,-1
 697 637 l 1,54,-1
 688 637 l 2,55,56
 667 637 667 637 652.5 634 c 128,-1,57
 638 631 638 631 630.5 623.5 c 128,-1,58
 623 616 623 616 623 601 c 2,59,-1
 623 -24 l 2,0,1
EndSplineSet
Substitution2: "'ss07' Style Set 7 lookup 67 subtable" Eng.afr
EndChar

StartChar: OE
Encoding: 338 338 233
Width: 964
GlyphClass: 1
Flags: W
LayerCount: 2
Fore
SplineSet
547 398 m 1,0,1
 589 401 589 401 631 403 c 128,-1,2
 673 405 673 405 715 407.5 c 128,-1,3
 757 410 757 410 799 412 c 1,4,-1
 799 318 l 1,5,6
 757 321 757 321 715 323 c 128,-1,7
 673 325 673 325 631 327.5 c 128,-1,8
 589 330 589 330 547 332 c 1,9,-1
 547 398 l 1,0,1
379 71 m 2,10,-1
 467 71 l 1,11,-1
 467 639 l 1,12,-1
 379 639 l 2,13,14
 324 639 324 639 282.5 622.5 c 128,-1,15
 241 606 241 606 213.5 571 c 128,-1,16
 186 536 186 536 172.5 481.5 c 128,-1,17
 159 427 159 427 159 351 c 256,18,19
 159 275 159 275 172.5 221.5 c 128,-1,20
 186 168 186 168 213.5 135 c 128,-1,21
 241 102 241 102 282.5 86.5 c 128,-1,22
 324 71 324 71 379 71 c 2,10,-1
377 0 m 2,23,24
 300 0 300 0 240 21 c 128,-1,25
 180 42 180 42 138.5 85.5 c 128,-1,26
 97 129 97 129 75.5 195 c 128,-1,27
 54 261 54 261 54 351 c 256,28,29
 54 441 54 441 75.5 508 c 128,-1,30
 97 575 97 575 138.5 620 c 128,-1,31
 180 665 180 665 240 687.5 c 128,-1,32
 300 710 300 710 377 710 c 2,33,-1
 884 710 l 1,34,-1
 884 511 l 1,35,-1
 813 511 l 1,36,-1
 802 594 l 2,37,38
 800 612 800 612 791 621.5 c 128,-1,39
 782 631 782 631 762 635 c 128,-1,40
 742 639 742 639 705 639 c 2,41,-1
 565 639 l 1,42,-1
 565 71 l 1,43,-1
 720 71 l 2,44,45
 748 71 748 71 766 73 c 128,-1,46
 784 75 784 75 795 80 c 128,-1,47
 806 85 806 85 811 94 c 128,-1,48
 816 103 816 103 817 116 c 2,49,-1
 830 224 l 1,50,-1
 903 224 l 1,51,-1
 903 0 l 1,52,-1
 377 0 l 2,23,24
EndSplineSet
EndChar

StartChar: Tbar
Encoding: 358 358 234
Width: 649
GlyphClass: 1
Flags: W
LayerCount: 2
Fore
SplineSet
118 342 m 1,0,-1
 529 342 l 1,1,-1
 529 271 l 1,2,-1
 118 271 l 1,3,-1
 118 342 l 1,0,-1
275 109 m 2,4,-1
 275 639 l 1,5,-1
 221 639 l 2,6,7
 184 639 184 639 164.5 633 c 128,-1,8
 145 627 145 627 138 614 c 128,-1,9
 131 601 131 601 128 580 c 2,10,-1
 117 475 l 1,11,-1
 47 475 l 1,12,-1
 47 710 l 1,13,-1
 603 710 l 1,14,-1
 603 475 l 1,15,-1
 532 475 l 1,16,-1
 521 580 l 2,17,18
 519 601 519 601 511.5 614 c 128,-1,19
 504 627 504 627 484.5 633 c 128,-1,20
 465 639 465 639 427 639 c 2,21,-1
 374 639 l 1,22,-1
 374 109 l 2,23,24
 374 87 374 87 396 80 c 128,-1,25
 418 73 418 73 446 73 c 2,26,-1
 464 73 l 1,27,-1
 464 0 l 1,28,-1
 186 0 l 1,29,-1
 186 73 l 1,30,-1
 203 73 l 2,31,32
 231 73 231 73 253 80 c 128,-1,33
 275 87 275 87 275 109 c 2,4,-1
EndSplineSet
EndChar

StartChar: Bhook
Encoding: 385 385 235
Width: 714
GlyphClass: 2
Flags: W
AnchorPoint: "Anchor-1" 386 0 basechar 0
AnchorPoint: "Anchor-0" 357 741 basechar 0
LayerCount: 2
Fore
SplineSet
265 406 m 1,0,-1
 414 406 l 2,1,2
 456 406 456 406 481 419.5 c 128,-1,3
 506 433 506 433 518 460 c 128,-1,4
 530 487 530 487 530 529 c 0,5,6
 530 565 530 565 518.5 589 c 128,-1,7
 507 613 507 613 482 626 c 128,-1,8
 457 639 457 639 415 639 c 2,9,-1
 303 639 l 1,10,-1
 303 71 l 1,11,-1
 423 71 l 2,12,13
 470 71 470 71 499 86 c 128,-1,14
 528 101 528 101 541.5 130 c 128,-1,15
 555 159 555 159 555 202 c 256,16,17
 555 245 555 245 540.5 275.5 c 128,-1,18
 526 306 526 306 494.5 322 c 128,-1,19
 463 338 463 338 413 338 c 2,20,-1
 265 338 l 1,21,-1
 265 406 l 1,0,-1
185 710 m 2,22,-1
 421 710 l 2,23,24
 472 710 472 710 511 699.5 c 128,-1,25
 550 689 550 689 576.5 666.5 c 128,-1,26
 603 644 603 644 617 611 c 128,-1,27
 631 578 631 578 631 533 c 0,28,29
 631 489 631 489 612 453 c 128,-1,30
 593 417 593 417 556 396.5 c 128,-1,31
 519 376 519 376 462 374 c 1,32,-1
 470 389 l 1,33,-1
 470 354 l 1,34,-1
 462 372 l 1,35,36
 526 369 526 369 569.5 346.5 c 128,-1,37
 613 324 613 324 635.5 286.5 c 128,-1,38
 658 249 658 249 658 197 c 0,39,40
 658 147 658 147 643 110 c 128,-1,41
 628 73 628 73 598.5 48.5 c 128,-1,42
 569 24 569 24 527 12 c 128,-1,43
 485 0 485 0 429 0 c 2,44,-1
 131 0 l 1,45,-1
 131 73 l 1,46,-1
 140 73 l 2,47,48
 166 73 166 73 185 80 c 128,-1,49
 204 87 204 87 204 109 c 2,50,-1
 204 639 l 1,51,-1
 187 639 l 2,52,53
 157 639 157 639 137.5 631 c 128,-1,54
 118 623 118 623 108 602 c 128,-1,55
 98 581 98 581 98 541 c 0,56,57
 98 518 98 518 100.5 500 c 128,-1,58
 103 482 103 482 107 468 c 1,59,-1
 11 468 l 1,60,61
 9 480 9 480 7.5 498 c 128,-1,62
 6 516 6 516 6 535 c 0,63,64
 6 597 6 597 26.5 635 c 128,-1,65
 47 673 47 673 86.5 691.5 c 128,-1,66
 126 710 126 710 185 710 c 2,22,-1
EndSplineSet
EndChar

StartChar: Dhook
Encoding: 394 394 236
Width: 783
GlyphClass: 2
Flags: W
AnchorPoint: "Anchor-1" 392 0 basechar 0
AnchorPoint: "Anchor-0" 368 741 basechar 0
LayerCount: 2
Fore
SplineSet
185 710 m 2,0,-1
 396 710 l 2,1,2
 475 710 475 710 537 689 c 128,-1,3
 599 668 599 668 642 624.5 c 128,-1,4
 685 581 685 581 707.5 515 c 128,-1,5
 730 449 730 449 730 359 c 0,6,7
 730 270 730 270 707.5 202.5 c 128,-1,8
 685 135 685 135 642 90 c 128,-1,9
 599 45 599 45 537 22.5 c 128,-1,10
 475 0 475 0 396 0 c 2,11,-1
 131 0 l 1,12,-1
 131 73 l 1,13,-1
 140 73 l 2,14,15
 166 73 166 73 185 80 c 128,-1,16
 204 87 204 87 204 109 c 2,17,-1
 204 639 l 1,18,-1
 187 639 l 2,19,20
 157 639 157 639 137.5 631 c 128,-1,21
 118 623 118 623 108 601.5 c 128,-1,22
 98 580 98 580 98 541 c 0,23,24
 98 518 98 518 100.5 500 c 128,-1,25
 103 482 103 482 107 468 c 1,26,-1
 11 468 l 1,27,28
 9 479 9 479 7.5 497.5 c 128,-1,29
 6 516 6 516 6 535 c 0,30,31
 6 597 6 597 26.5 635 c 128,-1,32
 47 673 47 673 86.5 691.5 c 128,-1,33
 126 710 126 710 185 710 c 2,0,-1
393 639 m 2,34,-1
 303 639 l 1,35,-1
 303 71 l 1,36,-1
 393 71 l 2,37,38
 453 71 453 71 496.5 88.5 c 128,-1,39
 540 106 540 106 568.5 142 c 128,-1,40
 597 178 597 178 611 232 c 128,-1,41
 625 286 625 286 625 359 c 256,42,43
 625 432 625 432 611 485 c 128,-1,44
 597 538 597 538 568.5 572 c 128,-1,45
 540 606 540 606 496.5 622.5 c 128,-1,46
 453 639 453 639 393 639 c 2,34,-1
EndSplineSet
EndChar

StartChar: Schwa
Encoding: 399 399 237
Width: 664
GlyphClass: 1
Flags: W
LayerCount: 2
Fore
SplineSet
319 749 m 0,0,1
 408 749 408 749 473.5 706.5 c 128,-1,2
 539 664 539 664 574.5 580 c 128,-1,3
 610 496 610 496 610 370 c 0,4,5
 610 278 610 278 590 205 c 128,-1,6
 570 132 570 132 532.5 81 c 128,-1,7
 495 30 495 30 442.5 3 c 128,-1,8
 390 -24 390 -24 325 -24 c 0,9,10
 230 -24 230 -24 171 23.5 c 128,-1,11
 112 71 112 71 84.5 164.5 c 128,-1,12
 57 258 57 258 55 397 c 1,13,-1
 549 397 l 1,14,-1
 549 322 l 1,15,-1
 139 322 l 1,16,-1
 159 343 l 1,17,18
 162 262 162 262 173 206 c 128,-1,19
 184 150 184 150 203.5 115.5 c 128,-1,20
 223 81 223 81 253 65.5 c 128,-1,21
 283 50 283 50 326 50 c 0,22,23
 368 50 368 50 401.5 67.5 c 128,-1,24
 435 85 435 85 458 123.5 c 128,-1,25
 481 162 481 162 493 223 c 128,-1,26
 505 284 505 284 505 370 c 0,27,28
 505 459 505 459 492 518.5 c 128,-1,29
 479 578 479 578 454 612.5 c 128,-1,30
 429 647 429 647 394.5 661 c 128,-1,31
 360 675 360 675 318 675 c 0,32,33
 269 675 269 675 233.5 662 c 128,-1,34
 198 649 198 649 170.5 620.5 c 128,-1,35
 143 592 143 592 116 545 c 1,36,-1
 54 588 l 1,37,38
 81 637 81 637 118.5 673 c 128,-1,39
 156 709 156 709 206 729 c 128,-1,40
 256 749 256 749 319 749 c 0,0,1
EndSplineSet
EndChar

StartChar: Khook
Encoding: 408 408 238
Width: 701
GlyphClass: 2
Flags: W
AnchorPoint: "Anchor-1" 358 0 basechar 0
AnchorPoint: "Anchor-0" 399 741 basechar 0
LayerCount: 2
Fore
SplineSet
53 0 m 1,0,-1
 53 73 l 1,1,-1
 63 73 l 2,2,3
 88 73 88 73 107.5 80 c 128,-1,4
 127 87 127 87 127 109 c 2,5,-1
 127 601 l 2,6,7
 127 623 127 623 107.5 630 c 128,-1,8
 88 637 88 637 63 637 c 2,9,-1
 53 637 l 1,10,-1
 53 710 l 1,11,-1
 303 710 l 1,12,-1
 303 637 l 1,13,-1
 295 637 l 2,14,15
 284 637 284 637 271.5 636.5 c 128,-1,16
 259 636 259 636 248.5 634.5 c 128,-1,17
 238 633 238 633 231.5 632 c 128,-1,18
 225 631 225 631 225 628 c 2,19,-1
 225 83 l 2,20,21
 225 80 225 80 231.5 78.5 c 128,-1,22
 238 77 238 77 248.5 75.5 c 128,-1,23
 259 74 259 74 271.5 73.5 c 128,-1,24
 284 73 284 73 294 73 c 2,25,-1
 301 73 l 1,26,-1
 301 0 l 1,27,-1
 53 0 l 1,0,-1
621 719 m 0,28,29
 652 719 652 719 671.5 705 c 128,-1,30
 691 691 691 691 700.5 664.5 c 128,-1,31
 710 638 710 638 710 601 c 0,32,33
 710 561 710 561 704.5 524.5 c 128,-1,34
 699 488 699 488 691 468 c 1,35,-1
 601 468 l 1,36,37
 607 480 607 480 612 501 c 128,-1,38
 617 522 617 522 620 547.5 c 128,-1,39
 623 573 623 573 623 596 c 0,40,41
 623 615 623 615 617 623.5 c 128,-1,42
 611 632 611 632 598 632 c 0,43,44
 589 632 589 632 578.5 624.5 c 128,-1,45
 568 617 568 617 547.5 594 c 128,-1,46
 527 571 527 571 486 523 c 2,47,-1
 343 354 l 1,48,-1
 346 396 l 1,49,-1
 596 95 l 2,50,51
 604 85 604 85 613.5 80.5 c 128,-1,52
 623 76 623 76 633.5 74.5 c 128,-1,53
 644 73 644 73 655 73 c 2,54,-1
 675 73 l 1,55,-1
 675 0 l 1,56,-1
 408 0 l 1,57,-1
 408 73 l 1,58,-1
 415 73 l 2,59,60
 433 73 433 73 449 74 c 128,-1,61
 465 75 465 75 475 77.5 c 128,-1,62
 485 80 485 80 485 83 c 2,63,-1
 267 347 l 1,64,-1
 267 371 l 1,65,-1
 438 572 l 2,66,67
 478 619 478 619 504 647.5 c 128,-1,68
 530 676 530 676 549 692 c 128,-1,69
 568 708 568 708 585 713.5 c 128,-1,70
 602 719 602 719 621 719 c 0,28,29
EndSplineSet
EndChar

StartChar: Yhook
Encoding: 435 435 239
Width: 670
GlyphClass: 2
Flags: W
AnchorPoint: "Anchor-1" 315 0 basechar 0
AnchorPoint: "Anchor-0" 342 741 basechar 0
LayerCount: 2
Fore
SplineSet
444 572 m 2,0,1
 473 631 473 631 495.5 662.5 c 128,-1,2
 518 694 518 694 540.5 706.5 c 128,-1,3
 563 719 563 719 593 719 c 0,4,5
 628 719 628 719 649 703 c 128,-1,6
 670 687 670 687 679.5 659 c 128,-1,7
 689 631 689 631 689 593 c 0,8,9
 689 557 689 557 683.5 521.5 c 128,-1,10
 678 486 678 486 671 468 c 1,11,-1
 581 468 l 1,12,13
 586 480 586 480 591 499.5 c 128,-1,14
 596 519 596 519 599.5 542.5 c 128,-1,15
 603 566 603 566 603 590 c 0,16,17
 603 611 603 611 597.5 621.5 c 128,-1,18
 592 632 592 632 579 632 c 0,19,20
 568 632 568 632 559 623.5 c 128,-1,21
 550 615 550 615 537.5 594 c 128,-1,22
 525 573 525 573 505 533 c 2,23,-1
 360 262 l 1,24,-1
 366 298 l 1,25,-1
 366 109 l 2,26,27
 366 87 366 87 387 80 c 128,-1,28
 408 73 408 73 437 73 c 2,29,-1
 455 73 l 1,30,-1
 455 0 l 1,31,-1
 179 0 l 1,32,-1
 179 73 l 1,33,-1
 197 73 l 2,34,35
 227 73 227 73 247.5 80 c 128,-1,36
 268 87 268 87 268 109 c 2,37,-1
 268 298 l 1,38,-1
 274 262 l 1,39,-1
 91 594 l 2,40,41
 82 611 82 611 73.5 620.5 c 128,-1,42
 65 630 65 630 56 633.5 c 128,-1,43
 47 637 47 637 35 637 c 2,44,-1
 24 637 l 1,45,-1
 24 710 l 1,46,-1
 251 710 l 1,47,-1
 251 637 l 1,48,-1
 238 637 l 2,49,50
 223 637 223 637 209 635.5 c 128,-1,51
 195 634 195 634 186 632 c 128,-1,52
 177 630 177 630 177 626 c 2,53,-1
 353 300 l 1,54,-1
 305 300 l 1,55,-1
 444 572 l 2,0,1
EndSplineSet
EndChar

StartChar: Germandbls
Encoding: 7838 7838 240
Width: 778
GlyphClass: 1
Flags: W
LayerCount: 2
Fore
SplineSet
536 56 m 0,0,1
 573 56 573 56 592.5 69 c 128,-1,2
 612 82 612 82 619 110 c 128,-1,3
 626 138 626 138 626 184 c 0,4,5
 626 229 626 229 616 257 c 128,-1,6
 606 285 606 285 583.5 303 c 128,-1,7
 561 321 561 321 524.5 335 c 128,-1,8
 488 349 488 349 436 367 c 1,9,-1
 436 439 l 1,10,-1
 570 677 l 1,11,-1
 596 635 l 1,12,-1
 356 635 l 2,13,14
 317 635 317 635 291 624.5 c 128,-1,15
 265 614 265 614 249.5 593 c 128,-1,16
 234 572 234 572 227 541.5 c 128,-1,17
 220 511 220 511 220 470 c 2,18,-1
 220 0 l 1,19,-1
 44 0 l 1,20,-1
 44 73 l 1,21,-1
 53 73 l 2,22,23
 85 73 85 73 103.5 80 c 128,-1,24
 122 87 122 87 122 109 c 2,25,-1
 122 463 l 2,26,27
 122 523 122 523 134 569 c 128,-1,28
 146 615 146 615 172.5 646.5 c 128,-1,29
 199 678 199 678 242 694 c 128,-1,30
 285 710 285 710 348 710 c 2,31,-1
 647 710 l 1,32,-1
 647 640 l 1,33,-1
 514 398 l 1,34,-1
 482 420 l 1,35,36
 536 403 536 403 580.5 386 c 128,-1,37
 625 369 625 369 657 345 c 128,-1,38
 689 321 689 321 707 283 c 128,-1,39
 725 245 725 245 725 187 c 0,40,41
 725 125 725 125 706 80 c 128,-1,42
 687 35 687 35 647 10.5 c 128,-1,43
 607 -14 607 -14 545 -14 c 0,44,45
 490 -14 490 -14 454 8 c 128,-1,46
 418 30 418 30 400 75 c 128,-1,47
 382 120 382 120 378 190 c 1,48,-1
 394 152 l 1,49,-1
 382 0 l 1,50,-1
 314 0 l 1,51,-1
 314 231 l 1,52,-1
 390 231 l 1,53,54
 401 191 401 191 411.5 159 c 128,-1,55
 422 127 422 127 437.5 104 c 128,-1,56
 453 81 453 81 476.5 68.5 c 128,-1,57
 500 56 500 56 536 56 c 0,0,1
EndSplineSet
EndChar

StartChar: Delta
Encoding: 916 916 241
Width: 676
GlyphClass: 1
Flags: W
LayerCount: 2
Fore
SplineSet
48 0 m 1,0,-1
 48 85 l 1,1,-1
 285 710 l 1,2,-1
 391 710 l 1,3,-1
 628 85 l 1,4,-1
 628 0 l 1,5,-1
 48 0 l 1,0,-1
542 56 m 1,6,-1
 301 700 l 1,7,-1
 356 695 l 1,8,-1
 114 51 l 1,9,-1
 75 87 l 1,10,-1
 575 87 l 1,11,-1
 542 56 l 1,6,-1
EndSplineSet
EndChar

StartChar: Omega
Encoding: 937 937 242
Width: 775
GlyphClass: 1
Flags: W
LayerCount: 2
Fore
SplineSet
387 735 m 0,0,1
 321 735 321 735 267.5 718.5 c 128,-1,2
 214 702 214 702 175.5 669 c 128,-1,3
 137 636 137 636 116.5 586 c 128,-1,4
 96 536 96 536 96 469 c 0,5,6
 96 431 96 431 102.5 395.5 c 128,-1,7
 109 360 109 360 124 322.5 c 128,-1,8
 139 285 139 285 163 244 c 128,-1,9
 187 203 187 203 222 156 c 128,-1,10
 257 109 257 109 304 53 c 1,11,-1
 311 71 l 1,12,-1
 220 71 l 2,13,14
 184 71 184 71 164.5 75 c 128,-1,15
 145 79 145 79 137 89.5 c 128,-1,16
 129 100 129 100 127 117 c 2,17,-1
 115 215 l 1,18,-1
 44 215 l 1,19,-1
 44 0 l 1,20,-1
 347 0 l 1,21,-1
 347 116 l 1,22,23
 309 163 309 163 281.5 205 c 128,-1,24
 254 247 254 247 236 287 c 128,-1,25
 218 327 218 327 209.5 369 c 128,-1,26
 201 411 201 411 201 459 c 0,27,28
 201 532 201 532 221.5 577 c 128,-1,29
 242 622 242 622 283.5 642.5 c 128,-1,30
 325 663 325 663 387 663 c 0,31,32
 450 663 450 663 491 642.5 c 128,-1,33
 532 622 532 622 553 577 c 128,-1,34
 574 532 574 532 574 459 c 0,35,36
 574 411 574 411 565.5 369 c 128,-1,37
 557 327 557 327 539 287 c 128,-1,38
 521 247 521 247 493.5 205 c 128,-1,39
 466 163 466 163 429 116 c 1,40,-1
 429 0 l 1,41,-1
 731 0 l 1,42,-1
 731 215 l 1,43,-1
 661 215 l 1,44,-1
 649 117 l 2,45,46
 646 99 646 99 637.5 88.5 c 128,-1,47
 629 78 629 78 609 74.5 c 128,-1,48
 589 71 589 71 552 71 c 2,49,-1
 463 71 l 1,50,-1
 472 53 l 1,51,52
 519 109 519 109 554 156 c 128,-1,53
 589 203 589 203 613 244 c 128,-1,54
 637 285 637 285 651.5 322.5 c 128,-1,55
 666 360 666 360 672.5 395.5 c 128,-1,56
 679 431 679 431 679 469 c 0,57,58
 679 536 679 536 658.5 586 c 128,-1,59
 638 636 638 636 599.5 669 c 128,-1,60
 561 702 561 702 507.5 718.5 c 128,-1,61
 454 735 454 735 387 735 c 0,0,1
EndSplineSet
EndChar

StartChar: Djecyr
Encoding: 1026 1026 244
Width: 795
GlyphClass: 2
Flags: W
AnchorPoint: "Anchor-0" 310 741 basechar 0
LayerCount: 2
Fore
SplineSet
743 199 m 0,0,1
 743 146 743 146 728 104 c 128,-1,2
 713 62 713 62 685 33.5 c 128,-1,3
 657 5 657 5 617 -9.5 c 128,-1,4
 577 -24 577 -24 527 -24 c 1,5,-1
 527 49 l 1,6,7
 563 49 563 49 588.5 64.5 c 128,-1,8
 614 80 614 80 627 113 c 128,-1,9
 640 146 640 146 640 199 c 0,10,11
 640 270 640 270 604 308.5 c 128,-1,12
 568 347 568 347 501 347 c 0,13,14
 454 347 454 347 412 336.5 c 128,-1,15
 370 326 370 326 329 303 c 1,16,-1
 329 377 l 1,17,18
 370 398 370 398 412.5 408.5 c 128,-1,19
 455 419 455 419 505 419 c 0,20,21
 587 419 587 419 639.5 391.5 c 128,-1,22
 692 364 692 364 717.5 315 c 128,-1,23
 743 266 743 266 743 199 c 0,0,1
173 0 m 1,24,-1
 173 73 l 1,25,-1
 190 73 l 2,26,27
 219 73 219 73 240.5 80 c 128,-1,28
 262 87 262 87 262 109 c 2,29,-1
 262 639 l 1,30,-1
 221 639 l 2,31,32
 184 639 184 639 164.5 633 c 128,-1,33
 145 627 145 627 138 614 c 128,-1,34
 131 601 131 601 128 580 c 2,35,-1
 117 475 l 1,36,-1
 47 475 l 1,37,-1
 47 710 l 1,38,-1
 606 710 l 1,39,-1
 606 491 l 1,40,-1
 536 491 l 1,41,-1
 525 580 l 2,42,43
 522 601 522 601 514.5 614 c 128,-1,44
 507 627 507 627 488 633 c 128,-1,45
 469 639 469 639 431 639 c 2,46,-1
 361 639 l 1,47,-1
 361 83 l 2,48,49
 361 80 361 80 372 77.5 c 128,-1,50
 383 75 383 75 399 74 c 128,-1,51
 415 73 415 73 430 73 c 2,52,-1
 445 73 l 1,53,-1
 445 0 l 1,54,-1
 173 0 l 1,24,-1
EndSplineSet
EndChar

StartChar: Eukrcyr
Encoding: 1028 1028 245
Width: 681
GlyphClass: 2
Flags: W
AnchorPoint: "Anchor-1" 354 0 basechar 0
AnchorPoint: "Anchor-0" 354 741 basechar 0
LayerCount: 2
Fore
SplineSet
133 398 m 1,0,1
 159 399 159 399 184.5 400 c 128,-1,2
 210 401 210 401 236 402.5 c 128,-1,3
 262 404 262 404 288 405 c 128,-1,4
 314 406 314 406 339.5 407.5 c 128,-1,5
 365 409 365 409 390.5 410 c 128,-1,6
 416 411 416 411 443 412 c 1,7,-1
 443 318 l 1,8,9
 417 319 417 319 391 320.5 c 128,-1,10
 365 322 365 322 339.5 323 c 128,-1,11
 314 324 314 324 288 325.5 c 128,-1,12
 262 327 262 327 236 328 c 128,-1,13
 210 329 210 329 184.5 330 c 128,-1,14
 159 331 159 331 133 332 c 1,15,-1
 133 398 l 1,0,1
347 661 m 0,16,17
 299 661 299 661 263.5 643 c 128,-1,18
 228 625 228 625 205 588 c 128,-1,19
 182 551 182 551 170.5 493 c 128,-1,20
 159 435 159 435 159 357 c 0,21,22
 159 278 159 278 170.5 219.5 c 128,-1,23
 182 161 182 161 206.5 123 c 128,-1,24
 231 85 231 85 268 66.5 c 128,-1,25
 305 48 305 48 357 48 c 0,26,27
 418 48 418 48 457 74.5 c 128,-1,28
 496 101 496 101 520 142.5 c 128,-1,29
 544 184 544 184 558 229 c 1,30,-1
 626 202 l 1,31,32
 606 133 606 133 569 82.5 c 128,-1,33
 532 32 532 32 478 4 c 128,-1,34
 424 -24 424 -24 352 -24 c 0,35,36
 284 -24 284 -24 229 0 c 128,-1,37
 174 24 174 24 135 72 c 128,-1,38
 96 120 96 120 75 191 c 128,-1,39
 54 262 54 262 54 356 c 256,40,41
 54 450 54 450 75 520.5 c 128,-1,42
 96 591 96 591 135 638.5 c 128,-1,43
 174 686 174 686 227.5 710 c 128,-1,44
 281 734 281 734 345 734 c 0,45,46
 403 734 403 734 447 708 c 128,-1,47
 491 682 491 682 517.5 630.5 c 128,-1,48
 544 579 544 579 551 503 c 1,49,-1
 530 538 l 1,50,-1
 543 720 l 1,51,-1
 616 720 l 1,52,-1
 616 469 l 1,53,-1
 536 469 l 1,54,55
 519 529 519 529 493.5 572 c 128,-1,56
 468 615 468 615 432 638 c 128,-1,57
 396 661 396 661 347 661 c 0,16,17
EndSplineSet
Substitution2: "'ss01' Style Set 1 lookup 61 subtable" Ieukran.alt1
EndChar

StartChar: Yukrcyr
Encoding: 1031 1031 248
Width: 371
GlyphClass: 2
Flags: W
AnchorPoint: "Anchor-1" 186 0 basechar 0
AnchorPoint: "Anchor-0" 186 914 basechar 0
LayerCount: 2
Fore
SplineSet
161 858 m 0,0,1
 161 821 161 821 142 806 c 128,-1,2
 123 791 123 791 92 791 c 0,3,4
 62 791 62 791 43.5 806 c 128,-1,5
 25 821 25 821 25 858 c 0,6,7
 25 893 25 893 43.5 908.5 c 128,-1,8
 62 924 62 924 92 924 c 0,9,10
 123 924 123 924 142 908.5 c 128,-1,11
 161 893 161 893 161 858 c 0,0,1
346 858 m 0,12,13
 346 821 346 821 327.5 806 c 128,-1,14
 309 791 309 791 278 791 c 0,15,16
 248 791 248 791 229.5 806 c 128,-1,17
 211 821 211 821 211 858 c 0,18,19
 211 893 211 893 229.5 908.5 c 128,-1,20
 248 924 248 924 278 924 c 0,21,22
 309 924 309 924 327.5 908.5 c 128,-1,23
 346 893 346 893 346 858 c 0,12,13
137 109 m 2,24,-1
 137 601 l 2,25,26
 137 623 137 623 117 630 c 128,-1,27
 97 637 97 637 68 637 c 2,28,-1
 51 637 l 1,29,-1
 51 710 l 1,30,-1
 320 710 l 1,31,-1
 320 637 l 1,32,-1
 303 637 l 2,33,34
 275 637 275 637 255 630 c 128,-1,35
 235 623 235 623 235 601 c 2,36,-1
 235 109 l 2,37,38
 235 87 235 87 255 80 c 128,-1,39
 275 73 275 73 303 73 c 2,40,-1
 320 73 l 1,41,-1
 320 0 l 1,42,-1
 51 0 l 1,43,-1
 51 73 l 1,44,-1
 68 73 l 2,45,46
 97 73 97 73 117 80 c 128,-1,47
 137 87 137 87 137 109 c 2,24,-1
EndSplineSet
EndChar

StartChar: Ljecyr
Encoding: 1033 1033 250
Width: 959
GlyphClass: 2
Flags: W
AnchorPoint: "Anchor-0" 383 741 basechar 0
LayerCount: 2
Fore
SplineSet
226 710 m 1,0,-1
 520 710 l 1,1,-1
 520 636 l 1,2,-1
 226 636 l 1,3,-1
 226 710 l 1,0,-1
162 273 m 2,4,-1
 185 601 l 2,5,6
 187 623 187 623 168.5 630 c 128,-1,7
 150 637 150 637 124 637 c 2,8,-1
 115 637 l 1,9,-1
 115 710 l 1,10,-1
 274 710 l 1,11,-1
 244 269 l 2,12,13
 238 167 238 167 216 104.5 c 128,-1,14
 194 42 194 42 158 13.5 c 128,-1,15
 122 -15 122 -15 70 -15 c 0,16,17
 53 -15 53 -15 38 -11 c 128,-1,18
 23 -7 23 -7 11 0 c 1,19,-1
 11 92 l 1,20,21
 22 86 22 86 36 81.5 c 128,-1,22
 50 77 50 77 66 77 c 0,23,24
 94 77 94 77 113 96.5 c 128,-1,25
 132 116 132 116 145 159 c 128,-1,26
 158 202 158 202 162 273 c 2,4,-1
685 0 m 2,27,-1
 395 0 l 1,28,-1
 395 73 l 1,29,-1
 403 73 l 2,30,31
 419 73 419 73 435 74 c 128,-1,32
 451 75 451 75 461.5 77 c 128,-1,33
 472 79 472 79 472 83 c 2,34,-1
 472 710 l 1,35,-1
 651 710 l 1,36,-1
 651 637 l 1,37,-1
 633 637 l 2,38,39
 609 637 609 637 589.5 630 c 128,-1,40
 570 623 570 623 570 601 c 2,41,-1
 570 71 l 1,42,-1
 682 71 l 2,43,44
 725 71 725 71 753 87.5 c 128,-1,45
 781 104 781 104 795 136 c 128,-1,46
 809 168 809 168 809 215 c 0,47,48
 809 264 809 264 795 296.5 c 128,-1,49
 781 329 781 329 753 345.5 c 128,-1,50
 725 362 725 362 682 362 c 2,51,-1
 523 362 l 1,52,-1
 523 433 l 1,53,-1
 685 433 l 2,54,55
 754 433 754 433 804.5 409.5 c 128,-1,56
 855 386 855 386 883.5 337.5 c 128,-1,57
 912 289 912 289 912 215 c 0,58,59
 912 147 912 147 882.5 98.5 c 128,-1,60
 853 50 853 50 802 25 c 128,-1,61
 751 0 751 0 685 0 c 2,27,-1
EndSplineSet
EndChar

StartChar: Njecyr
Encoding: 1034 1034 251
Width: 993
GlyphClass: 2
Flags: W
AnchorPoint: "Anchor-0" 367 741 basechar 0
LayerCount: 2
Fore
SplineSet
200 425 m 1,0,-1
 532 425 l 1,1,-1
 532 354 l 1,2,-1
 200 354 l 1,3,-1
 200 425 l 1,0,-1
53 0 m 1,4,-1
 53 73 l 1,5,-1
 63 73 l 2,6,7
 88 73 88 73 107.5 80 c 128,-1,8
 127 87 127 87 127 109 c 2,9,-1
 127 601 l 2,10,11
 127 623 127 623 107.5 630 c 128,-1,12
 88 637 88 637 63 637 c 2,13,-1
 53 637 l 1,14,-1
 53 710 l 1,15,-1
 306 710 l 1,16,-1
 306 637 l 1,17,-1
 298 637 l 2,18,19
 283 637 283 637 265.5 636 c 128,-1,20
 248 635 248 635 236.5 633 c 128,-1,21
 225 631 225 631 225 628 c 2,22,-1
 225 82 l 2,23,24
 225 79 225 79 236.5 77 c 128,-1,25
 248 75 248 75 265.5 74 c 128,-1,26
 283 73 283 73 298 73 c 2,27,-1
 306 73 l 1,28,-1
 306 0 l 1,29,-1
 53 0 l 1,4,-1
429 0 m 1,30,-1
 429 73 l 1,31,-1
 437 73 l 2,32,33
 452 73 452 73 467.5 74 c 128,-1,34
 483 75 483 75 494.5 77.5 c 128,-1,35
 506 80 506 80 506 82 c 2,36,-1
 506 628 l 2,37,38
 506 631 506 631 494.5 633 c 128,-1,39
 483 635 483 635 467.5 636 c 128,-1,40
 452 637 452 637 437 637 c 2,41,-1
 429 637 l 1,42,-1
 429 710 l 1,43,-1
 688 710 l 1,44,-1
 688 637 l 1,45,-1
 672 637 l 2,46,47
 655 637 655 637 639 634 c 128,-1,48
 623 631 623 631 613.5 623.5 c 128,-1,49
 604 616 604 616 604 601 c 2,50,-1
 604 71 l 1,51,-1
 716 71 l 2,52,53
 756 71 756 71 784.5 86.5 c 128,-1,54
 813 102 813 102 828 133.5 c 128,-1,55
 843 165 843 165 843 210 c 0,56,57
 843 258 843 258 827.5 290 c 128,-1,58
 812 322 812 322 784 338 c 128,-1,59
 756 354 756 354 716 354 c 2,60,-1
 561 354 l 1,61,-1
 561 425 l 1,62,-1
 719 425 l 2,63,64
 788 425 788 425 838.5 401 c 128,-1,65
 889 377 889 377 917.5 329 c 128,-1,66
 946 281 946 281 946 210 c 0,67,68
 946 143 946 143 916.5 96 c 128,-1,69
 887 49 887 49 835.5 24.5 c 128,-1,70
 784 0 784 0 719 0 c 2,71,-1
 429 0 l 1,30,-1
EndSplineSet
EndChar

StartChar: Tshecyr
Encoding: 1035 1035 252
Width: 837
GlyphClass: 2
Flags: W
AnchorPoint: "Anchor-0" 301 741 basechar 0
LayerCount: 2
Fore
SplineSet
508 419 m 0,0,1
 589 419 589 419 638 398 c 128,-1,2
 687 377 687 377 708.5 333 c 128,-1,3
 730 289 730 289 730 220 c 2,4,-1
 730 109 l 2,5,6
 730 87 730 87 748.5 80 c 128,-1,7
 767 73 767 73 794 73 c 2,8,-1
 804 73 l 1,9,-1
 804 0 l 1,10,-1
 632 0 l 1,11,-1
 632 215 l 2,12,13
 632 264 632 264 616.5 292.5 c 128,-1,14
 601 321 601 321 572 333 c 128,-1,15
 543 345 543 345 504 345 c 0,16,17
 461 345 461 345 414.5 336 c 128,-1,18
 368 327 368 327 329 303 c 1,19,-1
 329 378 l 1,20,21
 370 399 370 399 416 409 c 128,-1,22
 462 419 462 419 508 419 c 0,0,1
173 0 m 1,23,-1
 173 73 l 1,24,-1
 190 73 l 2,25,26
 219 73 219 73 240.5 80 c 128,-1,27
 262 87 262 87 262 109 c 2,28,-1
 262 639 l 1,29,-1
 221 639 l 2,30,31
 184 639 184 639 164.5 633 c 128,-1,32
 145 627 145 627 138 614 c 128,-1,33
 131 601 131 601 128 580 c 2,34,-1
 117 475 l 1,35,-1
 47 475 l 1,36,-1
 47 710 l 1,37,-1
 606 710 l 1,38,-1
 606 491 l 1,39,-1
 536 491 l 1,40,-1
 525 580 l 2,41,42
 522 601 522 601 515 614 c 128,-1,43
 508 627 508 627 488.5 633 c 128,-1,44
 469 639 469 639 431 639 c 2,45,-1
 361 639 l 1,46,-1
 361 83 l 2,47,48
 361 80 361 80 372.5 77.5 c 128,-1,49
 384 75 384 75 401 74 c 128,-1,50
 418 73 418 73 434 73 c 2,51,-1
 451 73 l 1,52,-1
 451 0 l 1,53,-1
 173 0 l 1,23,-1
EndSplineSet
EndChar

StartChar: Dzhecyr
Encoding: 1039 1039 253
Width: 757
GlyphClass: 2
Flags: W
AnchorPoint: "Anchor-0" 379 741 basechar 0
LayerCount: 2
Fore
SplineSet
53 710 m 1,0,-1
 306 710 l 1,1,-1
 306 637 l 1,2,-1
 298 637 l 2,3,4
 282 637 282 637 265.5 636 c 128,-1,5
 249 635 249 635 237 633 c 128,-1,6
 225 631 225 631 225 628 c 2,7,-1
 225 0 l 1,8,-1
 53 0 l 1,9,-1
 53 73 l 1,10,-1
 63 73 l 2,11,12
 88 73 88 73 107.5 80 c 128,-1,13
 127 87 127 87 127 109 c 2,14,-1
 127 601 l 2,15,16
 127 623 127 623 107.5 630 c 128,-1,17
 88 637 88 637 63 637 c 2,18,-1
 53 637 l 1,19,-1
 53 710 l 1,0,-1
451 710 m 1,20,-1
 704 710 l 1,21,-1
 704 637 l 1,22,-1
 695 637 l 2,23,24
 670 637 670 637 650 630 c 128,-1,25
 630 623 630 623 630 601 c 2,26,-1
 630 109 l 2,27,28
 630 87 630 87 650 80 c 128,-1,29
 670 73 670 73 695 73 c 2,30,-1
 704 73 l 1,31,-1
 704 0 l 1,32,-1
 532 0 l 1,33,-1
 532 628 l 2,34,35
 532 631 532 631 520.5 633 c 128,-1,36
 509 635 509 635 492 636 c 128,-1,37
 475 637 475 637 459 637 c 2,38,-1
 451 637 l 1,39,-1
 451 710 l 1,20,-1
176 0 m 1,40,-1
 176 74 l 1,41,-1
 581 74 l 1,42,-1
 581 0 l 1,43,-1
 541 0 l 2,44,45
 499 0 499 0 474.5 -5.5 c 128,-1,46
 450 -11 450 -11 438.5 -22.5 c 128,-1,47
 427 -34 427 -34 425 -55 c 2,48,-1
 414 -182 l 1,49,-1
 344 -182 l 1,50,-1
 332 -55 l 2,51,52
 331 -35 331 -35 319 -23 c 128,-1,53
 307 -11 307 -11 282.5 -5.5 c 128,-1,54
 258 0 258 0 216 0 c 2,55,-1
 176 0 l 1,40,-1
EndSplineSet
EndChar

StartChar: Becyr
Encoding: 1041 1041 257
Width: 622
GlyphClass: 2
Flags: W
AnchorPoint: "Anchor-0" 318 741 basechar 0
LayerCount: 2
Fore
SplineSet
53 710 m 1,0,-1
 529 710 l 1,1,-1
 529 510 l 1,2,-1
 458 510 l 1,3,-1
 446 594 l 2,4,5
 444 612 444 612 432.5 621.5 c 128,-1,6
 421 631 421 631 398 635 c 128,-1,7
 375 639 375 639 339 639 c 2,8,-1
 226 639 l 1,9,-1
 226 71 l 1,10,-1
 340 71 l 2,11,12
 383 71 383 71 411 86.5 c 128,-1,13
 439 102 439 102 453 133 c 128,-1,14
 467 164 467 164 467 210 c 0,15,16
 467 257 467 257 453 288.5 c 128,-1,17
 439 320 439 320 411 336 c 128,-1,18
 383 352 383 352 340 352 c 2,19,-1
 171 352 l 1,20,-1
 171 423 l 1,21,-1
 344 423 l 2,22,23
 412 423 412 423 463 400 c 128,-1,24
 514 377 514 377 542.5 330 c 128,-1,25
 571 283 571 283 571 210 c 0,26,27
 571 143 571 143 541 96 c 128,-1,28
 511 49 511 49 460 24.5 c 128,-1,29
 409 0 409 0 344 0 c 2,30,-1
 53 0 l 1,31,-1
 53 73 l 1,32,-1
 63 73 l 2,33,34
 88 73 88 73 107.5 80 c 128,-1,35
 127 87 127 87 127 109 c 2,36,-1
 127 603 l 2,37,38
 127 623 127 623 107.5 630 c 128,-1,39
 88 637 88 637 63 637 c 2,40,-1
 53 637 l 1,41,-1
 53 710 l 1,0,-1
EndSplineSet
EndChar

StartChar: Gecyr
Encoding: 1043 1043 259
Width: 588
GlyphClass: 2
Flags: W
AnchorPoint: "Anchor-0" 300 741 basechar 0
LayerCount: 2
Fore
SplineSet
225 639 m 1,0,-1
 225 109 l 2,1,2
 225 95 225 95 235.5 87 c 128,-1,3
 246 79 246 79 264.5 76 c 128,-1,4
 283 73 283 73 305 73 c 2,5,-1
 323 73 l 1,6,-1
 323 0 l 1,7,-1
 53 0 l 1,8,-1
 53 73 l 1,9,-1
 63 73 l 2,10,11
 88 73 88 73 107.5 80 c 128,-1,12
 127 87 127 87 127 109 c 2,13,-1
 127 601 l 2,14,15
 127 623 127 623 107.5 630 c 128,-1,16
 88 637 88 637 63 637 c 2,17,-1
 53 637 l 1,18,-1
 53 710 l 1,19,-1
 541 710 l 1,20,-1
 541 475 l 1,21,-1
 471 475 l 1,22,-1
 460 580 l 2,23,24
 458 603 458 603 447 616 c 128,-1,25
 436 629 436 629 413.5 634 c 128,-1,26
 391 639 391 639 355 639 c 2,27,-1
 225 639 l 1,0,-1
EndSplineSet
EndChar

StartChar: Decyr
Encoding: 1044 1044 261
Width: 743
GlyphClass: 2
Flags: W
AnchorPoint: "Anchor-0" 401 741 basechar 0
LayerCount: 2
Fore
SplineSet
227 710 m 1,0,-1
 555 710 l 1,1,-1
 555 636 l 1,2,-1
 227 636 l 1,3,-1
 227 710 l 1,0,-1
616 3 m 1,4,-1
 517 3 l 1,5,-1
 517 710 l 1,6,-1
 690 710 l 1,7,-1
 690 637 l 1,8,-1
 680 637 l 2,9,10
 653 637 653 637 634.5 630 c 128,-1,11
 616 623 616 623 616 601 c 2,12,-1
 616 3 l 1,4,-1
618 -55 m 2,13,14
 616 -35 616 -35 604.5 -23 c 128,-1,15
 593 -11 593 -11 568.5 -5.5 c 128,-1,16
 544 0 544 0 502 0 c 2,17,-1
 222 0 l 2,18,19
 180 0 180 0 155.5 -5.5 c 128,-1,20
 131 -11 131 -11 119.5 -23 c 128,-1,21
 108 -35 108 -35 106 -54 c 2,22,-1
 95 -182 l 1,23,-1
 24 -182 l 1,24,-1
 24 74 l 1,25,-1
 700 74 l 1,26,-1
 700 -182 l 1,27,-1
 629 -182 l 1,28,-1
 618 -55 l 2,13,14
161 30 m 1,29,-1
 67 30 l 1,30,31
 88 57 88 57 103.5 86.5 c 128,-1,32
 119 116 119 116 130.5 154 c 128,-1,33
 142 192 142 192 150.5 244 c 128,-1,34
 159 296 159 296 165 367 c 2,35,-1
 184 601 l 2,36,37
 186 623 186 623 168 630 c 128,-1,38
 150 637 150 637 124 637 c 2,39,-1
 114 637 l 1,40,-1
 114 710 l 1,41,-1
 275 710 l 1,42,-1
 247 364 l 2,43,44
 240 272 240 272 228.5 210 c 128,-1,45
 217 148 217 148 200.5 105.5 c 128,-1,46
 184 63 184 63 161 30 c 1,29,-1
EndSplineSet
Substitution2: "'locl' Localized Forms in Cyrillic lookup 12 subtable" De.bgr
EndChar

StartChar: Zhecyr
Encoding: 1046 1046 266
Width: 1005
GlyphClass: 2
Flags: W
AnchorPoint: "Anchor-1" 492 0 basechar 0
AnchorPoint: "Anchor-0" 492 741 basechar 0
LayerCount: 2
Fore
SplineSet
718 0 m 1,0,-1
 718 73 l 1,1,-1
 725 73 l 2,2,3
 743 73 743 73 759 74 c 128,-1,4
 775 75 775 75 785.5 77.5 c 128,-1,5
 796 80 796 80 796 83 c 2,6,-1
 590 347 l 1,7,-1
 590 371 l 1,8,-1
 806 626 l 2,9,10
 806 630 806 630 796 632 c 128,-1,11
 786 634 786 634 770.5 635.5 c 128,-1,12
 755 637 755 637 739 637 c 2,13,-1
 730 637 l 1,14,-1
 730 710 l 1,15,-1
 960 710 l 1,16,-1
 960 637 l 1,17,-1
 936 637 l 2,18,19
 926 637 926 637 916.5 635 c 128,-1,20
 907 633 907 633 898 626.5 c 128,-1,21
 889 620 889 620 880 609 c 2,22,-1
 663 355 l 1,23,-1
 668 396 l 1,24,-1
 904 95 l 2,25,26
 912 85 912 85 921 80 c 128,-1,27
 930 75 930 75 941 74 c 128,-1,28
 952 73 952 73 964 73 c 2,29,-1
 983 73 l 1,30,-1
 983 0 l 1,31,-1
 718 0 l 1,0,-1
283 0 m 1,32,-1
 22 0 l 1,33,-1
 22 73 l 1,34,-1
 41 73 l 2,35,36
 53 73 53 73 64 74 c 128,-1,37
 75 75 75 75 84 80 c 128,-1,38
 93 85 93 85 101 95 c 2,39,-1
 337 396 l 1,40,-1
 336 354 l 1,41,-1
 120 609 l 2,42,43
 110 620 110 620 101 626.5 c 128,-1,44
 92 633 92 633 83 635 c 128,-1,45
 74 637 74 637 63 637 c 2,46,-1
 40 637 l 1,47,-1
 40 710 l 1,48,-1
 271 710 l 1,49,-1
 271 637 l 1,50,-1
 263 637 l 2,51,52
 246 637 246 637 230.5 635.5 c 128,-1,53
 215 634 215 634 205 632 c 128,-1,54
 195 630 195 630 195 626 c 2,55,-1
 412 371 l 1,56,-1
 412 347 l 1,57,-1
 206 83 l 2,58,59
 206 80 206 80 216.5 77.5 c 128,-1,60
 227 75 227 75 243 74 c 128,-1,61
 259 73 259 73 276 73 c 2,62,-1
 283 73 l 1,63,-1
 283 0 l 1,32,-1
377 0 m 1,64,-1
 377 73 l 1,65,-1
 385 73 l 2,66,67
 395 73 395 73 406.5 73.5 c 128,-1,68
 418 74 418 74 428.5 75.5 c 128,-1,69
 439 77 439 77 445 78.5 c 128,-1,70
 451 80 451 80 451 82 c 2,71,-1
 451 628 l 2,72,73
 451 631 451 631 445 632 c 128,-1,74
 439 633 439 633 428.5 634.5 c 128,-1,75
 418 636 418 636 406 636.5 c 128,-1,76
 394 637 394 637 384 637 c 2,77,-1
 376 637 l 1,78,-1
 376 710 l 1,79,-1
 625 710 l 1,80,-1
 625 638 l 1,81,-1
 618 638 l 2,82,83
 607 638 607 638 595 637 c 128,-1,84
 583 636 583 636 573 634.5 c 128,-1,85
 563 633 563 633 556.5 631.5 c 128,-1,86
 550 630 550 630 550 628 c 2,87,-1
 550 82 l 2,88,89
 550 79 550 79 556 78 c 128,-1,90
 562 77 562 77 572 75.5 c 128,-1,91
 582 74 582 74 594 73.5 c 128,-1,92
 606 73 606 73 617 73 c 2,93,-1
 624 73 l 1,94,-1
 624 0 l 1,95,-1
 377 0 l 1,64,-1
EndSplineSet
EndChar

StartChar: Zecyr
Encoding: 1047 1047 269
Width: 644
GlyphClass: 2
Flags: W
AnchorPoint: "Anchor-1" 348 0 basechar 0
AnchorPoint: "Anchor-0" 348 741 basechar 0
LayerCount: 2
Fore
SplineSet
366 -24 m 0,0,1
 298 -24 298 -24 250 1 c 128,-1,2
 202 26 202 26 175 75.5 c 128,-1,3
 148 125 148 125 141 201 c 1,4,-1
 163 168 l 1,5,-1
 149 -10 l 1,6,-1
 77 -10 l 1,7,-1
 77 235 l 1,8,-1
 157 235 l 1,9,10
 173 177 173 177 200 135.5 c 128,-1,11
 227 94 227 94 266.5 72 c 128,-1,12
 306 50 306 50 360 50 c 0,13,14
 404 50 404 50 431.5 66 c 128,-1,15
 459 82 459 82 472 113 c 128,-1,16
 485 144 485 144 485 189 c 0,17,18
 485 229 485 229 472 260 c 128,-1,19
 459 291 459 291 428 307.5 c 128,-1,20
 397 324 397 324 341 322 c 0,21,22
 328 321 328 321 313 320.5 c 128,-1,23
 298 320 298 320 284 319.5 c 128,-1,24
 270 319 270 319 257 318 c 1,25,-1
 257 411 l 1,26,27
 271 411 271 411 285 410.5 c 128,-1,28
 299 410 299 410 313.5 409.5 c 128,-1,29
 328 409 328 409 342 409 c 0,30,31
 387 408 387 408 413.5 424 c 128,-1,32
 440 440 440 440 451.5 470 c 128,-1,33
 463 500 463 500 463 540 c 0,34,35
 463 576 463 576 452.5 603 c 128,-1,36
 442 630 442 630 419.5 645.5 c 128,-1,37
 397 661 397 661 358 661 c 0,38,39
 309 661 309 661 272 640.5 c 128,-1,40
 235 620 235 620 209 578.5 c 128,-1,41
 183 537 183 537 167 475 c 1,42,-1
 87 475 l 1,43,-1
 87 720 l 1,44,-1
 159 720 l 1,45,-1
 173 542 l 1,46,-1
 151 509 l 1,47,48
 156 565 156 565 172.5 607 c 128,-1,49
 189 649 189 649 216.5 677 c 128,-1,50
 244 705 244 705 280.5 719.5 c 128,-1,51
 317 734 317 734 362 734 c 0,52,53
 429 734 429 734 474 710 c 128,-1,54
 519 686 519 686 542 644.5 c 128,-1,55
 565 603 565 603 565 549 c 0,56,57
 565 496 565 496 541.5 457.5 c 128,-1,58
 518 419 518 419 479 397 c 128,-1,59
 440 375 440 375 393 370 c 1,60,-1
 400 390 l 1,61,-1
 400 344 l 1,62,-1
 393 368 l 1,63,64
 453 365 453 365 496.5 342.5 c 128,-1,65
 540 320 540 320 563.5 281 c 128,-1,66
 587 242 587 242 587 188 c 0,67,68
 587 140 587 140 572.5 101 c 128,-1,69
 558 62 558 62 530 34 c 128,-1,70
 502 6 502 6 460.5 -9 c 128,-1,71
 419 -24 419 -24 366 -24 c 0,0,1
EndSplineSet
EndChar

StartChar: Icyr
Encoding: 1048 1048 270
Width: 777
GlyphClass: 2
Flags: W
AnchorPoint: "Anchor-0" 389 741 basechar 0
LayerCount: 2
Fore
SplineSet
177 185 m 1,0,-1
 552 586 l 1,1,-1
 600 535 l 1,2,-1
 225 133 l 1,3,-1
 177 185 l 1,0,-1
53 0 m 1,4,-1
 53 73 l 1,5,-1
 63 73 l 2,6,7
 88 73 88 73 107.5 80 c 128,-1,8
 127 87 127 87 127 109 c 2,9,-1
 127 601 l 2,10,11
 127 623 127 623 107.5 630 c 128,-1,12
 88 637 88 637 63 637 c 2,13,-1
 53 637 l 1,14,-1
 53 710 l 1,15,-1
 306 710 l 1,16,-1
 306 637 l 1,17,-1
 298 637 l 2,18,19
 283 637 283 637 265.5 636 c 128,-1,20
 248 635 248 635 236.5 633 c 128,-1,21
 225 631 225 631 225 628 c 2,22,-1
 225 82 l 2,23,24
 225 79 225 79 236.5 77 c 128,-1,25
 248 75 248 75 265.5 74 c 128,-1,26
 283 73 283 73 298 73 c 2,27,-1
 306 73 l 1,28,-1
 306 0 l 1,29,-1
 53 0 l 1,4,-1
471 0 m 1,30,-1
 471 73 l 1,31,-1
 479 73 l 2,32,33
 495 73 495 73 512 74 c 128,-1,34
 529 75 529 75 540.5 77.5 c 128,-1,35
 552 80 552 80 552 82 c 2,36,-1
 552 628 l 2,37,38
 552 631 552 631 540.5 633 c 128,-1,39
 529 635 529 635 512 636 c 128,-1,40
 495 637 495 637 479 637 c 2,41,-1
 471 637 l 1,42,-1
 471 710 l 1,43,-1
 724 710 l 1,44,-1
 724 637 l 1,45,-1
 715 637 l 2,46,47
 690 637 690 637 670.5 630 c 128,-1,48
 651 623 651 623 651 601 c 2,49,-1
 651 109 l 2,50,51
 651 87 651 87 670.5 80 c 128,-1,52
 690 73 690 73 715 73 c 2,53,-1
 724 73 l 1,54,-1
 724 0 l 1,55,-1
 471 0 l 1,30,-1
EndSplineSet
EndChar

StartChar: Elcyr
Encoding: 1051 1051 276
Width: 730
GlyphClass: 2
Flags: W
AnchorPoint: "Anchor-0" 402 741 basechar 0
LayerCount: 2
Fore
SplineSet
226 710 m 1,0,-1
 554 710 l 1,1,-1
 554 636 l 1,2,-1
 226 636 l 1,3,-1
 226 710 l 1,0,-1
425 0 m 1,4,-1
 425 73 l 1,5,-1
 432 73 l 2,6,7
 449 73 449 73 465.5 74 c 128,-1,8
 482 75 482 75 493.5 77.5 c 128,-1,9
 505 80 505 80 505 82 c 2,10,-1
 505 710 l 1,11,-1
 677 710 l 1,12,-1
 677 637 l 1,13,-1
 668 637 l 2,14,15
 643 637 643 637 623.5 630 c 128,-1,16
 604 623 604 623 604 601 c 2,17,-1
 604 109 l 2,18,19
 604 87 604 87 623.5 80 c 128,-1,20
 643 73 643 73 668 73 c 2,21,-1
 677 73 l 1,22,-1
 677 0 l 1,23,-1
 425 0 l 1,4,-1
162 273 m 2,24,-1
 185 601 l 2,25,26
 187 623 187 623 168.5 630 c 128,-1,27
 150 637 150 637 125 637 c 2,28,-1
 115 637 l 1,29,-1
 115 710 l 1,30,-1
 274 710 l 1,31,-1
 244 269 l 2,32,33
 238 167 238 167 216 104.5 c 128,-1,34
 194 42 194 42 158 13.5 c 128,-1,35
 122 -15 122 -15 71 -15 c 0,36,37
 54 -15 54 -15 38.5 -11 c 128,-1,38
 23 -7 23 -7 11 0 c 1,39,-1
 11 92 l 1,40,41
 22 86 22 86 36 81.5 c 128,-1,42
 50 77 50 77 67 77 c 0,43,44
 94 77 94 77 113 96.5 c 128,-1,45
 132 116 132 116 145 159 c 128,-1,46
 158 202 158 202 162 273 c 2,24,-1
EndSplineSet
Substitution2: "'locl' Localized Forms in Cyrillic lookup 12 subtable" El.bgr
EndChar

StartChar: Pecyr
Encoding: 1055 1055 281
Width: 757
GlyphClass: 2
Flags: W
AnchorPoint: "Anchor-0" 379 741 basechar 0
LayerCount: 2
Fore
SplineSet
191 710 m 1,0,-1
 566 710 l 1,1,-1
 566 636 l 1,2,-1
 191 636 l 1,3,-1
 191 710 l 1,0,-1
53 0 m 1,4,-1
 53 73 l 1,5,-1
 63 73 l 2,6,7
 88 73 88 73 107.5 80 c 128,-1,8
 127 87 127 87 127 109 c 2,9,-1
 127 601 l 2,10,11
 127 623 127 623 107.5 630 c 128,-1,12
 88 637 88 637 63 637 c 2,13,-1
 53 637 l 1,14,-1
 53 710 l 1,15,-1
 225 710 l 1,16,-1
 225 82 l 2,17,18
 225 79 225 79 236.5 77 c 128,-1,19
 248 75 248 75 265.5 74 c 128,-1,20
 283 73 283 73 298 73 c 2,21,-1
 306 73 l 1,22,-1
 306 0 l 1,23,-1
 53 0 l 1,4,-1
451 0 m 1,24,-1
 451 73 l 1,25,-1
 458 73 l 2,26,27
 475 73 475 73 491.5 74 c 128,-1,28
 508 75 508 75 520 77.5 c 128,-1,29
 532 80 532 80 532 82 c 2,30,-1
 532 710 l 1,31,-1
 704 710 l 1,32,-1
 704 637 l 1,33,-1
 695 637 l 2,34,35
 670 637 670 637 650 630 c 128,-1,36
 630 623 630 623 630 601 c 2,37,-1
 630 109 l 2,38,39
 630 87 630 87 650 80 c 128,-1,40
 670 73 670 73 695 73 c 2,41,-1
 704 73 l 1,42,-1
 704 0 l 1,43,-1
 451 0 l 1,24,-1
EndSplineSet
EndChar

StartChar: Ucyr
Encoding: 1059 1059 285
Width: 627
GlyphClass: 2
Flags: W
AnchorPoint: "Anchor-1" 207 0 basechar 0
AnchorPoint: "Anchor-0" 320 741 basechar 0
LayerCount: 2
Fore
SplineSet
373 200 m 2,0,1
 350 143 350 143 328.5 101.5 c 128,-1,2
 307 60 307 60 285 33 c 128,-1,3
 263 6 263 6 238 -7.5 c 128,-1,4
 213 -21 213 -21 182 -21 c 0,5,6
 161 -21 161 -21 145 -16 c 128,-1,7
 129 -11 129 -11 118 -4 c 1,8,-1
 118 88 l 1,9,10
 128 82 128 82 144.5 76.5 c 128,-1,11
 161 71 161 71 178 71 c 0,12,13
 205 71 205 71 227 85 c 128,-1,14
 249 99 249 99 269 131.5 c 128,-1,15
 289 164 289 164 311 221 c 2,16,-1
 466 614 l 2,17,18
 466 621 466 621 458 626 c 128,-1,19
 450 631 450 631 437.5 634 c 128,-1,20
 425 637 425 637 413 637 c 2,21,-1
 404 637 l 1,22,-1
 404 710 l 1,23,-1
 604 710 l 1,24,-1
 604 637 l 1,25,-1
 593 637 l 2,26,27
 580 637 580 637 569.5 632 c 128,-1,28
 559 627 559 627 550 616 c 128,-1,29
 541 605 541 605 533 585 c 2,30,-1
 373 200 l 2,0,1
347 218 m 1,31,-1
 287 132 l 1,32,-1
 91 594 l 2,33,34
 84 612 84 612 76 621 c 128,-1,35
 68 630 68 630 58 633.5 c 128,-1,36
 48 637 48 637 35 637 c 2,37,-1
 24 637 l 1,38,-1
 24 710 l 1,39,-1
 251 710 l 1,40,-1
 251 637 l 1,41,-1
 238 637 l 2,42,43
 223 637 223 637 209 635.5 c 128,-1,44
 195 634 195 634 185 632 c 128,-1,45
 175 630 175 630 175 627 c 2,46,-1
 347 218 l 1,31,-1
EndSplineSet
EndChar

StartChar: Efcyr
Encoding: 1060 1060 290
Width: 829
GlyphClass: 2
Flags: W
AnchorPoint: "Anchor-1" 415 0 basechar 0
AnchorPoint: "Anchor-0" 415 741 basechar 0
LayerCount: 2
Fore
SplineSet
369 84 m 2,0,-1
 369 626 l 2,1,2
 369 648 369 648 348.5 655 c 128,-1,3
 328 662 328 662 297 662 c 2,4,-1
 280 662 l 1,5,-1
 280 735 l 1,6,-1
 549 735 l 1,7,-1
 549 662 l 1,8,-1
 532 662 l 2,9,10
 501 662 501 662 480.5 655 c 128,-1,11
 460 648 460 648 460 626 c 2,12,-1
 460 84 l 2,13,14
 460 62 460 62 480.5 55 c 128,-1,15
 501 48 501 48 532 48 c 2,16,-1
 549 48 l 1,17,-1
 549 -25 l 1,18,-1
 280 -25 l 1,19,-1
 280 48 l 1,20,-1
 297 48 l 2,21,22
 328 48 328 48 348.5 55 c 128,-1,23
 369 62 369 62 369 84 c 2,0,-1
374 616 m 1,24,-1
 374 542 l 1,25,26
 294 542 294 542 245 521 c 128,-1,27
 196 500 196 500 174 459.5 c 128,-1,28
 152 419 152 419 152 360 c 0,29,30
 152 302 152 302 174 261 c 128,-1,31
 196 220 196 220 245 199 c 128,-1,32
 294 178 294 178 374 178 c 1,33,-1
 374 104 l 1,34,35
 265 104 265 104 192 135.5 c 128,-1,36
 119 167 119 167 82.5 224.5 c 128,-1,37
 46 282 46 282 46 360 c 256,38,39
 46 438 46 438 83 495.5 c 128,-1,40
 120 553 120 553 193 584.5 c 128,-1,41
 266 616 266 616 374 616 c 1,24,-1
455 104 m 1,42,-1
 455 178 l 1,43,44
 536 178 536 178 584.5 199 c 128,-1,45
 633 220 633 220 655 261 c 128,-1,46
 677 302 677 302 677 360 c 0,47,48
 677 419 677 419 655 459.5 c 128,-1,49
 633 500 633 500 584.5 521 c 128,-1,50
 536 542 536 542 455 542 c 1,51,-1
 455 616 l 1,52,53
 564 616 564 616 637 584.5 c 128,-1,54
 710 553 710 553 746.5 495.5 c 128,-1,55
 783 438 783 438 783 360 c 256,56,57
 783 282 783 282 746 224.5 c 128,-1,58
 709 167 709 167 636 135.5 c 128,-1,59
 563 104 563 104 455 104 c 1,42,-1
EndSplineSet
EndChar

StartChar: Tsecyr
Encoding: 1062 1062 292
Width: 757
GlyphClass: 2
Flags: W
AnchorPoint: "Anchor-0" 379 741 basechar 0
LayerCount: 2
Fore
SplineSet
191 0 m 1,0,-1
 191 74 l 1,1,-1
 561 74 l 1,2,-1
 561 0 l 1,3,-1
 191 0 l 1,0,-1
53 710 m 1,4,-1
 306 710 l 1,5,-1
 306 637 l 1,6,-1
 298 637 l 2,7,8
 282 637 282 637 265.5 636 c 128,-1,9
 249 635 249 635 237 633 c 128,-1,10
 225 631 225 631 225 628 c 2,11,-1
 225 0 l 1,12,-1
 53 0 l 1,13,-1
 53 73 l 1,14,-1
 63 73 l 2,15,16
 88 73 88 73 107.5 80 c 128,-1,17
 127 87 127 87 127 109 c 2,18,-1
 127 601 l 2,19,20
 127 623 127 623 107.5 630 c 128,-1,21
 88 637 88 637 63 637 c 2,22,-1
 53 637 l 1,23,-1
 53 710 l 1,4,-1
451 710 m 1,24,-1
 704 710 l 1,25,-1
 704 637 l 1,26,-1
 695 637 l 2,27,28
 670 637 670 637 650 630 c 128,-1,29
 630 623 630 623 630 601 c 2,30,-1
 630 0 l 1,31,-1
 532 0 l 1,32,-1
 532 628 l 2,33,34
 532 631 532 631 520.5 633 c 128,-1,35
 509 635 509 635 492 636 c 128,-1,36
 475 637 475 637 459 637 c 2,37,-1
 451 637 l 1,38,-1
 451 710 l 1,24,-1
494 0 m 1,39,-1
 494 74 l 1,40,-1
 714 74 l 1,41,-1
 714 -182 l 1,42,-1
 644 -182 l 1,43,-1
 632 -55 l 2,44,45
 631 -35 631 -35 619 -23 c 128,-1,46
 607 -11 607 -11 582.5 -5.5 c 128,-1,47
 558 0 558 0 516 0 c 2,48,-1
 494 0 l 1,39,-1
EndSplineSet
EndChar

StartChar: Checyr
Encoding: 1063 1063 293
Width: 727
GlyphClass: 2
Flags: W
AnchorPoint: "Anchor-0" 356 741 basechar 0
LayerCount: 2
Fore
SplineSet
421 0 m 1,0,-1
 421 73 l 1,1,-1
 429 73 l 2,2,3
 445 73 445 73 461.5 74 c 128,-1,4
 478 75 478 75 490 77.5 c 128,-1,5
 502 80 502 80 502 82 c 2,6,-1
 502 628 l 2,7,8
 502 631 502 631 490 633 c 128,-1,9
 478 635 478 635 461.5 636 c 128,-1,10
 445 637 445 637 429 637 c 2,11,-1
 421 637 l 1,12,-1
 421 710 l 1,13,-1
 674 710 l 1,14,-1
 674 637 l 1,15,-1
 664 637 l 2,16,17
 639 637 639 637 619.5 630 c 128,-1,18
 600 623 600 623 600 601 c 2,19,-1
 600 109 l 2,20,21
 600 87 600 87 619.5 80 c 128,-1,22
 639 73 639 73 664 73 c 2,23,-1
 674 73 l 1,24,-1
 674 0 l 1,25,-1
 421 0 l 1,0,-1
339 273 m 0,26,27
 257 273 257 273 205.5 292 c 128,-1,28
 154 311 154 311 130.5 355 c 128,-1,29
 107 399 107 399 107 472 c 2,30,-1
 107 601 l 2,31,32
 107 623 107 623 87.5 630 c 128,-1,33
 68 637 68 637 43 637 c 2,34,-1
 33 637 l 1,35,-1
 33 710 l 1,36,-1
 286 710 l 1,37,-1
 286 637 l 1,38,-1
 278 637 l 2,39,40
 263 637 263 637 245.5 636 c 128,-1,41
 228 635 228 635 216.5 633 c 128,-1,42
 205 631 205 631 205 627 c 2,43,-1
 205 477 l 2,44,45
 205 431 205 431 218.5 402 c 128,-1,46
 232 373 232 373 262 360 c 128,-1,47
 292 347 292 347 343 347 c 0,48,49
 389 347 389 347 439 356 c 128,-1,50
 489 365 489 365 530 389 c 1,51,-1
 530 314 l 1,52,53
 487 293 487 293 437 283 c 128,-1,54
 387 273 387 273 339 273 c 0,26,27
EndSplineSet
EndChar

StartChar: Shacyr
Encoding: 1064 1064 294
Width: 1046
GlyphClass: 2
Flags: W
AnchorPoint: "Anchor-0" 513 741 basechar 0
LayerCount: 2
Fore
SplineSet
849 0 m 1,0,-1
 195 0 l 1,1,-1
 195 74 l 1,2,-1
 849 74 l 1,3,-1
 849 0 l 1,0,-1
993 710 m 1,4,-1
 993 637 l 1,5,-1
 983 637 l 2,6,7
 959 637 959 637 939 630 c 128,-1,8
 919 623 919 623 919 601 c 2,9,-1
 919 109 l 2,10,11
 919 87 919 87 939 80 c 128,-1,12
 959 73 959 73 983 73 c 2,13,-1
 993 73 l 1,14,-1
 993 0 l 1,15,-1
 821 0 l 1,16,-1
 821 628 l 2,17,18
 821 631 821 631 809.5 633 c 128,-1,19
 798 635 798 635 781 636 c 128,-1,20
 764 637 764 637 748 637 c 2,21,-1
 740 637 l 1,22,-1
 740 710 l 1,23,-1
 993 710 l 1,4,-1
306 710 m 1,24,-1
 306 637 l 1,25,-1
 299 637 l 2,26,27
 283 637 283 637 266 636 c 128,-1,28
 249 635 249 635 237 633 c 128,-1,29
 225 631 225 631 225 628 c 2,30,-1
 225 0 l 1,31,-1
 53 0 l 1,32,-1
 53 73 l 1,33,-1
 63 73 l 2,34,35
 88 73 88 73 107.5 80 c 128,-1,36
 127 87 127 87 127 109 c 2,37,-1
 127 601 l 2,38,39
 127 623 127 623 107.5 630 c 128,-1,40
 88 637 88 637 63 637 c 2,41,-1
 53 637 l 1,42,-1
 53 710 l 1,43,-1
 306 710 l 1,24,-1
397 710 m 1,44,-1
 649 710 l 1,45,-1
 649 637 l 1,46,-1
 641 637 l 2,47,48
 626 637 626 637 610.5 636 c 128,-1,49
 595 635 595 635 583.5 633 c 128,-1,50
 572 631 572 631 572 628 c 2,51,-1
 572 0 l 1,52,-1
 474 0 l 1,53,-1
 474 627 l 2,54,55
 474 631 474 631 462.5 633 c 128,-1,56
 451 635 451 635 435.5 636 c 128,-1,57
 420 637 420 637 405 637 c 2,58,-1
 397 637 l 1,59,-1
 397 710 l 1,44,-1
EndSplineSet
EndChar

StartChar: Shchacyr
Encoding: 1065 1065 295
Width: 1046
GlyphClass: 2
Flags: W
AnchorPoint: "Anchor-0" 513 741 basechar 0
LayerCount: 2
Fore
SplineSet
855 0 m 1,0,-1
 195 0 l 1,1,-1
 195 74 l 1,2,-1
 855 74 l 1,3,-1
 855 0 l 1,0,-1
306 710 m 1,4,-1
 306 637 l 1,5,-1
 298 637 l 2,6,7
 282 637 282 637 265.5 636 c 128,-1,8
 249 635 249 635 237 633 c 128,-1,9
 225 631 225 631 225 628 c 2,10,-1
 225 0 l 1,11,-1
 53 0 l 1,12,-1
 53 73 l 1,13,-1
 63 73 l 2,14,15
 88 73 88 73 107.5 80 c 128,-1,16
 127 87 127 87 127 109 c 2,17,-1
 127 601 l 2,18,19
 127 623 127 623 107.5 630 c 128,-1,20
 88 637 88 637 63 637 c 2,21,-1
 53 637 l 1,22,-1
 53 710 l 1,23,-1
 306 710 l 1,4,-1
740 710 m 1,24,-1
 993 710 l 1,25,-1
 993 637 l 1,26,-1
 983 637 l 2,27,28
 959 637 959 637 939 630 c 128,-1,29
 919 623 919 623 919 601 c 2,30,-1
 919 0 l 1,31,-1
 821 0 l 1,32,-1
 821 628 l 2,33,34
 821 631 821 631 809.5 633 c 128,-1,35
 798 635 798 635 781 636 c 128,-1,36
 764 637 764 637 748 637 c 2,37,-1
 740 637 l 1,38,-1
 740 710 l 1,24,-1
806 0 m 2,39,-1
 783 0 l 1,40,-1
 783 74 l 1,41,-1
 1003 74 l 1,42,-1
 1003 -182 l 1,43,-1
 933 -182 l 1,44,-1
 921 -55 l 2,45,46
 919 -35 919 -35 908 -23 c 128,-1,47
 897 -11 897 -11 872 -5.5 c 128,-1,48
 847 0 847 0 806 0 c 2,39,-1
397 710 m 1,49,-1
 649 710 l 1,50,-1
 649 637 l 1,51,-1
 641 637 l 2,52,53
 626 637 626 637 610.5 636 c 128,-1,54
 595 635 595 635 583.5 633 c 128,-1,55
 572 631 572 631 572 628 c 2,56,-1
 572 0 l 1,57,-1
 474 0 l 1,58,-1
 474 627 l 2,59,60
 474 631 474 631 462.5 633 c 128,-1,61
 451 635 451 635 435.5 636 c 128,-1,62
 420 637 420 637 405 637 c 2,63,-1
 397 637 l 1,64,-1
 397 710 l 1,49,-1
EndSplineSet
EndChar

StartChar: Hardcyr
Encoding: 1066 1066 296
Width: 736
GlyphClass: 2
Flags: W
AnchorPoint: "Anchor-0" 258 741 basechar 0
LayerCount: 2
Fore
SplineSet
462 0 m 2,0,-1
 172 0 l 1,1,-1
 172 73 l 1,2,-1
 181 73 l 2,3,4
 208 73 208 73 228 80 c 128,-1,5
 248 87 248 87 248 109 c 2,6,-1
 248 639 l 1,7,-1
 221 639 l 2,8,9
 184 639 184 639 164.5 633 c 128,-1,10
 145 627 145 627 138 614 c 128,-1,11
 131 601 131 601 128 580 c 2,12,-1
 117 475 l 1,13,-1
 47 475 l 1,14,-1
 47 710 l 1,15,-1
 442 710 l 1,16,-1
 442 637 l 1,17,-1
 424 637 l 2,18,19
 404 637 404 637 386 636 c 128,-1,20
 368 635 368 635 357.5 633 c 128,-1,21
 347 631 347 631 347 627 c 2,22,-1
 347 71 l 1,23,-1
 459 71 l 2,24,25
 502 71 502 71 530 87.5 c 128,-1,26
 558 104 558 104 572 136 c 128,-1,27
 586 168 586 168 586 215 c 0,28,29
 586 264 586 264 572 296.5 c 128,-1,30
 558 329 558 329 530 345.5 c 128,-1,31
 502 362 502 362 459 362 c 2,32,-1
 289 362 l 1,33,-1
 289 433 l 1,34,-1
 463 433 l 2,35,36
 531 433 531 433 581.5 409.5 c 128,-1,37
 632 386 632 386 660.5 337.5 c 128,-1,38
 689 289 689 289 689 215 c 0,39,40
 689 147 689 147 659.5 98.5 c 128,-1,41
 630 50 630 50 579 25 c 128,-1,42
 528 0 528 0 462 0 c 2,0,-1
EndSplineSet
EndChar

StartChar: Ylongcyr
Encoding: 1067 1067 297
Width: 908
GlyphClass: 2
Flags: W
AnchorPoint: "Anchor-1" 445 0 basechar 0
AnchorPoint: "Anchor-0" 445 741 basechar 0
LayerCount: 2
Fore
SplineSet
683 82 m 2,0,-1
 683 628 l 2,1,2
 683 631 683 631 671 633 c 128,-1,3
 659 635 659 635 642.5 636 c 128,-1,4
 626 637 626 637 610 637 c 2,5,-1
 602 637 l 1,6,-1
 602 710 l 1,7,-1
 855 710 l 1,8,-1
 855 637 l 1,9,-1
 845 637 l 2,10,11
 816 637 816 637 798.5 630 c 128,-1,12
 781 623 781 623 781 601 c 2,13,-1
 781 109 l 2,14,15
 781 87 781 87 798.5 80 c 128,-1,16
 816 73 816 73 845 73 c 2,17,-1
 855 73 l 1,18,-1
 855 0 l 1,19,-1
 602 0 l 1,20,-1
 602 73 l 1,21,-1
 610 73 l 2,22,23
 626 73 626 73 643 74 c 128,-1,24
 660 75 660 75 671.5 77.5 c 128,-1,25
 683 80 683 80 683 82 c 2,0,-1
344 0 m 2,26,-1
 53 0 l 1,27,-1
 53 73 l 1,28,-1
 62 73 l 2,29,30
 88 73 88 73 107.5 80 c 128,-1,31
 127 87 127 87 127 109 c 2,32,-1
 127 601 l 2,33,34
 127 623 127 623 107.5 630 c 128,-1,35
 88 637 88 637 63 637 c 2,36,-1
 53 637 l 1,37,-1
 53 710 l 1,38,-1
 323 710 l 1,39,-1
 323 637 l 1,40,-1
 305 637 l 2,41,42
 285 637 285 637 267 636 c 128,-1,43
 249 635 249 635 237.5 633 c 128,-1,44
 226 631 226 631 226 627 c 2,45,-1
 226 71 l 1,46,-1
 341 71 l 2,47,48
 383 71 383 71 411.5 87.5 c 128,-1,49
 440 104 440 104 454 136 c 128,-1,50
 468 168 468 168 468 215 c 0,51,52
 468 265 468 265 454 297 c 128,-1,53
 440 329 440 329 411.5 345.5 c 128,-1,54
 383 362 383 362 340 362 c 2,55,-1
 187 362 l 1,56,-1
 187 433 l 1,57,-1
 344 433 l 2,58,59
 412 433 412 433 463 409.5 c 128,-1,60
 514 386 514 386 542.5 337.5 c 128,-1,61
 571 289 571 289 571 215 c 0,62,63
 571 147 571 147 541 98.5 c 128,-1,64
 511 50 511 50 460 25 c 128,-1,65
 409 0 409 0 344 0 c 2,26,-1
EndSplineSet
EndChar

StartChar: Softcyr
Encoding: 1068 1068 298
Width: 617
GlyphClass: 2
Flags: W
AnchorPoint: "Anchor-0" 179 741 basechar 0
LayerCount: 2
Fore
SplineSet
344 0 m 2,0,-1
 53 0 l 1,1,-1
 53 73 l 1,2,-1
 62 73 l 2,3,4
 88 73 88 73 107.5 80 c 128,-1,5
 127 87 127 87 127 109 c 2,6,-1
 127 601 l 2,7,8
 127 623 127 623 107.5 630 c 128,-1,9
 88 637 88 637 63 637 c 2,10,-1
 53 637 l 1,11,-1
 53 710 l 1,12,-1
 323 710 l 1,13,-1
 323 637 l 1,14,-1
 305 637 l 2,15,16
 285 637 285 637 267 636 c 128,-1,17
 249 635 249 635 237.5 633 c 128,-1,18
 226 631 226 631 226 627 c 2,19,-1
 226 71 l 1,20,-1
 341 71 l 2,21,22
 383 71 383 71 411.5 87.5 c 128,-1,23
 440 104 440 104 454 136 c 128,-1,24
 468 168 468 168 468 215 c 0,25,26
 468 265 468 265 454 297 c 128,-1,27
 440 329 440 329 411.5 345.5 c 128,-1,28
 383 362 383 362 340 362 c 2,29,-1
 187 362 l 1,30,-1
 187 433 l 1,31,-1
 344 433 l 2,32,33
 412 433 412 433 463 409.5 c 128,-1,34
 514 386 514 386 542.5 337.5 c 128,-1,35
 571 289 571 289 571 215 c 0,36,37
 571 147 571 147 541 98.5 c 128,-1,38
 511 50 511 50 460 25 c 128,-1,39
 409 0 409 0 344 0 c 2,0,-1
EndSplineSet
EndChar

StartChar: Ereversedcyr
Encoding: 1069 1069 299
Width: 693
GlyphClass: 2
Flags: W
AnchorPoint: "Anchor-1" 333 0 basechar 0
AnchorPoint: "Anchor-0" 333 741 basechar 0
LayerCount: 2
Fore
SplineSet
560 396 m 1,0,-1
 560 330 l 1,1,2
 522 328 522 328 483 326.5 c 128,-1,3
 444 325 444 325 405.5 323.5 c 128,-1,4
 367 322 367 322 328 320.5 c 128,-1,5
 289 319 289 319 251 317 c 1,6,-1
 251 411 l 1,7,8
 288 409 288 409 326.5 407 c 128,-1,9
 365 405 365 405 404 403.5 c 128,-1,10
 443 402 443 402 482.5 400 c 128,-1,11
 522 398 522 398 560 396 c 1,0,-1
354 -24 m 0,12,13
 293 -24 293 -24 247.5 1.5 c 128,-1,14
 202 27 202 27 175 78 c 128,-1,15
 148 129 148 129 142 204 c 1,16,-1
 163 172 l 1,17,-1
 149 -10 l 1,18,-1
 77 -10 l 1,19,-1
 77 238 l 1,20,-1
 157 238 l 1,21,22
 173 179 173 179 199 136.5 c 128,-1,23
 225 94 225 94 262 71.5 c 128,-1,24
 299 49 299 49 347 49 c 256,25,26
 395 49 395 49 430 67 c 128,-1,27
 465 85 465 85 488 122.5 c 128,-1,28
 511 160 511 160 522.5 218 c 128,-1,29
 534 276 534 276 534 355 c 0,30,31
 534 435 534 435 520.5 493 c 128,-1,32
 507 551 507 551 482.5 588.5 c 128,-1,33
 458 626 458 626 424.5 643.5 c 128,-1,34
 391 661 391 661 350 661 c 0,35,36
 299 661 299 661 261.5 639 c 128,-1,37
 224 617 224 617 198.5 575 c 128,-1,38
 173 533 173 533 157 472 c 1,39,-1
 77 472 l 1,40,-1
 77 720 l 1,41,-1
 149 720 l 1,42,-1
 163 538 l 1,43,-1
 142 506 l 1,44,45
 148 581 148 581 175 631.5 c 128,-1,46
 202 682 202 682 248 708 c 128,-1,47
 294 734 294 734 354 734 c 0,48,49
 416 734 416 734 468 710.5 c 128,-1,50
 520 687 520 687 558.5 639.5 c 128,-1,51
 597 592 597 592 618 521 c 128,-1,52
 639 450 639 450 639 355 c 0,53,54
 639 264 639 264 618 193.5 c 128,-1,55
 597 123 597 123 558.5 74.5 c 128,-1,56
 520 26 520 26 468 1 c 128,-1,57
 416 -24 416 -24 354 -24 c 0,12,13
EndSplineSet
Substitution2: "'ss01' Style Set 1 lookup 61 subtable" Ecyr.alt1
EndChar

StartChar: Yucyr
Encoding: 1070 1070 300
Width: 989
GlyphClass: 2
Flags: W
AnchorPoint: "Anchor-1" 514 0 basechar 0
AnchorPoint: "Anchor-0" 514 741 basechar 0
LayerCount: 2
Fore
SplineSet
185 403 m 1,0,-1
 389 403 l 1,1,-1
 389 329 l 1,2,-1
 185 329 l 1,3,-1
 185 403 l 1,0,-1
53 0 m 1,4,-1
 53 73 l 1,5,-1
 63 73 l 2,6,7
 88 73 88 73 107.5 80 c 128,-1,8
 127 87 127 87 127 109 c 2,9,-1
 127 601 l 2,10,11
 127 623 127 623 107.5 630 c 128,-1,12
 88 637 88 637 63 637 c 2,13,-1
 53 637 l 1,14,-1
 53 710 l 1,15,-1
 306 710 l 1,16,-1
 306 638 l 1,17,-1
 299 638 l 2,18,19
 287 638 287 638 274 637 c 128,-1,20
 261 636 261 636 250 634.5 c 128,-1,21
 239 633 239 633 232 631.5 c 128,-1,22
 225 630 225 630 225 628 c 2,23,-1
 225 82 l 2,24,25
 225 79 225 79 232 78 c 128,-1,26
 239 77 239 77 250 75.5 c 128,-1,27
 261 74 261 74 274 73.5 c 128,-1,28
 287 73 287 73 298 73 c 2,29,-1
 306 73 l 1,30,-1
 306 0 l 1,31,-1
 53 0 l 1,4,-1
640 -24 m 0,32,33
 573 -24 573 -24 519 1 c 128,-1,34
 465 26 465 26 425.5 74 c 128,-1,35
 386 122 386 122 364.5 192.5 c 128,-1,36
 343 263 343 263 343 356 c 0,37,38
 343 448 343 448 364.5 518.5 c 128,-1,39
 386 589 386 589 425.5 637 c 128,-1,40
 465 685 465 685 519 709.5 c 128,-1,41
 573 734 573 734 640 734 c 0,42,43
 706 734 706 734 760.5 709.5 c 128,-1,44
 815 685 815 685 854 637 c 128,-1,45
 893 589 893 589 914 518.5 c 128,-1,46
 935 448 935 448 935 356 c 0,47,48
 935 263 935 263 914 192.5 c 128,-1,49
 893 122 893 122 854 74 c 128,-1,50
 815 26 815 26 760.5 1 c 128,-1,51
 706 -24 706 -24 640 -24 c 0,32,33
640 50 m 256,52,53
 687 50 687 50 722.5 68 c 128,-1,54
 758 86 758 86 782 123.5 c 128,-1,55
 806 161 806 161 818 218.5 c 128,-1,56
 830 276 830 276 830 355 c 256,57,58
 830 434 830 434 818 491.5 c 128,-1,59
 806 549 806 549 782 586.5 c 128,-1,60
 758 624 758 624 722.5 642 c 128,-1,61
 687 660 687 660 640 660 c 0,62,63
 592 660 592 660 556 642 c 128,-1,64
 520 624 520 624 496.5 586.5 c 128,-1,65
 473 549 473 549 461 491.5 c 128,-1,66
 449 434 449 434 449 355 c 256,67,68
 449 276 449 276 461 218.5 c 128,-1,69
 473 161 473 161 497 123.5 c 128,-1,70
 521 86 521 86 557 68 c 128,-1,71
 593 50 593 50 640 50 c 256,52,53
EndSplineSet
EndChar

StartChar: Yacyr
Encoding: 1071 1071 301
Width: 674
GlyphClass: 2
Flags: W
AnchorPoint: "Anchor-1" 337 0 basechar 0
AnchorPoint: "Anchor-0" 371 741 basechar 0
LayerCount: 2
Fore
SplineSet
329 322 m 1,0,-1
 169 0 l 1,1,-1
 28 0 l 1,2,-1
 28 73 l 1,3,-1
 36 73 l 2,4,5
 57 73 57 73 73 77.5 c 128,-1,6
 89 82 89 82 103.5 95.5 c 128,-1,7
 118 109 118 109 131 134 c 2,8,-1
 249 365 l 1,9,-1
 329 322 l 1,0,-1
449 83 m 2,10,-1
 449 639 l 1,11,-1
 331 639 l 2,12,13
 288 639 288 639 259.5 623 c 128,-1,14
 231 607 231 607 217.5 577.5 c 128,-1,15
 204 548 204 548 204 505 c 0,16,17
 204 461 204 461 217 429 c 128,-1,18
 230 397 230 397 259 380 c 128,-1,19
 288 363 288 363 335 363 c 2,20,-1
 460 363 l 1,21,-1
 460 292 l 1,22,-1
 298 292 l 1,23,-1
 275 302 l 1,24,25
 224 311 224 311 185.5 334.5 c 128,-1,26
 147 358 147 358 125 400 c 128,-1,27
 103 442 103 442 103 505 c 0,28,29
 103 570 103 570 129.5 616 c 128,-1,30
 156 662 156 662 206.5 686 c 128,-1,31
 257 710 257 710 327 710 c 2,32,-1
 621 710 l 1,33,-1
 621 637 l 1,34,-1
 612 637 l 2,35,36
 587 637 587 637 567.5 630 c 128,-1,37
 548 623 548 623 548 601 c 2,38,-1
 548 109 l 2,39,40
 548 87 548 87 567.5 80 c 128,-1,41
 587 73 587 73 612 73 c 2,42,-1
 621 73 l 1,43,-1
 621 0 l 1,44,-1
 352 0 l 1,45,-1
 352 73 l 1,46,-1
 369 73 l 2,47,48
 384 73 384 73 398.5 73.5 c 128,-1,49
 413 74 413 74 424.5 75.5 c 128,-1,50
 436 77 436 77 442.5 78.5 c 128,-1,51
 449 80 449 80 449 83 c 2,10,-1
EndSplineSet
EndChar

StartChar: Geupcyr
Encoding: 1168 1168 302
Width: 583
GlyphClass: 2
Flags: W
AnchorPoint: "Anchor-0" 274 741 basechar 0
LayerCount: 2
Fore
SplineSet
225 639 m 1,0,-1
 225 109 l 2,1,2
 225 95 225 95 235.5 87 c 128,-1,3
 246 79 246 79 264.5 76 c 128,-1,4
 283 73 283 73 305 73 c 2,5,-1
 323 73 l 1,6,-1
 323 0 l 1,7,-1
 53 0 l 1,8,-1
 53 73 l 1,9,-1
 63 73 l 2,10,11
 88 73 88 73 107.5 80 c 128,-1,12
 127 87 127 87 127 109 c 2,13,-1
 127 601 l 2,14,15
 127 623 127 623 107.5 630 c 128,-1,16
 88 637 88 637 63 637 c 2,17,-1
 53 637 l 1,18,-1
 53 710 l 1,19,-1
 341 710 l 2,20,21
 383 710 383 710 408.5 715 c 128,-1,22
 434 720 434 720 446 732.5 c 128,-1,23
 458 745 458 745 460 766 c 2,24,-1
 471 892 l 1,25,-1
 541 892 l 1,26,-1
 541 639 l 1,27,-1
 225 639 l 1,0,-1
EndSplineSet
EndChar

StartChar: Gestrokecyr
Encoding: 1170 1170 303
Width: 588
GlyphClass: 2
Flags: W
AnchorPoint: "Anchor-0" 300 741 basechar 0
LayerCount: 2
Fore
SplineSet
47 396 m 1,0,-1
 390 396 l 1,1,-1
 390 325 l 1,2,-1
 47 325 l 1,3,-1
 47 396 l 1,0,-1
225 639 m 1,4,-1
 225 109 l 2,5,6
 225 95 225 95 235.5 87 c 128,-1,7
 246 79 246 79 264.5 76 c 128,-1,8
 283 73 283 73 305 73 c 2,9,-1
 323 73 l 1,10,-1
 323 0 l 1,11,-1
 53 0 l 1,12,-1
 53 73 l 1,13,-1
 63 73 l 2,14,15
 88 73 88 73 107.5 80 c 128,-1,16
 127 87 127 87 127 109 c 2,17,-1
 127 601 l 2,18,19
 127 623 127 623 107.5 630 c 128,-1,20
 88 637 88 637 63 637 c 2,21,-1
 53 637 l 1,22,-1
 53 710 l 1,23,-1
 541 710 l 1,24,-1
 541 481 l 1,25,-1
 471 481 l 1,26,-1
 460 581 l 2,27,28
 457 604 457 604 446.5 616.5 c 128,-1,29
 436 629 436 629 413.5 634 c 128,-1,30
 391 639 391 639 355 639 c 2,31,-1
 225 639 l 1,4,-1
EndSplineSet
EndChar

StartChar: Zhetailcyr
Encoding: 1174 1174 304
Width: 1005
GlyphClass: 2
Flags: W
AnchorPoint: "Anchor-0" 492 741 basechar 0
LayerCount: 2
Fore
SplineSet
718 0 m 1,0,-1
 718 73 l 1,1,-1
 725 73 l 2,2,3
 743 73 743 73 759 74 c 128,-1,4
 775 75 775 75 785.5 77.5 c 128,-1,5
 796 80 796 80 796 83 c 2,6,-1
 590 347 l 1,7,-1
 590 371 l 1,8,-1
 806 626 l 2,9,10
 806 630 806 630 796 632 c 128,-1,11
 786 634 786 634 770.5 635.5 c 128,-1,12
 755 637 755 637 739 637 c 2,13,-1
 730 637 l 1,14,-1
 730 710 l 1,15,-1
 960 710 l 1,16,-1
 960 637 l 1,17,-1
 936 637 l 2,18,19
 926 637 926 637 916.5 635 c 128,-1,20
 907 633 907 633 898 626.5 c 128,-1,21
 889 620 889 620 880 609 c 2,22,-1
 663 354 l 1,23,-1
 668 396 l 1,24,-1
 920 74 l 1,25,-1
 920 0 l 1,26,-1
 718 0 l 1,0,-1
283 0 m 1,27,-1
 22 0 l 1,28,-1
 22 73 l 1,29,-1
 41 73 l 2,30,31
 53 73 53 73 64 74 c 128,-1,32
 75 75 75 75 84 80 c 128,-1,33
 93 85 93 85 101 95 c 2,34,-1
 337 396 l 1,35,-1
 336 354 l 1,36,-1
 120 609 l 2,37,38
 110 620 110 620 101 626.5 c 128,-1,39
 92 633 92 633 83 635 c 128,-1,40
 74 637 74 637 63 637 c 2,41,-1
 40 637 l 1,42,-1
 40 710 l 1,43,-1
 271 710 l 1,44,-1
 271 637 l 1,45,-1
 263 637 l 2,46,47
 246 637 246 637 230.5 635.5 c 128,-1,48
 215 634 215 634 205 632 c 128,-1,49
 195 630 195 630 195 626 c 2,50,-1
 412 371 l 1,51,-1
 412 347 l 1,52,-1
 206 83 l 2,53,54
 206 80 206 80 216.5 77.5 c 128,-1,55
 227 75 227 75 243 74 c 128,-1,56
 259 73 259 73 276 73 c 2,57,-1
 283 73 l 1,58,-1
 283 0 l 1,27,-1
792 0 m 2,59,-1
 785 0 l 1,60,-1
 800 74 l 1,61,-1
 989 74 l 1,62,-1
 989 -182 l 1,63,-1
 919 -182 l 1,64,-1
 907 -55 l 2,65,66
 906 -35 906 -35 894.5 -23 c 128,-1,67
 883 -11 883 -11 858 -5.5 c 128,-1,68
 833 0 833 0 792 0 c 2,59,-1
377 0 m 1,69,-1
 377 73 l 1,70,-1
 385 73 l 2,71,72
 395 73 395 73 406.5 73.5 c 128,-1,73
 418 74 418 74 428.5 75.5 c 128,-1,74
 439 77 439 77 445 78.5 c 128,-1,75
 451 80 451 80 451 82 c 2,76,-1
 451 628 l 2,77,78
 451 631 451 631 445 632 c 128,-1,79
 439 633 439 633 428.5 634.5 c 128,-1,80
 418 636 418 636 406 636.5 c 128,-1,81
 394 637 394 637 384 637 c 2,82,-1
 376 637 l 1,83,-1
 376 710 l 1,84,-1
 625 710 l 1,85,-1
 625 638 l 1,86,-1
 618 638 l 2,87,88
 607 638 607 638 595 637 c 128,-1,89
 583 636 583 636 573 634.5 c 128,-1,90
 563 633 563 633 556.5 631.5 c 128,-1,91
 550 630 550 630 550 628 c 2,92,-1
 550 82 l 2,93,94
 550 79 550 79 556 78 c 128,-1,95
 562 77 562 77 572 75.5 c 128,-1,96
 582 74 582 74 594 73.5 c 128,-1,97
 606 73 606 73 617 73 c 2,98,-1
 624 73 l 1,99,-1
 624 0 l 1,100,-1
 377 0 l 1,69,-1
EndSplineSet
EndChar

StartChar: Katailcyr
Encoding: 1178 1178 306
Width: 697
GlyphClass: 2
Flags: W
AnchorPoint: "Anchor-0" 356 741 basechar 0
LayerCount: 2
Fore
SplineSet
53 0 m 1,0,-1
 53 73 l 1,1,-1
 63 73 l 2,2,3
 88 73 88 73 107.5 80 c 128,-1,4
 127 87 127 87 127 109 c 2,5,-1
 127 601 l 2,6,7
 127 623 127 623 107.5 630 c 128,-1,8
 88 637 88 637 63 637 c 2,9,-1
 53 637 l 1,10,-1
 53 710 l 1,11,-1
 303 710 l 1,12,-1
 303 637 l 1,13,-1
 295 637 l 2,14,15
 284 637 284 637 271.5 636.5 c 128,-1,16
 259 636 259 636 248.5 634.5 c 128,-1,17
 238 633 238 633 231.5 632 c 128,-1,18
 225 631 225 631 225 628 c 2,19,-1
 225 83 l 2,20,21
 225 80 225 80 231.5 78.5 c 128,-1,22
 238 77 238 77 248.5 75.5 c 128,-1,23
 259 74 259 74 271.5 73.5 c 128,-1,24
 284 73 284 73 294 73 c 2,25,-1
 301 73 l 1,26,-1
 301 0 l 1,27,-1
 53 0 l 1,0,-1
408 0 m 1,28,-1
 408 73 l 1,29,-1
 415 73 l 2,30,31
 433 73 433 73 449 74 c 128,-1,32
 465 75 465 75 475 77.5 c 128,-1,33
 485 80 485 80 485 83 c 2,34,-1
 267 347 l 1,35,-1
 267 371 l 1,36,-1
 496 626 l 2,37,38
 496 630 496 630 486.5 632 c 128,-1,39
 477 634 477 634 461 635.5 c 128,-1,40
 445 637 445 637 429 637 c 2,41,-1
 421 637 l 1,42,-1
 421 710 l 1,43,-1
 652 710 l 1,44,-1
 652 637 l 1,45,-1
 629 637 l 2,46,47
 618 637 618 637 609 634.5 c 128,-1,48
 600 632 600 632 591.5 626 c 128,-1,49
 583 620 583 620 573 609 c 2,50,-1
 343 354 l 1,51,-1
 346 396 l 1,52,-1
 613 74 l 1,53,-1
 613 0 l 1,54,-1
 408 0 l 1,28,-1
484 0 m 2,55,-1
 477 0 l 1,56,-1
 492 74 l 1,57,-1
 681 74 l 1,58,-1
 681 -182 l 1,59,-1
 611 -182 l 1,60,-1
 600 -55 l 2,61,62
 598 -35 598 -35 586.5 -23 c 128,-1,63
 575 -11 575 -11 550.5 -5.5 c 128,-1,64
 526 0 526 0 484 0 c 2,55,-1
EndSplineSet
EndChar

StartChar: Kaverticalstrokecyr
Encoding: 1180 1180 307
Width: 793
GlyphClass: 2
Flags: W
AnchorPoint: "Anchor-0" 412 741 basechar 0
LayerCount: 2
Fore
SplineSet
300 171 m 1,0,-1
 300 544 l 1,1,-1
 374 544 l 1,2,-1
 374 171 l 1,3,-1
 300 171 l 1,0,-1
53 0 m 1,4,-1
 53 73 l 1,5,-1
 63 73 l 2,6,7
 88 73 88 73 107.5 80 c 128,-1,8
 127 87 127 87 127 109 c 2,9,-1
 127 601 l 2,10,11
 127 623 127 623 107.5 630 c 128,-1,12
 88 637 88 637 63 637 c 2,13,-1
 53 637 l 1,14,-1
 53 710 l 1,15,-1
 303 710 l 1,16,-1
 303 637 l 1,17,-1
 295 637 l 2,18,19
 284 637 284 637 271.5 636.5 c 128,-1,20
 259 636 259 636 248.5 634.5 c 128,-1,21
 238 633 238 633 231.5 632 c 128,-1,22
 225 631 225 631 225 628 c 2,23,-1
 225 83 l 2,24,25
 225 80 225 80 231.5 78.5 c 128,-1,26
 238 77 238 77 248.5 75.5 c 128,-1,27
 259 74 259 74 271.5 73.5 c 128,-1,28
 284 73 284 73 294 73 c 2,29,-1
 301 73 l 1,30,-1
 301 0 l 1,31,-1
 53 0 l 1,4,-1
509 0 m 1,32,-1
 509 73 l 1,33,-1
 517 73 l 2,34,35
 535 73 535 73 551 74 c 128,-1,36
 567 75 567 75 577 77.5 c 128,-1,37
 587 80 587 80 587 83 c 2,38,-1
 408 347 l 1,39,-1
 408 371 l 1,40,-1
 600 626 l 2,41,42
 600 630 600 630 590 632 c 128,-1,43
 580 634 580 634 564 635.5 c 128,-1,44
 548 637 548 637 531 637 c 2,45,-1
 523 637 l 1,46,-1
 523 710 l 1,47,-1
 751 710 l 1,48,-1
 751 637 l 1,49,-1
 726 637 l 2,50,51
 711 637 711 637 698 632 c 128,-1,52
 685 627 685 627 672 609 c 2,53,-1
 480 354 l 1,54,-1
 487 397 l 1,55,-1
 692 95 l 2,56,57
 699 85 699 85 709 80 c 128,-1,58
 719 75 719 75 730 74 c 128,-1,59
 741 73 741 73 753 73 c 2,60,-1
 771 73 l 1,61,-1
 771 0 l 1,62,-1
 509 0 l 1,32,-1
EndSplineSet
EndChar

StartChar: Kabashkcyr
Encoding: 1184 1184 308
Width: 829
GlyphClass: 2
Flags: W
AnchorPoint: "Anchor-0" 489 741 basechar 0
LayerCount: 2
Fore
SplineSet
539 0 m 1,0,-1
 539 73 l 1,1,-1
 547 73 l 2,2,3
 565 73 565 73 580.5 74 c 128,-1,4
 596 75 596 75 606.5 77.5 c 128,-1,5
 617 80 617 80 617 83 c 2,6,-1
 399 347 l 1,7,-1
 399 371 l 1,8,-1
 628 626 l 2,9,10
 628 630 628 630 618 632 c 128,-1,11
 608 634 608 634 592.5 635.5 c 128,-1,12
 577 637 577 637 561 637 c 2,13,-1
 553 637 l 1,14,-1
 553 710 l 1,15,-1
 783 710 l 1,16,-1
 783 637 l 1,17,-1
 760 637 l 2,18,19
 749 637 749 637 740.5 634.5 c 128,-1,20
 732 632 732 632 723 626 c 128,-1,21
 714 620 714 620 704 609 c 2,22,-1
 474 354 l 1,23,-1
 478 396 l 1,24,-1
 727 95 l 2,25,26
 736 85 736 85 745 80.5 c 128,-1,27
 754 76 754 76 764.5 74.5 c 128,-1,28
 775 73 775 73 786 73 c 2,29,-1
 807 73 l 1,30,-1
 807 0 l 1,31,-1
 539 0 l 1,0,-1
185 0 m 1,32,-1
 185 73 l 1,33,-1
 194 73 l 2,34,35
 219 73 219 73 238.5 80 c 128,-1,36
 258 87 258 87 258 109 c 2,37,-1
 258 639 l 1,38,-1
 221 639 l 2,39,40
 184 639 184 639 164.5 633 c 128,-1,41
 145 627 145 627 138 614 c 128,-1,42
 131 601 131 601 128 580 c 2,43,-1
 117 475 l 1,44,-1
 47 475 l 1,45,-1
 47 710 l 1,46,-1
 434 710 l 1,47,-1
 434 637 l 1,48,-1
 427 637 l 2,49,50
 413 637 413 637 396.5 636 c 128,-1,51
 380 635 380 635 368.5 633 c 128,-1,52
 357 631 357 631 357 628 c 2,53,-1
 357 83 l 2,54,55
 357 80 357 80 368.5 77.5 c 128,-1,56
 380 75 380 75 396 74 c 128,-1,57
 412 73 412 73 425 73 c 2,58,-1
 433 73 l 1,59,-1
 433 0 l 1,60,-1
 185 0 l 1,32,-1
EndSplineSet
EndChar

StartChar: Entailcyr
Encoding: 1186 1186 309
Width: 766
GlyphClass: 2
Flags: W
AnchorPoint: "Anchor-0" 383 741 basechar 0
LayerCount: 2
Fore
SplineSet
200 403 m 1,0,-1
 563 403 l 1,1,-1
 563 329 l 1,2,-1
 200 329 l 1,3,-1
 200 403 l 1,0,-1
53 0 m 1,4,-1
 53 73 l 1,5,-1
 63 73 l 2,6,7
 88 73 88 73 107.5 80 c 128,-1,8
 127 87 127 87 127 109 c 2,9,-1
 127 601 l 2,10,11
 127 623 127 623 107.5 630 c 128,-1,12
 88 637 88 637 63 637 c 2,13,-1
 53 637 l 1,14,-1
 53 710 l 1,15,-1
 306 710 l 1,16,-1
 306 638 l 1,17,-1
 299 638 l 2,18,19
 287 638 287 638 274 637 c 128,-1,20
 261 636 261 636 250 634.5 c 128,-1,21
 239 633 239 633 232 631.5 c 128,-1,22
 225 630 225 630 225 628 c 2,23,-1
 225 82 l 2,24,25
 225 79 225 79 232 78 c 128,-1,26
 239 77 239 77 250 75.5 c 128,-1,27
 261 74 261 74 274 73.5 c 128,-1,28
 287 73 287 73 298 73 c 2,29,-1
 306 73 l 1,30,-1
 306 0 l 1,31,-1
 53 0 l 1,4,-1
460 0 m 1,32,-1
 460 72 l 1,33,-1
 467 72 l 2,34,35
 479 72 479 72 492 73 c 128,-1,36
 505 74 505 74 516 75.5 c 128,-1,37
 527 77 527 77 534 78.5 c 128,-1,38
 541 80 541 80 541 82 c 2,39,-1
 541 628 l 2,40,41
 541 631 541 631 534 632 c 128,-1,42
 527 633 527 633 516 634.5 c 128,-1,43
 505 636 505 636 492 636.5 c 128,-1,44
 479 637 479 637 468 637 c 2,45,-1
 460 637 l 1,46,-1
 460 710 l 1,47,-1
 713 710 l 1,48,-1
 713 637 l 1,49,-1
 703 637 l 2,50,51
 678 637 678 637 658.5 630 c 128,-1,52
 639 623 639 623 639 601 c 2,53,-1
 639 0 l 1,54,-1
 460 0 l 1,32,-1
526 0 m 2,55,-1
 520 0 l 1,56,-1
 536 74 l 1,57,-1
 723 74 l 1,58,-1
 723 -182 l 1,59,-1
 653 -182 l 1,60,-1
 641 -55 l 2,61,62
 639 -35 639 -35 627.5 -23 c 128,-1,63
 616 -11 616 -11 591.5 -5.5 c 128,-1,64
 567 0 567 0 526 0 c 2,55,-1
EndSplineSet
EndChar

StartChar: Tetailcyr
Encoding: 1196 1196 311
Width: 649
GlyphClass: 2
Flags: W
AnchorPoint: "Anchor-0" 318 741 basechar 0
LayerCount: 2
Fore
SplineSet
275 109 m 2,0,-1
 275 639 l 1,1,-1
 221 639 l 2,2,3
 184 639 184 639 164.5 633 c 128,-1,4
 145 627 145 627 138 614 c 128,-1,5
 131 601 131 601 128 580 c 2,6,-1
 117 475 l 1,7,-1
 47 475 l 1,8,-1
 47 710 l 1,9,-1
 603 710 l 1,10,-1
 603 475 l 1,11,-1
 532 475 l 1,12,-1
 521 580 l 2,13,14
 519 601 519 601 511.5 614 c 128,-1,15
 504 627 504 627 484.5 633 c 128,-1,16
 465 639 465 639 427 639 c 2,17,-1
 374 639 l 1,18,-1
 374 0 l 1,19,-1
 186 0 l 1,20,-1
 186 73 l 1,21,-1
 203 73 l 2,22,23
 231 73 231 73 253 80 c 128,-1,24
 275 87 275 87 275 109 c 2,0,-1
275 0 m 2,25,-1
 263 0 l 1,26,-1
 270 74 l 1,27,-1
 472 74 l 1,28,-1
 472 -182 l 1,29,-1
 402 -182 l 1,30,-1
 391 -55 l 2,31,32
 389 -35 389 -35 377.5 -23 c 128,-1,33
 366 -11 366 -11 341.5 -5.5 c 128,-1,34
 317 0 317 0 275 0 c 2,25,-1
EndSplineSet
EndChar

StartChar: Ustraightstrokecyr
Encoding: 1200 1200 313
Width: 631
GlyphClass: 2
Flags: W
AnchorPoint: "Anchor-1" 315 0 basechar 0
AnchorPoint: "Anchor-0" 315 741 basechar 0
LayerCount: 2
Fore
SplineSet
140 277 m 1,0,-1
 493 277 l 1,1,-1
 493 203 l 1,2,-1
 140 203 l 1,3,-1
 140 277 l 1,0,-1
267 298 m 1,4,-1
 273 266 l 1,5,-1
 92 594 l 2,6,7
 82 611 82 611 74 620.5 c 128,-1,8
 66 630 66 630 56.5 633.5 c 128,-1,9
 47 637 47 637 35 637 c 2,10,-1
 24 637 l 1,11,-1
 24 710 l 1,12,-1
 251 710 l 1,13,-1
 251 637 l 1,14,-1
 238 637 l 2,15,16
 223 637 223 637 209 635.5 c 128,-1,17
 195 634 195 634 186 632 c 128,-1,18
 177 630 177 630 177 626 c 2,19,-1
 353 304 l 1,20,-1
 304 303 l 1,21,-1
 465 614 l 2,22,23
 465 621 465 621 456 626 c 128,-1,24
 447 631 447 631 435.5 634 c 128,-1,25
 424 637 424 637 414 637 c 2,26,-1
 404 637 l 1,27,-1
 404 710 l 1,28,-1
 604 710 l 1,29,-1
 604 637 l 1,30,-1
 593 637 l 2,31,32
 583 637 583 637 573 632.5 c 128,-1,33
 563 628 563 628 553 616.5 c 128,-1,34
 543 605 543 605 532 585 c 2,35,-1
 360 265 l 1,36,-1
 366 298 l 1,37,-1
 366 109 l 2,38,39
 366 87 366 87 386.5 80 c 128,-1,40
 407 73 407 73 437 73 c 2,41,-1
 455 73 l 1,42,-1
 455 0 l 1,43,-1
 179 0 l 1,44,-1
 179 73 l 1,45,-1
 197 73 l 2,46,47
 227 73 227 73 247 80 c 128,-1,48
 267 87 267 87 267 109 c 2,49,-1
 267 298 l 1,4,-1
EndSplineSet
EndChar

StartChar: Xatailcyr
Encoding: 1202 1202 314
Width: 677
GlyphClass: 2
Flags: W
AnchorPoint: "Anchor-0" 345 741 basechar 0
LayerCount: 2
Fore
SplineSet
36 637 m 1,0,-1
 36 710 l 1,1,-1
 289 710 l 1,2,-1
 289 637 l 1,3,-1
 274 637 l 2,4,5
 257 637 257 637 242.5 636 c 128,-1,6
 228 635 228 635 218.5 633.5 c 128,-1,7
 209 632 209 632 209 628 c 2,8,-1
 369 391 l 1,9,-1
 379 387 l 1,10,-1
 589 74 l 1,11,-1
 589 0 l 1,12,-1
 391 0 l 1,13,-1
 391 73 l 1,14,-1
 406 73 l 2,15,16
 422 73 422 73 437 74 c 128,-1,17
 452 75 452 75 461.5 77.5 c 128,-1,18
 471 80 471 80 471 82 c 2,19,-1
 299 341 l 1,20,-1
 289 345 l 1,21,-1
 114 603 l 2,22,23
 99 626 99 626 83 631.5 c 128,-1,24
 67 637 67 637 48 637 c 2,25,-1
 36 637 l 1,0,-1
25 0 m 1,26,-1
 25 73 l 1,27,-1
 43 73 l 2,28,29
 59 73 59 73 73 82.5 c 128,-1,30
 87 92 87 92 104 119 c 2,31,-1
 277 380 l 1,32,-1
 338 339 l 1,33,-1
 175 90 l 2,34,35
 175 86 175 86 185 82 c 128,-1,36
 195 78 195 78 208.5 75.5 c 128,-1,37
 222 73 222 73 234 73 c 2,38,-1
 251 73 l 1,39,-1
 251 0 l 1,40,-1
 25 0 l 1,26,-1
393 355 m 1,41,-1
 332 393 l 1,42,-1
 487 620 l 2,43,44
 487 626 487 626 476.5 629.5 c 128,-1,45
 466 633 466 633 452 635 c 128,-1,46
 438 637 438 637 425 637 c 2,47,-1
 412 637 l 1,48,-1
 412 710 l 1,49,-1
 634 710 l 1,50,-1
 634 637 l 1,51,-1
 622 637 l 2,52,53
 605 637 605 637 590.5 628 c 128,-1,54
 576 619 576 619 557 592 c 2,55,-1
 393 355 l 1,41,-1
464 0 m 2,56,-1
 459 0 l 1,57,-1
 474 74 l 1,58,-1
 661 74 l 1,59,-1
 661 -182 l 1,60,-1
 591 -182 l 1,61,-1
 579 -55 l 2,62,63
 578 -35 578 -35 566.5 -23 c 128,-1,64
 555 -11 555 -11 530.5 -5.5 c 128,-1,65
 506 0 506 0 464 0 c 2,56,-1
EndSplineSet
EndChar

StartChar: Chetailcyr
Encoding: 1206 1206 315
Width: 727
GlyphClass: 2
Flags: W
AnchorPoint: "Anchor-0" 356 741 basechar 0
LayerCount: 2
Fore
SplineSet
339 273 m 0,0,1
 256 273 256 273 205 292 c 128,-1,2
 154 311 154 311 130.5 355 c 128,-1,3
 107 399 107 399 107 472 c 2,4,-1
 107 601 l 2,5,6
 107 623 107 623 87.5 630 c 128,-1,7
 68 637 68 637 43 637 c 2,8,-1
 33 637 l 1,9,-1
 33 710 l 1,10,-1
 286 710 l 1,11,-1
 286 637 l 1,12,-1
 278 637 l 2,13,14
 263 637 263 637 245.5 636 c 128,-1,15
 228 635 228 635 216.5 633 c 128,-1,16
 205 631 205 631 205 627 c 2,17,-1
 205 477 l 2,18,19
 205 431 205 431 218.5 402.5 c 128,-1,20
 232 374 232 374 262.5 360.5 c 128,-1,21
 293 347 293 347 343 347 c 0,22,23
 389 347 389 347 439 356 c 128,-1,24
 489 365 489 365 530 389 c 1,25,-1
 530 315 l 1,26,27
 487 293 487 293 437 283 c 128,-1,28
 387 273 387 273 339 273 c 0,0,1
421 0 m 1,29,-1
 421 73 l 1,30,-1
 428 73 l 2,31,32
 445 73 445 73 461.5 74 c 128,-1,33
 478 75 478 75 490 77.5 c 128,-1,34
 502 80 502 80 502 82 c 2,35,-1
 502 628 l 2,36,37
 502 631 502 631 490 633 c 128,-1,38
 478 635 478 635 461.5 636 c 128,-1,39
 445 637 445 637 429 637 c 2,40,-1
 421 637 l 1,41,-1
 421 710 l 1,42,-1
 674 710 l 1,43,-1
 674 637 l 1,44,-1
 664 637 l 2,45,46
 639 637 639 637 619.5 630 c 128,-1,47
 600 623 600 623 600 601 c 2,48,-1
 600 0 l 1,49,-1
 421 0 l 1,29,-1
487 0 m 2,50,-1
 481 0 l 1,51,-1
 500 74 l 1,52,-1
 684 74 l 1,53,-1
 684 -182 l 1,54,-1
 614 -182 l 1,55,-1
 602 -55 l 2,56,57
 600 -35 600 -35 588.5 -23 c 128,-1,58
 577 -11 577 -11 552.5 -5.5 c 128,-1,59
 528 0 528 0 487 0 c 2,50,-1
EndSplineSet
EndChar

StartChar: Chevertcyr
Encoding: 1208 1208 316
Width: 746
GlyphClass: 2
Flags: W
AnchorPoint: "Anchor-0" 365 741 basechar 0
LayerCount: 2
Fore
SplineSet
440 0 m 1,0,-1
 440 73 l 1,1,-1
 448 73 l 2,2,3
 465 73 465 73 481.5 74 c 128,-1,4
 498 75 498 75 509.5 77.5 c 128,-1,5
 521 80 521 80 521 82 c 2,6,-1
 521 628 l 2,7,8
 521 631 521 631 509.5 633 c 128,-1,9
 498 635 498 635 481 636 c 128,-1,10
 464 637 464 637 448 637 c 2,11,-1
 440 637 l 1,12,-1
 440 710 l 1,13,-1
 693 710 l 1,14,-1
 693 637 l 1,15,-1
 684 637 l 2,16,17
 659 637 659 637 639 630 c 128,-1,18
 619 623 619 623 619 601 c 2,19,-1
 619 109 l 2,20,21
 619 87 619 87 639 80 c 128,-1,22
 659 73 659 73 684 73 c 2,23,-1
 693 73 l 1,24,-1
 693 0 l 1,25,-1
 440 0 l 1,0,-1
348 273 m 0,26,27
 262 273 262 273 209 292 c 128,-1,28
 156 311 156 311 131.5 355 c 128,-1,29
 107 399 107 399 107 472 c 2,30,-1
 107 601 l 2,31,32
 107 623 107 623 87.5 630 c 128,-1,33
 68 637 68 637 43 637 c 2,34,-1
 33 637 l 1,35,-1
 33 710 l 1,36,-1
 286 710 l 1,37,-1
 286 637 l 1,38,-1
 278 637 l 2,39,40
 263 637 263 637 245.5 636 c 128,-1,41
 228 635 228 635 216.5 633 c 128,-1,42
 205 631 205 631 205 627 c 2,43,-1
 205 477 l 2,44,45
 205 431 205 431 219.5 402 c 128,-1,46
 234 373 234 373 266.5 360 c 128,-1,47
 299 347 299 347 352 347 c 0,48,49
 400 347 400 347 453 355.5 c 128,-1,50
 506 364 506 364 549 389 c 1,51,-1
 549 314 l 1,52,53
 504 292 504 292 451.5 282.5 c 128,-1,54
 399 273 399 273 348 273 c 0,26,27
330 158 m 1,55,-1
 330 531 l 1,56,-1
 404 531 l 1,57,-1
 404 158 l 1,58,-1
 330 158 l 1,55,-1
EndSplineSet
EndChar

StartChar: Shhacyr
Encoding: 1210 1210 317
Width: 727
GlyphClass: 1
Flags: W
LayerCount: 2
Fore
SplineSet
306 710 m 1,0,-1
 306 637 l 1,1,-1
 298 637 l 2,2,3
 282 637 282 637 265.5 636 c 128,-1,4
 249 635 249 635 237 633 c 128,-1,5
 225 631 225 631 225 628 c 2,6,-1
 225 82 l 2,7,8
 225 79 225 79 237 77 c 128,-1,9
 249 75 249 75 265.5 74 c 128,-1,10
 282 73 282 73 298 73 c 2,11,-1
 306 73 l 1,12,-1
 306 0 l 1,13,-1
 53 0 l 1,14,-1
 53 73 l 1,15,-1
 63 73 l 2,16,17
 88 73 88 73 107.5 80 c 128,-1,18
 127 87 127 87 127 109 c 2,19,-1
 127 601 l 2,20,21
 127 623 127 623 107.5 630 c 128,-1,22
 88 637 88 637 63 637 c 2,23,-1
 53 637 l 1,24,-1
 53 710 l 1,25,-1
 306 710 l 1,0,-1
388 438 m 0,26,27
 470 438 470 438 521.5 418.5 c 128,-1,28
 573 399 573 399 596.5 355 c 128,-1,29
 620 311 620 311 620 238 c 2,30,-1
 620 109 l 2,31,32
 620 87 620 87 639.5 80 c 128,-1,33
 659 73 659 73 684 73 c 2,34,-1
 694 73 l 1,35,-1
 694 0 l 1,36,-1
 440 0 l 1,37,-1
 440 73 l 1,38,-1
 448 73 l 2,39,40
 465 73 465 73 482 74 c 128,-1,41
 499 75 499 75 510.5 77.5 c 128,-1,42
 522 80 522 80 522 83 c 2,43,-1
 522 233 l 2,44,45
 522 279 522 279 508 308 c 128,-1,46
 494 337 494 337 464 350 c 128,-1,47
 434 363 434 363 384 363 c 0,48,49
 339 363 339 363 288.5 354 c 128,-1,50
 238 345 238 345 197 321 c 1,51,-1
 197 396 l 1,52,53
 240 417 240 417 289.5 427.5 c 128,-1,54
 339 438 339 438 388 438 c 0,26,27
EndSplineSet
EndChar

StartChar: Obarcyr
Encoding: 1256 1256 320
Width: 715
GlyphClass: 2
Flags: W
AnchorPoint: "Anchor-1" 351 0 basechar 0
AnchorPoint: "Anchor-0" 351 741 basechar 0
LayerCount: 2
Fore
SplineSet
102 403 m 1,0,-1
 613 403 l 1,1,-1
 613 329 l 1,2,-1
 102 329 l 1,3,-1
 102 403 l 1,0,-1
358 -24 m 256,4,5
 289 -24 289 -24 233.5 1 c 128,-1,6
 178 26 178 26 137.5 74 c 128,-1,7
 97 122 97 122 75.5 192.5 c 128,-1,8
 54 263 54 263 54 355 c 0,9,10
 54 448 54 448 75.5 518.5 c 128,-1,11
 97 589 97 589 137.5 637 c 128,-1,12
 178 685 178 685 233.5 709.5 c 128,-1,13
 289 734 289 734 358 734 c 256,14,15
 427 734 427 734 482.5 709.5 c 128,-1,16
 538 685 538 685 578 637 c 128,-1,17
 618 589 618 589 639.5 518.5 c 128,-1,18
 661 448 661 448 661 355 c 0,19,20
 661 263 661 263 639.5 192.5 c 128,-1,21
 618 122 618 122 578 74 c 128,-1,22
 538 26 538 26 482.5 1 c 128,-1,23
 427 -24 427 -24 358 -24 c 256,4,5
358 50 m 256,24,25
 407 50 407 50 444.5 68 c 128,-1,26
 482 86 482 86 506.5 123.5 c 128,-1,27
 531 161 531 161 543.5 218.5 c 128,-1,28
 556 276 556 276 556 355 c 256,29,30
 556 434 556 434 543.5 491.5 c 128,-1,31
 531 549 531 549 506.5 586.5 c 128,-1,32
 482 624 482 624 444.5 642 c 128,-1,33
 407 660 407 660 358 660 c 256,34,35
 309 660 309 660 271.5 642 c 128,-1,36
 234 624 234 624 209 586.5 c 128,-1,37
 184 549 184 549 171.5 491.5 c 128,-1,38
 159 434 159 434 159 355 c 256,39,40
 159 276 159 276 171.5 218.5 c 128,-1,41
 184 161 184 161 209 123.5 c 128,-1,42
 234 86 234 86 271.5 68 c 128,-1,43
 309 50 309 50 358 50 c 256,24,25
EndSplineSet
EndChar

StartChar: Hastrokecyr
Encoding: 1278 1278 321
Width: 673
GlyphClass: 2
Flags: W
AnchorPoint: "Anchor-1" 316 0 basechar 0
AnchorPoint: "Anchor-0" 343 741 basechar 0
LayerCount: 2
Fore
SplineSet
148 404 m 1,0,-1
 521 404 l 1,1,-1
 521 330 l 1,2,-1
 148 330 l 1,3,-1
 148 404 l 1,0,-1
36 637 m 1,4,-1
 36 710 l 1,5,-1
 289 710 l 1,6,-1
 289 637 l 1,7,-1
 274 637 l 2,8,9
 257 637 257 637 242.5 636 c 128,-1,10
 228 635 228 635 218.5 633.5 c 128,-1,11
 209 632 209 632 209 628 c 2,12,-1
 369 391 l 1,13,-1
 378 387 l 1,14,-1
 567 107 l 2,15,16
 582 85 582 85 597 79 c 128,-1,17
 612 73 612 73 630 73 c 2,18,-1
 648 73 l 1,19,-1
 648 0 l 1,20,-1
 391 0 l 1,21,-1
 391 73 l 1,22,-1
 406 73 l 2,23,24
 422 73 422 73 437 74 c 128,-1,25
 452 75 452 75 461.5 77.5 c 128,-1,26
 471 80 471 80 471 82 c 2,27,-1
 299 341 l 1,28,-1
 290 345 l 1,29,-1
 114 603 l 2,30,31
 99 626 99 626 83 631.5 c 128,-1,32
 67 637 67 637 48 637 c 2,33,-1
 36 637 l 1,4,-1
25 0 m 1,34,-1
 25 73 l 1,35,-1
 43 73 l 2,36,37
 59 73 59 73 73 82.5 c 128,-1,38
 87 92 87 92 104 119 c 2,39,-1
 278 380 l 1,40,-1
 338 339 l 1,41,-1
 175 90 l 2,42,43
 175 86 175 86 185 82 c 128,-1,44
 195 78 195 78 208.5 75.5 c 128,-1,45
 222 73 222 73 234 73 c 2,46,-1
 251 73 l 1,47,-1
 251 0 l 1,48,-1
 25 0 l 1,34,-1
392 355 m 1,49,-1
 332 393 l 1,50,-1
 487 620 l 2,51,52
 487 626 487 626 476.5 629.5 c 128,-1,53
 466 633 466 633 452 635 c 128,-1,54
 438 637 438 637 425 637 c 2,55,-1
 412 637 l 1,56,-1
 412 710 l 1,57,-1
 634 710 l 1,58,-1
 634 637 l 1,59,-1
 622 637 l 2,60,61
 605 637 605 637 590.5 628.5 c 128,-1,62
 576 620 576 620 557 592 c 2,63,-1
 392 355 l 1,49,-1
EndSplineSet
EndChar

StartChar: a
Encoding: 97 97 322
Width: 547
GlyphClass: 2
Flags: W
AnchorPoint: "Anchor-2" 411 -10 basechar 0
AnchorPoint: "Anchor-1" 282 0 basechar 0
AnchorPoint: "Anchor-0" 253 565 basechar 0
LayerCount: 2
Fore
SplineSet
369 347 m 1,0,-1
 369 287 l 1,1,2
 310 277 310 277 270.5 265.5 c 128,-1,3
 231 254 231 254 207 241 c 128,-1,4
 183 228 183 228 171 213 c 128,-1,5
 159 198 159 198 154.5 179.5 c 128,-1,6
 150 161 150 161 150 138 c 0,7,8
 150 107 150 107 159 89.5 c 128,-1,9
 168 72 168 72 184 64.5 c 128,-1,10
 200 57 200 57 221 57 c 0,11,12
 245 57 245 57 269 67 c 128,-1,13
 293 77 293 77 317.5 101.5 c 128,-1,14
 342 126 342 126 368 168 c 1,15,-1
 371 107 l 1,16,17
 353 70 353 70 328 43 c 128,-1,18
 303 16 303 16 272.5 2 c 128,-1,19
 242 -12 242 -12 206 -12 c 0,20,21
 158 -12 158 -12 124.5 4.5 c 128,-1,22
 91 21 91 21 73.5 54 c 128,-1,23
 56 87 56 87 56 138 c 0,24,25
 56 182 56 182 70.5 214.5 c 128,-1,26
 85 247 85 247 119.5 271 c 128,-1,27
 154 295 154 295 215 313.5 c 128,-1,28
 276 332 276 332 369 347 c 1,0,-1
387 0 m 1,29,-1
 363 117 l 1,30,-1
 363 125 l 1,31,-1
 363 414 l 2,32,33
 363 444 363 444 356 464 c 128,-1,34
 349 484 349 484 328 494 c 128,-1,35
 307 504 307 504 264 504 c 0,36,37
 206 504 206 504 168 490.5 c 128,-1,38
 130 477 130 477 113 464 c 1,39,40
 113 469 113 469 118 478.5 c 128,-1,41
 123 488 123 488 131.5 497.5 c 128,-1,42
 140 507 140 507 151 513.5 c 128,-1,43
 162 520 162 520 176 519 c 1,44,-1
 176 393 l 1,45,-1
 84 393 l 1,46,-1
 84 528 l 1,47,48
 98 538 98 538 123 549 c 128,-1,49
 148 560 148 560 184 567.5 c 128,-1,50
 220 575 220 575 268 575 c 0,51,52
 310 575 310 575 345 567.5 c 128,-1,53
 380 560 380 560 405 543 c 128,-1,54
 430 526 430 526 443.5 499 c 128,-1,55
 457 472 457 472 457 434 c 2,56,-1
 457 113 l 2,57,58
 457 98 457 98 463 89.5 c 128,-1,59
 469 81 469 81 482 76 c 128,-1,60
 495 71 495 71 517 66 c 2,61,-1
 526 64 l 1,62,-1
 526 0 l 1,63,-1
 387 0 l 1,29,-1
EndSplineSet
Substitution2: "'ss06' Style Set 6 lookup 66 subtable" a.alt
EndChar

StartChar: aogonek
Encoding: 261 261 331
Width: 547
GlyphClass: 1
Flags: W
LayerCount: 2
Fore
SplineSet
232 -161 m 0,0,1
 232 -137 232 -137 240 -118.5 c 128,-1,2
 248 -100 248 -100 267.5 -80 c 128,-1,3
 287 -60 287 -60 322 -32.5 c 128,-1,4
 357 -5 357 -5 411 36 c 1,5,-1
 440 3 l 1,6,7
 407 -28 407 -28 386 -50 c 128,-1,8
 365 -72 365 -72 353.5 -88.5 c 128,-1,9
 342 -105 342 -105 337.5 -120 c 128,-1,10
 333 -135 333 -135 333 -152 c 0,11,12
 333 -170 333 -170 342.5 -181.5 c 128,-1,13
 352 -193 352 -193 372 -193 c 0,14,15
 397 -193 397 -193 415.5 -177.5 c 128,-1,16
 434 -162 434 -162 445 -146 c 1,17,-1
 483 -182 l 1,18,19
 460 -213 460 -213 428.5 -232.5 c 128,-1,20
 397 -252 397 -252 348 -252 c 256,21,22
 299 -252 299 -252 265.5 -230 c 128,-1,23
 232 -208 232 -208 232 -161 c 0,0,1
526 0 m 1,24,-1
 388 0 l 1,25,-1
 365 117 l 1,26,-1
 360 125 l 1,27,-1
 360 416 l 2,28,29
 360 446 360 446 353.5 465.5 c 128,-1,30
 347 485 347 485 326.5 495 c 128,-1,31
 306 505 306 505 264 505 c 0,32,33
 205 505 205 505 166 494.5 c 128,-1,34
 127 484 127 484 112 472 c 1,35,36
 112 477 112 477 117 484.5 c 128,-1,37
 122 492 122 492 130 500.5 c 128,-1,38
 138 509 138 509 149 514.5 c 128,-1,39
 160 520 160 520 173 519 c 1,40,-1
 173 393 l 1,41,-1
 81 393 l 1,42,-1
 81 528 l 1,43,44
 95 539 95 539 120 549.5 c 128,-1,45
 145 560 145 560 182 567.5 c 128,-1,46
 219 575 219 575 268 575 c 0,47,48
 309 575 309 575 343.5 567.5 c 128,-1,49
 378 560 378 560 402.5 543 c 128,-1,50
 427 526 427 526 440.5 499 c 128,-1,51
 454 472 454 472 454 434 c 2,52,-1
 454 111 l 2,53,54
 454 97 454 97 460 89 c 128,-1,55
 466 81 466 81 480 76.5 c 128,-1,56
 494 72 494 72 517 66 c 2,57,-1
 526 64 l 1,58,-1
 526 0 l 1,24,-1
51 138 m 0,59,60
 51 183 51 183 65.5 215.5 c 128,-1,61
 80 248 80 248 115 271.5 c 128,-1,62
 150 295 150 295 212 313.5 c 128,-1,63
 274 332 274 332 369 348 c 1,64,-1
 369 288 l 1,65,66
 308 277 308 277 267.5 265.5 c 128,-1,67
 227 254 227 254 203 241 c 128,-1,68
 179 228 179 228 166.5 213 c 128,-1,69
 154 198 154 198 150 179.5 c 128,-1,70
 146 161 146 161 146 138 c 0,71,72
 146 107 146 107 155 89.5 c 128,-1,73
 164 72 164 72 180.5 64.5 c 128,-1,74
 197 57 197 57 218 57 c 0,75,76
 242 57 242 57 267 67 c 128,-1,77
 292 77 292 77 317 100.5 c 128,-1,78
 342 124 342 124 367 165 c 1,79,-1
 370 105 l 1,80,81
 352 68 352 68 326.5 41.5 c 128,-1,82
 301 15 301 15 269.5 1.5 c 128,-1,83
 238 -12 238 -12 201 -12 c 0,84,85
 154 -12 154 -12 120 4.5 c 128,-1,86
 86 21 86 21 68.5 54 c 128,-1,87
 51 87 51 87 51 138 c 0,59,60
EndSplineSet
Substitution2: "'ss06' Style Set 6 lookup 66 subtable" aogonek.alt
EndChar

StartChar: acaron
Encoding: 462 462 332
Width: 547
GlyphClass: 1
Flags: W
LayerCount: 2
Fore
SplineSet
230 656 m 1,0,-1
 295 656 l 1,1,-1
 417 824 l 1,2,-1
 417 844 l 1,3,-1
 366 844 l 1,4,-1
 204 699 l 1,5,-1
 320 703 l 1,6,-1
 162 844 l 1,7,-1
 106 844 l 1,8,-1
 106 824 l 1,9,-1
 230 656 l 1,0,-1
369 347 m 1,10,-1
 369 287 l 1,11,12
 310 277 310 277 270.5 265.5 c 128,-1,13
 231 254 231 254 207 241 c 128,-1,14
 183 228 183 228 171 213 c 128,-1,15
 159 198 159 198 154.5 179.5 c 128,-1,16
 150 161 150 161 150 138 c 0,17,18
 150 107 150 107 159 89.5 c 128,-1,19
 168 72 168 72 184 64.5 c 128,-1,20
 200 57 200 57 221 57 c 0,21,22
 245 57 245 57 269 67 c 128,-1,23
 293 77 293 77 317.5 101.5 c 128,-1,24
 342 126 342 126 368 168 c 1,25,-1
 371 107 l 1,26,27
 353 70 353 70 328 43 c 128,-1,28
 303 16 303 16 272.5 2 c 128,-1,29
 242 -12 242 -12 206 -12 c 0,30,31
 158 -12 158 -12 124.5 4.5 c 128,-1,32
 91 21 91 21 73.5 54 c 128,-1,33
 56 87 56 87 56 138 c 0,34,35
 56 182 56 182 70.5 214.5 c 128,-1,36
 85 247 85 247 119.5 271 c 128,-1,37
 154 295 154 295 215 313.5 c 128,-1,38
 276 332 276 332 369 347 c 1,10,-1
387 0 m 1,39,-1
 363 117 l 1,40,-1
 363 125 l 1,41,-1
 363 414 l 2,42,43
 363 444 363 444 356 464 c 128,-1,44
 349 484 349 484 328 494 c 128,-1,45
 307 504 307 504 264 504 c 0,46,47
 206 504 206 504 168 490.5 c 128,-1,48
 130 477 130 477 113 464 c 1,49,50
 113 469 113 469 118 478.5 c 128,-1,51
 123 488 123 488 131.5 497.5 c 128,-1,52
 140 507 140 507 151 513.5 c 128,-1,53
 162 520 162 520 176 519 c 1,54,-1
 176 393 l 1,55,-1
 84 393 l 1,56,-1
 84 528 l 1,57,58
 98 538 98 538 123 549 c 128,-1,59
 148 560 148 560 184 567.5 c 128,-1,60
 220 575 220 575 268 575 c 0,61,62
 310 575 310 575 345 567.5 c 128,-1,63
 380 560 380 560 405 543 c 128,-1,64
 430 526 430 526 443.5 499 c 128,-1,65
 457 472 457 472 457 434 c 2,66,-1
 457 113 l 2,67,68
 457 98 457 98 463 89.5 c 128,-1,69
 469 81 469 81 482 76 c 128,-1,70
 495 71 495 71 517 66 c 2,71,-1
 526 64 l 1,72,-1
 526 0 l 1,73,-1
 387 0 l 1,39,-1
EndSplineSet
Substitution2: "'ss06' Style Set 6 lookup 66 subtable" acaron.alt
EndChar

StartChar: adblgrave
Encoding: 513 513 334
Width: 547
GlyphClass: 1
Flags: W
LayerCount: 2
Fore
SplineSet
363 804 m 2,0,-1
 391 690 l 1,1,-1
 389 661 l 1,2,-1
 354 661 l 1,3,-1
 282 746 l 2,4,5
 266 766 266 766 256.5 782.5 c 128,-1,6
 247 799 247 799 247 818 c 0,7,8
 247 840 247 840 260.5 854.5 c 128,-1,9
 274 869 274 869 297 869 c 0,10,11
 324 869 324 869 340.5 850.5 c 128,-1,12
 357 832 357 832 363 804 c 2,0,-1
185 804 m 2,13,-1
 212 690 l 1,14,-1
 212 661 l 1,15,-1
 175 661 l 1,16,-1
 104 746 l 2,17,18
 88 766 88 766 79 782.5 c 128,-1,19
 70 799 70 799 70 818 c 0,20,21
 70 840 70 840 83 854.5 c 128,-1,22
 96 869 96 869 119 869 c 0,23,24
 146 869 146 869 162 850.5 c 128,-1,25
 178 832 178 832 185 804 c 2,13,-1
369 347 m 1,26,-1
 369 287 l 1,27,28
 310 277 310 277 270.5 265.5 c 128,-1,29
 231 254 231 254 207 241 c 128,-1,30
 183 228 183 228 171 213 c 128,-1,31
 159 198 159 198 154.5 179.5 c 128,-1,32
 150 161 150 161 150 138 c 0,33,34
 150 107 150 107 159 89.5 c 128,-1,35
 168 72 168 72 184 64.5 c 128,-1,36
 200 57 200 57 221 57 c 0,37,38
 245 57 245 57 269 67 c 128,-1,39
 293 77 293 77 317.5 101.5 c 128,-1,40
 342 126 342 126 368 168 c 1,41,-1
 371 107 l 1,42,43
 353 70 353 70 328 43 c 128,-1,44
 303 16 303 16 272.5 2 c 128,-1,45
 242 -12 242 -12 206 -12 c 0,46,47
 158 -12 158 -12 124.5 4.5 c 128,-1,48
 91 21 91 21 73.5 54 c 128,-1,49
 56 87 56 87 56 138 c 0,50,51
 56 182 56 182 70.5 214.5 c 128,-1,52
 85 247 85 247 119.5 271 c 128,-1,53
 154 295 154 295 215 313.5 c 128,-1,54
 276 332 276 332 369 347 c 1,26,-1
387 0 m 1,55,-1
 363 117 l 1,56,-1
 363 125 l 1,57,-1
 363 414 l 2,58,59
 363 444 363 444 356 464 c 128,-1,60
 349 484 349 484 328 494 c 128,-1,61
 307 504 307 504 264 504 c 0,62,63
 206 504 206 504 168 490.5 c 128,-1,64
 130 477 130 477 113 464 c 1,65,66
 113 469 113 469 118 478.5 c 128,-1,67
 123 488 123 488 131.5 497.5 c 128,-1,68
 140 507 140 507 151 513.5 c 128,-1,69
 162 520 162 520 176 519 c 1,70,-1
 176 393 l 1,71,-1
 84 393 l 1,72,-1
 84 528 l 1,73,74
 98 538 98 538 123 549 c 128,-1,75
 148 560 148 560 184 567.5 c 128,-1,76
 220 575 220 575 268 575 c 0,77,78
 310 575 310 575 345 567.5 c 128,-1,79
 380 560 380 560 405 543 c 128,-1,80
 430 526 430 526 443.5 499 c 128,-1,81
 457 472 457 472 457 434 c 2,82,-1
 457 113 l 2,83,84
 457 98 457 98 463 89.5 c 128,-1,85
 469 81 469 81 482 76 c 128,-1,86
 495 71 495 71 517 66 c 2,87,-1
 526 64 l 1,88,-1
 526 0 l 1,89,-1
 387 0 l 1,55,-1
EndSplineSet
Substitution2: "'ss06' Style Set 6 lookup 66 subtable" adblgrave.alt
EndChar

StartChar: ainvertedbreve
Encoding: 515 515 335
Width: 547
GlyphClass: 1
Flags: W
LayerCount: 2
Fore
SplineSet
257 830 m 256,0,1
 205 830 205 830 172.5 815.5 c 128,-1,2
 140 801 140 801 125 765.5 c 128,-1,3
 110 730 110 730 110 667 c 1,4,-1
 182 667 l 1,5,6
 184 706 184 706 189 725.5 c 128,-1,7
 194 745 194 745 209 752 c 128,-1,8
 224 759 224 759 255 759 c 0,9,10
 285 759 285 759 300 752 c 128,-1,11
 315 745 315 745 321 725.5 c 128,-1,12
 327 706 327 706 328 667 c 1,13,-1
 405 667 l 1,14,15
 406 730 406 730 390 765.5 c 128,-1,16
 374 801 374 801 341.5 815.5 c 128,-1,17
 309 830 309 830 257 830 c 256,0,1
369 347 m 1,18,-1
 369 287 l 1,19,20
 310 277 310 277 270.5 265.5 c 128,-1,21
 231 254 231 254 207 241 c 128,-1,22
 183 228 183 228 171 213 c 128,-1,23
 159 198 159 198 154.5 179.5 c 128,-1,24
 150 161 150 161 150 138 c 0,25,26
 150 107 150 107 159 89.5 c 128,-1,27
 168 72 168 72 184 64.5 c 128,-1,28
 200 57 200 57 221 57 c 0,29,30
 245 57 245 57 269 67 c 128,-1,31
 293 77 293 77 317.5 101.5 c 128,-1,32
 342 126 342 126 368 168 c 1,33,-1
 371 107 l 1,34,35
 353 70 353 70 328 43 c 128,-1,36
 303 16 303 16 272.5 2 c 128,-1,37
 242 -12 242 -12 206 -12 c 0,38,39
 158 -12 158 -12 124.5 4.5 c 128,-1,40
 91 21 91 21 73.5 54 c 128,-1,41
 56 87 56 87 56 138 c 0,42,43
 56 182 56 182 70.5 214.5 c 128,-1,44
 85 247 85 247 119.5 271 c 128,-1,45
 154 295 154 295 215 313.5 c 128,-1,46
 276 332 276 332 369 347 c 1,18,-1
387 0 m 1,47,-1
 363 117 l 1,48,-1
 363 125 l 1,49,-1
 363 414 l 2,50,51
 363 444 363 444 356 464 c 128,-1,52
 349 484 349 484 328 494 c 128,-1,53
 307 504 307 504 264 504 c 0,54,55
 206 504 206 504 168 490.5 c 128,-1,56
 130 477 130 477 113 464 c 1,57,58
 113 469 113 469 118 478.5 c 128,-1,59
 123 488 123 488 131.5 497.5 c 128,-1,60
 140 507 140 507 151 513.5 c 128,-1,61
 162 520 162 520 176 519 c 1,62,-1
 176 393 l 1,63,-1
 84 393 l 1,64,-1
 84 528 l 1,65,66
 98 538 98 538 123 549 c 128,-1,67
 148 560 148 560 184 567.5 c 128,-1,68
 220 575 220 575 268 575 c 0,69,70
 310 575 310 575 345 567.5 c 128,-1,71
 380 560 380 560 405 543 c 128,-1,72
 430 526 430 526 443.5 499 c 128,-1,73
 457 472 457 472 457 434 c 2,74,-1
 457 113 l 2,75,76
 457 98 457 98 463 89.5 c 128,-1,77
 469 81 469 81 482 76 c 128,-1,78
 495 71 495 71 517 66 c 2,79,-1
 526 64 l 1,80,-1
 526 0 l 1,81,-1
 387 0 l 1,47,-1
EndSplineSet
Substitution2: "'ss06' Style Set 6 lookup 66 subtable" ainvertedbreve.alt
EndChar

StartChar: b
Encoding: 98 98 348
Width: 602
GlyphClass: 2
Flags: W
AnchorPoint: "Anchor-1" 349 0 basechar 0
AnchorPoint: "Anchor-0" 329 755 basechar 0
LayerCount: 2
Fore
SplineSet
342 -13 m 0,0,1
 303 -13 303 -13 270.5 1.5 c 128,-1,2
 238 16 238 16 211.5 44.5 c 128,-1,3
 185 73 185 73 164 116 c 1,4,-1
 168 171 l 1,5,6
 193 134 193 134 218.5 110 c 128,-1,7
 244 86 244 86 272.5 75 c 128,-1,8
 301 64 301 64 333 64 c 256,9,10
 365 64 365 64 388.5 77 c 128,-1,11
 412 90 412 90 428 117 c 128,-1,12
 444 144 444 144 452 186 c 128,-1,13
 460 228 460 228 460 285 c 0,14,15
 460 344 460 344 452 384.5 c 128,-1,16
 444 425 444 425 428.5 450 c 128,-1,17
 413 475 413 475 390.5 486.5 c 128,-1,18
 368 498 368 498 338 498 c 0,19,20
 304 498 304 498 275 486.5 c 128,-1,21
 246 475 246 475 219.5 450 c 128,-1,22
 193 425 193 425 166 384 c 1,23,-1
 164 439 l 1,24,25
 185 482 185 482 212.5 512.5 c 128,-1,26
 240 543 240 543 274.5 559 c 128,-1,27
 309 575 309 575 351 575 c 0,28,29
 420 575 420 575 466.5 538.5 c 128,-1,30
 513 502 513 502 536 437 c 128,-1,31
 559 372 559 372 559 285 c 0,32,33
 559 199 559 199 533.5 131.5 c 128,-1,34
 508 64 508 64 459.5 25.5 c 128,-1,35
 411 -13 411 -13 342 -13 c 0,0,1
89 664 m 2,36,37
 89 679 89 679 81.5 686.5 c 128,-1,38
 74 694 74 694 60.5 699 c 128,-1,39
 47 704 47 704 28 709 c 2,40,-1
 19 711 l 1,41,-1
 19 780 l 1,42,-1
 183 780 l 1,43,-1
 183 122 l 1,44,-1
 183 120 l 1,45,-1
 153 -15 l 1,46,-1
 89 -15 l 1,47,-1
 89 664 l 2,36,37
EndSplineSet
EndChar

StartChar: c
Encoding: 99 99 349
Width: 519
GlyphClass: 2
Flags: W
AnchorPoint: "Anchor-1" 287 0 basechar 0
AnchorPoint: "Anchor-0" 277 565 basechar 0
LayerCount: 2
Fore
SplineSet
288 60 m 0,0,1
 323 60 323 60 347 70 c 128,-1,2
 371 80 371 80 389 99 c 128,-1,3
 407 118 407 118 421 145 c 1,4,-1
 476 111 l 1,5,6
 460 73 460 73 432 45 c 128,-1,7
 404 17 404 17 367 2 c 128,-1,8
 330 -13 330 -13 287 -13 c 0,9,10
 210 -13 210 -13 155.5 21.5 c 128,-1,11
 101 56 101 56 72 122 c 128,-1,12
 43 188 43 188 43 282 c 0,13,14
 43 374 43 374 71.5 439.5 c 128,-1,15
 100 505 100 505 155 540 c 128,-1,16
 210 575 210 575 288 575 c 0,17,18
 334 575 334 575 368.5 569 c 128,-1,19
 403 563 403 563 425.5 555.5 c 128,-1,20
 448 548 448 548 457 542 c 1,21,-1
 457 373 l 1,22,-1
 363 373 l 1,23,-1
 363 514 l 1,24,25
 372 514 372 514 381 509.5 c 128,-1,26
 390 505 390 505 397 498 c 128,-1,27
 404 491 404 491 408.5 484 c 128,-1,28
 413 477 413 477 414 473 c 1,29,30
 394 484 394 484 362.5 493 c 128,-1,31
 331 502 331 502 290 502 c 0,32,33
 236 502 236 502 203 477 c 128,-1,34
 170 452 170 452 156 403.5 c 128,-1,35
 142 355 142 355 142 282 c 0,36,37
 142 223 142 223 149.5 181 c 128,-1,38
 157 139 157 139 174 112.5 c 128,-1,39
 191 86 191 86 219 73 c 128,-1,40
 247 60 247 60 288 60 c 0,0,1
EndSplineSet
EndChar

StartChar: ccaron
Encoding: 269 269 354
Width: 519
GlyphClass: 1
Flags: W
LayerCount: 2
Fore
SplineSet
243 656 m 1,0,-1
 308 656 l 1,1,-1
 430 824 l 1,2,-1
 430 844 l 1,3,-1
 379 844 l 1,4,-1
 218 699 l 1,5,-1
 334 703 l 1,6,-1
 175 844 l 1,7,-1
 119 844 l 1,8,-1
 119 824 l 1,9,-1
 243 656 l 1,0,-1
288 60 m 0,10,11
 323 60 323 60 347 70 c 128,-1,12
 371 80 371 80 389 99 c 128,-1,13
 407 118 407 118 421 145 c 1,14,-1
 476 111 l 1,15,16
 460 73 460 73 432 45 c 128,-1,17
 404 17 404 17 367 2 c 128,-1,18
 330 -13 330 -13 287 -13 c 0,19,20
 210 -13 210 -13 155.5 21.5 c 128,-1,21
 101 56 101 56 72 122 c 128,-1,22
 43 188 43 188 43 282 c 0,23,24
 43 374 43 374 71.5 439.5 c 128,-1,25
 100 505 100 505 155 540 c 128,-1,26
 210 575 210 575 288 575 c 0,27,28
 334 575 334 575 368.5 569 c 128,-1,29
 403 563 403 563 425.5 555.5 c 128,-1,30
 448 548 448 548 457 542 c 1,31,-1
 457 373 l 1,32,-1
 363 373 l 1,33,-1
 363 514 l 1,34,35
 372 514 372 514 381 509.5 c 128,-1,36
 390 505 390 505 397 498 c 128,-1,37
 404 491 404 491 408.5 484 c 128,-1,38
 413 477 413 477 414 473 c 1,39,40
 394 484 394 484 362.5 493 c 128,-1,41
 331 502 331 502 290 502 c 0,42,43
 236 502 236 502 203 477 c 128,-1,44
 170 452 170 452 156 403.5 c 128,-1,45
 142 355 142 355 142 282 c 0,46,47
 142 223 142 223 149.5 181 c 128,-1,48
 157 139 157 139 174 112.5 c 128,-1,49
 191 86 191 86 219 73 c 128,-1,50
 247 60 247 60 288 60 c 0,10,11
EndSplineSet
EndChar

StartChar: d
Encoding: 100 100 356
Width: 608
GlyphClass: 2
Flags: W
AnchorPoint: "Anchor-2" 576 735 basechar 0
AnchorPoint: "Anchor-1" 284 0 basechar 0
LayerCount: 2
Fore
SplineSet
513 111 m 2,0,1
 513 89 513 89 529 81.5 c 128,-1,2
 545 74 545 74 573 66 c 2,3,-1
 582 64 l 1,4,-1
 582 0 l 1,5,-1
 448 0 l 1,6,-1
 425 121 l 1,7,-1
 419 121 l 1,8,-1
 419 664 l 2,9,10
 419 679 419 679 411 686.5 c 128,-1,11
 403 694 403 694 388 699 c 128,-1,12
 373 704 373 704 350 709 c 2,13,-1
 342 711 l 1,14,-1
 342 780 l 1,15,-1
 513 780 l 1,16,-1
 513 111 l 2,0,1
260 575 m 0,17,18
 299 575 299 575 331.5 560.5 c 128,-1,19
 364 546 364 546 390.5 518 c 128,-1,20
 417 490 417 490 438 446 c 1,21,-1
 433 391 l 1,22,23
 410 429 410 429 384 452.5 c 128,-1,24
 358 476 358 476 329.5 487 c 128,-1,25
 301 498 301 498 269 498 c 256,26,27
 237 498 237 498 213.5 485 c 128,-1,28
 190 472 190 472 174 445 c 128,-1,29
 158 418 158 418 150 376 c 128,-1,30
 142 334 142 334 142 277 c 0,31,32
 142 219 142 219 150 178 c 128,-1,33
 158 137 158 137 173.5 112 c 128,-1,34
 189 87 189 87 212 75.5 c 128,-1,35
 235 64 235 64 263 64 c 0,36,37
 298 64 298 64 327 75.5 c 128,-1,38
 356 87 356 87 383 112.5 c 128,-1,39
 410 138 410 138 436 178 c 1,40,-1
 438 123 l 1,41,42
 417 80 417 80 389.5 49.5 c 128,-1,43
 362 19 362 19 327 3 c 128,-1,44
 292 -13 292 -13 251 -13 c 0,45,46
 183 -13 183 -13 136.5 23.5 c 128,-1,47
 90 60 90 60 66.5 125.5 c 128,-1,48
 43 191 43 191 43 277 c 0,49,50
 43 364 43 364 68.5 431 c 128,-1,51
 94 498 94 498 142.5 536.5 c 128,-1,52
 191 575 191 575 260 575 c 0,17,18
EndSplineSet
EndChar

StartChar: e
Encoding: 101 101 360
Width: 524
GlyphClass: 2
Flags: W
AnchorPoint: "Anchor-2" 414 1 basechar 0
AnchorPoint: "Anchor-1" 288 0 basechar 0
AnchorPoint: "Anchor-0" 267 565 basechar 0
LayerCount: 2
Fore
SplineSet
138 276 m 0,0,1
 138 211 138 211 150 169 c 128,-1,2
 162 127 162 127 183 103.5 c 128,-1,3
 204 80 204 80 232 70 c 128,-1,4
 260 60 260 60 292 60 c 0,5,6
 327 60 327 60 351.5 70.5 c 128,-1,7
 376 81 376 81 394 100.5 c 128,-1,8
 412 120 412 120 426 146 c 1,9,-1
 482 112 l 1,10,11
 466 74 466 74 437 46 c 128,-1,12
 408 18 408 18 370 2.5 c 128,-1,13
 332 -13 332 -13 286 -13 c 0,14,15
 217 -13 217 -13 161.5 18.5 c 128,-1,16
 106 50 106 50 74.5 114.5 c 128,-1,17
 43 179 43 179 43 276 c 0,18,19
 43 370 43 370 71.5 437 c 128,-1,20
 100 504 100 504 151.5 539.5 c 128,-1,21
 203 575 203 575 273 575 c 0,22,23
 326 575 326 575 365 555.5 c 128,-1,24
 404 536 404 536 429.5 496 c 128,-1,25
 455 456 455 456 468 395 c 128,-1,26
 481 334 481 334 481 250 c 1,27,-1
 110 250 l 1,28,-1
 110 321 l 1,29,-1
 410 321 l 1,30,-1
 388 293 l 1,31,32
 387 353 387 353 379.5 393 c 128,-1,33
 372 433 372 433 358.5 457 c 128,-1,34
 345 481 345 481 323.5 491.5 c 128,-1,35
 302 502 302 502 273 502 c 0,36,37
 241 502 241 502 216 490 c 128,-1,38
 191 478 191 478 174 451.5 c 128,-1,39
 157 425 157 425 147.5 381.5 c 128,-1,40
 138 338 138 338 138 276 c 0,0,1
EndSplineSet
EndChar

StartChar: eogonek
Encoding: 281 281 368
Width: 524
GlyphClass: 1
Flags: W
LayerCount: 2
Fore
SplineSet
361 38 m 1,0,-1
 360 1 l 1,1,2
 342 -5 342 -5 324.5 -9 c 128,-1,3
 307 -13 307 -13 288 -13 c 0,4,5
 217 -13 217 -13 161.5 18.5 c 128,-1,6
 106 50 106 50 74.5 114.5 c 128,-1,7
 43 179 43 179 43 276 c 0,8,9
 43 370 43 370 71 437 c 128,-1,10
 99 504 99 504 151 539.5 c 128,-1,11
 203 575 203 575 273 575 c 0,12,13
 326 575 326 575 365 555.5 c 128,-1,14
 404 536 404 536 429.5 496.5 c 128,-1,15
 455 457 455 457 468 396 c 128,-1,16
 481 335 481 335 481 253 c 1,17,-1
 107 253 l 1,18,-1
 107 321 l 1,19,-1
 408 321 l 1,20,-1
 388 293 l 1,21,22
 387 353 387 353 379.5 393 c 128,-1,23
 372 433 372 433 358.5 457 c 128,-1,24
 345 481 345 481 324 491.5 c 128,-1,25
 303 502 303 502 274 502 c 0,26,27
 242 502 242 502 217 490 c 128,-1,28
 192 478 192 478 174.5 451.5 c 128,-1,29
 157 425 157 425 147.5 381.5 c 128,-1,30
 138 338 138 338 138 276 c 0,31,32
 138 211 138 211 149.5 169 c 128,-1,33
 161 127 161 127 182 103.5 c 128,-1,34
 203 80 203 80 231 70 c 128,-1,35
 259 60 259 60 291 60 c 0,36,37
 328 60 328 60 353 71 c 128,-1,38
 378 82 378 82 396 101.5 c 128,-1,39
 414 121 414 121 428 148 c 1,40,-1
 482 112 l 1,41,42
 471 88 471 88 454.5 66.5 c 128,-1,43
 438 45 438 45 405 19 c 0,44,45
 370 -9 370 -9 346 -33.5 c 128,-1,46
 322 -58 322 -58 308 -79.5 c 128,-1,47
 294 -101 294 -101 287.5 -119.5 c 128,-1,48
 281 -138 281 -138 281 -153 c 0,49,50
 281 -170 281 -170 290.5 -181.5 c 128,-1,51
 300 -193 300 -193 319 -193 c 0,52,53
 341 -193 341 -193 358.5 -178 c 128,-1,54
 376 -163 376 -163 388 -147 c 1,55,-1
 426 -183 l 1,56,57
 402 -213 402 -213 371.5 -232.5 c 128,-1,58
 341 -252 341 -252 295 -252 c 0,59,60
 263 -252 263 -252 237 -242 c 128,-1,61
 211 -232 211 -232 196 -212 c 128,-1,62
 181 -192 181 -192 181 -161 c 0,63,64
 181 -137 181 -137 189 -118 c 128,-1,65
 197 -99 197 -99 216.5 -78 c 128,-1,66
 236 -57 236 -57 271 -29.5 c 128,-1,67
 306 -2 306 -2 361 38 c 1,0,-1
EndSplineSet
EndChar

